<?xml version="1.0" encoding="utf-8"?>
<!-- Generator: Adobe Illustrator 15.1.0, SVG Export Plug-In . SVG Version: 6.00 Build 0)  -->
<!DOCTYPE svg PUBLIC "-//W3C//DTD SVG 1.1//EN" "http://www.w3.org/Graphics/SVG/1.1/DTD/svg11.dtd">
<svg version="1.1" id="Layer_1" xmlns="http://www.w3.org/2000/svg" xmlns:xlink="http://www.w3.org/1999/xlink" x="0px" y="0px"
	 width="759.74px" height="621.701px" viewBox="0 0 759.74 621.701" enable-background="new 0 0 759.74 621.701"
	 xml:space="preserve">
<g>
	<g>
		<path d="M119.426,416.593c3.204,0.365,6.491,1.287,8.996,2.521c2.617,1.291,5.146,3.502,6.065,4.737
			c3.632,4.875,4.116,8.737,3.59,15.196c-0.886,10.893-9.818,23.417-20.209,27.558c-12.108,4.824-30.849,0.62-35.8-11.773
			c-5.211-13.042,0.474-29.338,10.947-38.75c5.222-4.693,12.09-6.626,19.29-4.95c9.417,2.19,13.384-12.278,3.961-14.471
			c-36.138-8.408-63.386,38.765-45.564,68.673c9.14,15.339,30.322,20.978,46.922,17.062c15.452-3.644,26.914-16.227,32.607-30.523
			c4.087-10.263,3.96-21.815-0.59-31.853c-5.352-11.804-18.011-17.052-30.106-18.432c-4.068-0.464-7.531,3.688-7.556,7.448
			C111.95,413.456,115.368,416.13,119.426,416.593L119.426,416.593z"/>
	</g>
</g>
<g>
	<g>
		<path d="M93.452,437.372c9.687,0,9.772-15.004,0.108-15.004C83.874,422.368,83.789,437.372,93.452,437.372L93.452,437.372z"/>
	</g>
</g>
<g>
	<g>
		<path d="M109.037,437.372c9.687,0,9.772-15.004,0.108-15.004C99.458,422.368,99.373,437.372,109.037,437.372L109.037,437.372z"/>
	</g>
</g>
<g>
	<g>
		<path d="M102.543,460.749c9.687,0,9.772-15.004,0.108-15.004C92.965,445.745,92.879,460.749,102.543,460.749L102.543,460.749z"/>
	</g>
</g>
<g>
	<g>
		<path d="M94.054,486.357c7.79,24.013,7.534,49.654,7.536,74.628c0,9.686,15.004,9.771,15.003,0.107
			c-0.001-26.236,0.133-53.395-8.049-78.618C105.569,473.31,91.065,477.146,94.054,486.357L94.054,486.357z"/>
	</g>
</g>
<g>
	<g>
		<path d="M103.95,508.083c-17.251-0.064-36.014-2.056-48.5-14.542c-12.289-12.289-16.862-32.1-20.933-48.729
			c-2.302-9.403-16.786-5.501-14.489,3.883c4.846,19.792,10.656,41.296,25.499,56.139c15.202,15.201,37.814,18.176,58.315,18.253
			C113.53,523.123,113.612,508.12,103.95,508.083L103.95,508.083z"/>
	</g>
</g>
<g>
	<g>
		<path d="M106.439,523.087c54.197,2.439,108.802-47.094,100.806-102.95c-0.581-4.057-5.594-6.266-9.186-5.303
			c-4.306,1.153-5.883,5.14-5.304,9.186c6.65,46.452-42.831,86.017-86.208,84.063C96.856,507.647,96.812,522.653,106.439,523.087
			L106.439,523.087z"/>
	</g>
</g>
<g>
	<g>
		<path d="M104.552,557.691c-9.422,2.955-16.624,9.266-25.233,13.762c-8.573,4.478-0.962,17.409,7.596,12.939
			c7.3-3.812,13.577-9.722,21.52-12.213C117.637,569.294,113.792,554.793,104.552,557.691L104.552,557.691z"/>
	</g>
</g>
<g>
	<g>
		<path d="M101.445,571.431c10.188,5.057,20.604,9.573,31.64,12.429c9.377,2.426,13.323-12.049,3.961-14.471
			c-9.837-2.545-19.017-6.439-28.101-10.948C100.316,554.158,92.764,567.122,101.445,571.431L101.445,571.431z"/>
	</g>
</g>
<g>
	<g>
		<path d="M578.47,573.37c2.263,9.606,2.336,19.353,2.339,29.174c0.003,9.686,15.007,9.771,15.004,0.107
			c-0.004-11.152-0.285-22.257-2.854-33.164C590.739,560.062,576.256,563.973,578.47,573.37L578.47,573.37z"/>
	</g>
</g>
<g>
	<g>
		<path d="M590.252,576.075c10.936-2.096,24.286-5.501,34.72-2.788c3.737,0.971,5.142,2.32,7,5.909
			c2.193,4.234,2.235,11.473,2.084,16.854c-0.271,9.693,14.733,9.753,15.004,0.107c0.424-15.123-2.748-30.27-17.906-36.601
			c-13.414-5.604-31.268-0.562-44.784,2.029C576.862,563.409,580.81,577.886,590.252,576.075L590.252,576.075z"/>
	</g>
</g>
<g>
	<g>
		<path d="M588.955,618.933c18.152-3.794,36.637-4.896,55.147-4.937c9.685-0.022,9.772-15.025,0.107-15.004
			c-19.833,0.045-39.691,1.387-59.138,5.452C575.592,606.426,579.526,620.903,588.955,618.933L588.955,618.933z"/>
	</g>
</g>
<g>
	<g>
		<path d="M604.905,549.404c0.006-0.717,0.031-1.43,0.081-2.146c0.148-2.139-0.172,0.792,0.052-0.382
			c0.101-0.529,0.25-1.046,0.412-1.56c0.269-0.854-0.904,1.648,0.112-0.118c0.875-1.521-1.021,1.166-0.263,0.342
			c1.123-1.224-1.417,0.954-0.489,0.343c1.362-0.898-1.767,0.609-0.689,0.233c1.781-0.62-1.285,0.043-0.467-0.012
			c0.359-0.023,0.72,0.003,1.077,0.034c-2.6-0.226-1.222-0.179-0.535-0.005c0.385,0.099,0.76,0.234,1.132,0.374
			c-2.51-0.938-0.669-0.262-0.065,0.065c0.385,0.209,0.755,0.446,1.121,0.686c1.576,1.027-1.369-1.153,0.104,0.06
			c0.81,0.666,1.548,1.416,2.244,2.198c1.27,1.425-0.855-1.184-0.095-0.164c0.278,0.373,0.532,0.763,0.782,1.155
			c0.247,0.387,0.468,0.79,0.683,1.194c1.004,1.886-0.243-0.763,0.037-0.013c0.152,0.407,0.271,0.826,0.381,1.247
			c0.531,2.014-0.022-0.916,0.044-0.126c0.034,0.409,0.022,0.821,0.003,1.23c-0.039,0.787,0.485-2.057-0.058-0.133
			c-0.322,1.142,0.96-1.92,0.143-0.346c-0.295,0.569-1.333,1.749,0.243-0.189c-0.294,0.362-0.638,0.681-0.983,0.992
			c1.868-1.683,0.251-0.229-0.384,0.14c-0.47,0.273-2.39,1.061-0.174,0.171c-0.796,0.319-1.623,0.553-2.449,0.773
			c-0.75,0.2-1.514,0.342-2.276,0.479c-0.852,0.129-0.82,0.134,0.095,0.015c-0.688,0.086-1.381,0.138-2.072,0.19
			c-4.072,0.312-7.526,3.109-7.556,7.448c-0.025,3.826,3.368,7.868,7.448,7.556c9.032-0.691,18.771-3.359,22.234-12.689
			c2.55-6.871-0.923-14.104-5.265-19.33c-3.696-4.448-10.253-8.625-16.273-7.971c-9.541,1.035-13.258,9.404-13.339,18.148
			C589.812,558.987,604.815,559.063,604.905,549.404L604.905,549.404z"/>
	</g>
</g>
<g>
	<g>
		<path d="M558.145,124.019c2.835,9.608,6.729,18.858,11.164,27.831c4.285,8.667,17.208,1.039,12.939-7.596
			c-3.855-7.8-7.15-15.765-9.615-24.117C569.9,110.873,555.405,114.733,558.145,124.019L558.145,124.019z"/>
	</g>
</g>
<g>
	<g>
		<path d="M570.531,130.878c7.898,0.351,14.789,7.754,20.979,11.98c8.001,5.464,15.443-7.566,7.5-12.99
			c-8.971-6.126-16.947-13.486-28.371-13.993C560.948,115.445,560.903,130.451,570.531,130.878L570.531,130.878z"/>
	</g>
</g>
<g>
	<g>
		<path d="M656.161,115.504c-5.453,5.384-11.431,10.2-16.883,15.584c-6.882,6.793,3.771,17.357,10.664,10.551
			c5.453-5.383,11.431-10.199,16.883-15.584C673.706,119.261,663.053,108.697,656.161,115.504L656.161,115.504z"/>
	</g>
</g>
<g>
	<g>
		<path d="M653.991,125.92c-0.004,7.09,0.192,14.413-2.889,20.979c-4.081,8.697,8.876,16.269,12.99,7.5
			c4.275-9.112,4.896-18.441,4.902-28.371C669,116.342,653.997,116.257,653.991,125.92L653.991,125.92z"/>
	</g>
</g>
<g>
	<g>
		<path d="M608.889,208.543c6.023-1.124,12.199-1.228,18.182-2.598c9.439-2.162,5.523-16.644-3.883-14.489
			c-5.97,1.368-12.16,1.475-18.182,2.598c-4.024,0.75-6.299,5.468-5.303,9.186C600.824,207.42,604.872,209.292,608.889,208.543
			L608.889,208.543z"/>
	</g>
</g>
<g>
	<g>
		<path d="M607.505,205.812c-3.213,9.666-6.148,20.627-16.044,25.381c-8.712,4.186-1.074,17.104,7.596,12.939
			c13.575-6.522,18.493-21.047,22.919-34.359C625.037,200.563,610.542,196.677,607.505,205.812L607.505,205.812z"/>
	</g>
</g>
<g>
	<g>
		<path d="M608.167,217.021c9.915,7.837,14.043,22.021,26.2,27.137c3.765,1.584,8.011,1.125,10.245-2.745
			c1.852-3.207,1.03-8.656-2.745-10.245c-4.954-2.085-7.809-6.252-10.811-10.521c-3.637-5.171-7.342-10.342-12.339-14.291
			c-3.2-2.529-7.494-3.096-10.607,0.057C605.477,209.078,604.951,214.479,608.167,217.021L608.167,217.021z"/>
	</g>
</g>
<g>
	<g>
		<path d="M583.57,274.172c-9.929,21.914-19.253,45.255-15.962,69.752c3.149,23.439,22.783,39.367,43.915,46.709
			c38.594,13.408,90.401,1.295,113.246-34.023c18.319-28.322,17.734-66.539,10.73-98.267c-7.12-32.258-23.688-65.83-52.074-84.318
			c-8.121-5.29-15.579,7.728-7.5,12.99c15.387,10.022,26.063,25.737,33.89,42.049c8.654,18.037,13.512,38.239,14.787,58.164
			c1.176,18.374-0.69,37.809-8.748,54.585c-8.241,17.161-23.365,28.151-41.209,33.987c-24.813,8.116-57.01,7.428-77.954-9.917
			c-26.378-21.845-11.809-58.435-0.131-84.211C600.517,272.938,587.565,265.354,583.57,274.172L583.57,274.172z"/>
	</g>
</g>
<g>
	<g>
		<path d="M603.708,388.859c-7.228,1.144-14.617,3.126-19.083,9.322c-4.219,5.854-0.143,12.883,4.724,16.535
			c11.327,8.503,29.475,6.631,40.878-0.455c8.192-5.092,0.642-18.059-7.596-12.939c-3.808,2.366-7.999,3.663-12.238,3.876
			c-1.596,0.08-4.372-0.073-5.257-0.216c-1.089-0.175-2.159-0.448-3.223-0.737c-0.273-0.074-2.929-1.064-1.759-0.551
			c-0.618-0.271-1.208-0.603-1.794-0.937c-0.356-0.211-0.703-0.438-1.041-0.678c0.746,0.577,0.819,0.603,0.219,0.077
			c-0.57-0.62-0.496-0.49,0.223,0.389c-0.418-0.728-0.361-0.506,0.172,0.667c-0.204-0.79-0.187-0.528,0.054,0.784
			c-0.007,0.752-0.207,1.445-0.601,2.083c0.396-0.653,0.293-0.539-0.309,0.343c0.581-0.537,0.523-0.519-0.174,0.057
			c0.265-0.193,2.286-1.228,1.627-0.964c2.881-1.15,6.013-1.686,9.061-2.168c4.046-0.64,6.277-5.55,5.303-9.186
			C611.751,389.9,607.745,388.221,603.708,388.859L603.708,388.859z"/>
	</g>
</g>
<g>
	<g>
		<path d="M666.045,391.457c-7.665,1.959-15.293,5.866-17.802,13.904c-2.265,7.257,2.373,13.876,7.886,17.973
			c5.659,4.206,13.651,4.737,20.28,3.173c9.702-2.289,16.921-10.436,21.449-18.86c4.574-8.511-8.402-16.036-12.99-7.5
			c-2.5,4.65-6.437,9.765-10.729,11.38c-2.467,0.929-2.833,0.87-5.092,0.823c-0.584-0.013-3.509-0.856-3.764-0.986
			c-0.333-0.168-2.447-1.71-1.115-0.624c-0.333-0.272-1.981-2.189-0.812-0.635c-0.345-0.459-1.222-2.578-0.48-0.574
			c-0.54-1.459-0.174-0.407-0.281,0.311c0.285-1.909-0.303,0.221,0.287-0.793c-1.05,1.804,1.291-1.101,0.065-0.147
			c2.159-1.678,4.31-2.271,6.981-2.955C679.304,403.549,675.412,389.062,666.045,391.457L666.045,391.457z"/>
	</g>
</g>
<g>
	<g>
		<path d="M595.162,177.898c0.446-0.218,0.896-0.424,1.352-0.619c-0.619,0.258-1.237,0.517-1.856,0.775
			c2.678-1.099,5.092-1.906,7.234-3.948c2.955-2.817,2.786-7.8-0.058-10.608c-2.97-2.932-7.648-2.764-10.608,0.057
			c-0.18,0.172-0.363,0.331-0.56,0.484c0.512-0.398,1.022-0.796,1.534-1.194c-0.45,0.317-0.928,0.555-1.435,0.768
			c0.619-0.258,1.237-0.517,1.856-0.775c-1.696,0.679-3.411,1.317-5.056,2.12c-3.676,1.795-4.618,6.947-2.672,10.268
			c0.983,1.677,2.616,2.922,4.489,3.437C591.438,179.228,593.296,178.809,595.162,177.898L595.162,177.898z"/>
	</g>
</g>
<g>
	<g>
		<path d="M621.153,170.268c1.411,1.362,3.106,2.334,4.356,3.877c-0.398-0.512-0.796-1.023-1.194-1.535
			c0.317,0.42,0.593,0.852,0.839,1.318c1.908,3.615,6.862,4.668,10.268,2.672c3.643-2.135,4.578-6.655,2.672-10.268
			c-0.903-1.712-2.217-3.266-3.684-4.528c-0.882-0.759-1.867-1.392-2.706-2.201c-2.936-2.834-7.709-2.878-10.607,0.057
			C618.252,162.539,618.209,167.427,621.153,170.268L621.153,170.268z"/>
	</g>
</g>
<g>
	<g>
		<path d="M577.734,199.249c-14.369,3.125-28.524,1.1-42.831-1.289c-9.466-1.581-13.49,12.879-3.961,14.47
			c17.049,2.847,33.558,5.03,50.675,1.308C591.08,211.68,587.154,197.201,577.734,199.249L577.734,199.249z"/>
	</g>
</g>
<g>
	<g>
		<path d="M575.877,220.803c-13,5.705-27.59,6.713-41.603,6.76c-9.684,0.032-9.772,15.036-0.107,15.004
			c16.935-0.057,33.683-1.968,49.306-8.824c3.749-1.646,4.554-7.057,2.672-10.268C583.899,219.644,579.618,219.161,575.877,220.803
			L575.877,220.803z"/>
	</g>
</g>
<g>
	<g>
		<path d="M573.28,240.283c-12.126,8.486-24.446,17.364-38.403,22.603c-8.971,3.366-5.174,17.888,3.883,14.488
			c15.357-5.764,28.755-14.802,42.116-24.151C588.735,247.723,581.224,234.724,573.28,240.283L573.28,240.283z"/>
	</g>
</g>
<g>
	<g>
		<path d="M642.629,208.534c12.935,5.381,27.192,4.21,40.285,0.009c9.178-2.945,5.339-17.448-3.883-14.489
			c-10.906,3.5-21.665,4.494-32.441,0.009c-3.785-1.575-8.236,1.689-9.216,5.255C636.188,203.639,638.863,206.967,642.629,208.534
			L642.629,208.534z"/>
	</g>
</g>
<g>
	<g>
		<path d="M650.422,231.91c11.249,2.716,22.824,4.083,34.394,4.163c9.689,0.066,9.769-14.937,0.107-15.004
			c-10.324-0.071-20.499-1.205-30.54-3.63C644.978,215.168,641.018,229.639,650.422,231.91L650.422,231.91z"/>
	</g>
</g>
<g>
	<g>
		<path d="M644.53,252.086c10.169,11.311,25.603,16.121,40.286,17.754c4.068,0.452,7.53-3.68,7.556-7.448
			c0.029-4.409-3.389-7.104-7.448-7.556c-10.909-1.213-22.348-5.078-29.843-13.416C648.613,234.226,638.079,244.909,644.53,252.086
			L644.53,252.086z"/>
	</g>
</g>
<g>
	<g>
		<path d="M240.014,107.008c2.734,9.264,6.466,18.158,10.743,26.81c2,4.047,8.037,0.499,6.044-3.533
			c-4.015-8.121-7.471-16.443-10.037-25.138C245.489,100.828,238.733,102.668,240.014,107.008L240.014,107.008z"/>
	</g>
</g>
<g>
	<g>
		<path d="M248.584,110.876c8.868,0.394,15.964,7.767,22.908,12.509c3.739,2.553,7.236-3.516,3.533-6.044
			c-8.284-5.656-15.889-12.997-26.441-13.465C244.069,103.676,244.089,110.677,248.584,110.876L248.584,110.876z"/>
	</g>
</g>
<g>
	<g>
		<path d="M337.018,102.304c-5.452,5.385-11.43,10.201-16.883,15.584c-3.216,3.175,1.736,8.123,4.95,4.95
			c5.453-5.384,11.43-10.2,16.883-15.584C345.183,104.079,340.231,99.131,337.018,102.304L337.018,102.304z"/>
	</g>
</g>
<g>
	<g>
		<path d="M335.993,109.974c-0.004,7.842-0.019,15.666-3.417,22.909c-1.906,4.061,4.128,7.617,6.044,3.533
			c3.973-8.468,4.368-17.23,4.374-26.442C342.995,105.46,335.995,105.46,335.993,109.974L335.993,109.974z"/>
	</g>
</g>
<g>
	<g>
		<path d="M285.878,188.674c6.024-1.124,12.201-1.228,18.182-2.598c4.399-1.008,2.533-7.756-1.861-6.75
			c-5.971,1.368-12.159,1.475-18.182,2.598C279.583,182.75,281.467,189.497,285.878,188.674L285.878,188.674z"/>
	</g>
</g>
<g>
	<g>
		<path d="M289.366,190.861c-3.54,10.648-6.977,22.543-17.873,27.779c-4.068,1.954-0.515,7.989,3.533,6.044
			c12.602-6.055,16.984-19.612,21.09-31.962C297.544,188.426,290.782,186.6,289.366,190.861L289.366,190.861z"/>
	</g>
</g>
<g>
	<g>
		<path d="M288.967,198.163c9.983,7.89,14,21.732,26.219,26.874c4.159,1.75,5.956-5.027,1.861-6.75
			c-5.116-2.153-8.374-7.251-11.439-11.61c-3.448-4.903-6.953-9.718-11.691-13.464C290.417,190.446,285.427,195.365,288.967,198.163
			L288.967,198.163z"/>
	</g>
</g>
<g>
	<g>
		<path d="M265.043,260.155c-9.266,20.453-19.256,43.787-15.565,66.759c3.547,22.078,20.801,36.808,41.095,43.858
			c36.812,12.79,86.83,1.702,108.724-32.147c17.76-27.457,17.123-64.518,10.334-95.271c-6.877-31.153-22.721-63.966-50.188-81.856
			c-3.795-2.472-7.299,3.591-3.533,6.044c33.128,21.577,48.282,66.033,50.695,103.741c1.221,19.084-0.92,39.114-9.277,56.514
			c-8.703,18.123-24.863,29.722-43.671,35.874c-26.25,8.585-59.724,7.324-81.766-10.93c-27.978-23.17-13.221-61.641-0.803-89.052
			C272.935,259.61,266.903,256.049,265.043,260.155L265.043,260.155z"/>
	</g>
</g>
<g>
	<g>
		<path d="M282.718,376.729c-5.898,0.934-12.901,2.275-16.621,7.437c-2.823,3.917-0.035,8.625,3.234,11.078
			c10.264,7.705,26.527,5.994,36.863-0.429c3.824-2.377,0.312-8.435-3.533-6.045c-7.688,4.778-18.048,6.098-26.491,2.397
			c-1.24-0.544-2.438-1.231-3.434-2.151c-0.483-0.446-0.683-1.239-0.825-0.919c1.559-3.52,9.591-4.131,12.668-4.618
			C289.028,382.774,287.133,376.03,282.718,376.729L282.718,376.729z"/>
	</g>
</g>
<g>
	<g>
		<path d="M345.056,379.326c-6.17,1.577-12.9,4.51-14.953,11.086c-1.681,5.384,1.923,10.412,6.01,13.449
			c13.647,10.142,29.725-2.017,36.272-14.198c2.137-3.976-3.907-7.51-6.044-3.533c-4.733,8.807-14.367,18.119-25.042,12.707
			c-2.041-1.034-4.96-3.401-4.565-6.046c0.639-4.274,6.784-5.846,10.183-6.715C351.288,384.959,349.433,378.207,345.056,379.326
			L345.056,379.326z"/>
	</g>
</g>
<g>
	<g>
		<path d="M271.13,158.45c0.234-0.117,0.47-0.229,0.708-0.338c1.053-0.49-0.562,0.215,0.395-0.165
			c0.494-0.196,0.994-0.377,1.484-0.583c1.259-0.528,2.313-1.103,3.316-2.059c1.38-1.316,1.324-3.625,0-4.95
			c-1.373-1.373-3.57-1.315-4.95,0c-0.118,0.119-0.242,0.232-0.372,0.338c0.686-0.592,0.135-0.143-0.062-0.03
			c-0.135,0.074-0.273,0.143-0.413,0.207c0.88-0.423,0.107-0.048-0.077,0.023c-1.203,0.467-2.401,0.944-3.562,1.511
			c-1.713,0.836-2.165,3.236-1.255,4.789C267.358,158.931,269.416,159.288,271.13,158.45L271.13,158.45z"/>
	</g>
</g>
<g>
	<g>
		<path d="M301.953,151.41c0.326,0.314,0.674,0.6,1.03,0.88c0.367,0.288,0.738,0.571,1.108,0.855
			c0.302,0.232,0.275,0.211-0.079-0.06c0.145,0.114,0.289,0.229,0.431,0.346c0.45,0.365,0.873,0.759,1.277,1.173
			c0.07,0.072,0.688,0.83,0.228,0.219c0.253,0.335,0.458,0.702,0.654,1.073c0.889,1.686,3.197,2.188,4.789,1.255
			c1.698-0.994,2.146-3.101,1.255-4.789c-0.749-1.42-1.824-2.659-3.037-3.702c-0.638-0.549-1.318-1.048-1.985-1.56
			c0.72,0.553,0.067,0.048-0.066-0.06c-0.228-0.183-0.444-0.378-0.654-0.582c-1.372-1.324-3.583-1.366-4.95,0
			C300.623,147.791,300.581,150.085,301.953,151.41L301.953,151.41z"/>
	</g>
</g>
<g>
	<g>
		<path d="M256.745,187.118c-15.102,3.284-29.854,1.212-44.892-1.298c-4.415-0.737-6.306,6.008-1.861,6.75
			c16.32,2.725,32.229,4.861,48.614,1.298C263.016,192.909,261.146,186.161,256.745,187.118L256.745,187.118z"/>
	</g>
</g>
<g>
	<g>
		<path d="M255.909,208.25c-13.714,6.019-28.879,7.265-43.688,7.314c-4.513,0.015-4.515,7.015,0,7
			c16.149-0.054,32.302-1.723,47.221-8.27C263.567,212.484,260,206.455,255.909,208.25L255.909,208.25z"/>
	</g>
</g>
<g>
	<g>
		<path d="M253.311,227.73c-12.47,8.727-25.076,17.64-39.424,23.024c-4.185,1.571-2.374,8.339,1.861,6.75
			c14.972-5.619,28.074-14.617,41.096-23.729C260.513,231.208,257.02,225.136,253.311,227.73L253.311,227.73z"/>
	</g>
</g>
<g>
	<g>
		<path d="M321.679,188.674c12.37,5.147,25.704,4.018,38.225,0c4.28-1.374,2.449-8.133-1.861-6.75
			c-11.482,3.685-23.157,4.72-34.502,0C319.373,180.19,317.575,186.966,321.679,188.674L321.679,188.674z"/>
	</g>
</g>
<g>
	<g>
		<path d="M329.472,212.05c10.938,2.641,22.149,3.944,33.397,4.021c4.516,0.031,4.512-6.969,0-7
			c-10.646-0.073-21.184-1.271-31.536-3.771C326.947,204.241,325.085,210.99,329.472,212.05L329.472,212.05z"/>
	</g>
</g>
<g>
	<g>
		<path d="M325.33,233.228c9.472,10.536,23.842,15.088,37.54,16.61c4.483,0.498,4.435-6.507,0-7
			c-11.895-1.322-24.398-5.448-32.589-14.56C327.256,224.914,322.322,229.882,325.33,233.228L325.33,233.228z"/>
	</g>
</g>
<g>
	<g>
		<path d="M252.373,265.767c-17.242-23.559-17.549-56.568-19.137-84.521c-2.131-37.515-5.03-74.796-5.061-112.414
			c-0.004-4.514-7.004-4.514-7,0c0.031,38.068,2.981,75.803,5.138,113.769c1.631,28.708,2.324,62.525,20.016,86.699
			C248.965,272.902,255.043,269.416,252.373,265.767L252.373,265.767z"/>
	</g>
</g>
<g>
	<g>
		<path d="M245.822,243.379c-8.975,1.418-17.401,5.858-19.327,15.431c-0.399,1.985,0.553,3.623,2.444,4.306
			c8.146,2.938,16.695,0.879,23.476-4.248c3.552-2.687,0.07-8.77-3.533-6.045c-5.434,4.109-11.509,5.913-18.082,3.543
			c0.814,1.436,1.629,2.87,2.444,4.306c1.457-7.239,7.819-9.496,14.438-10.542C252.132,249.426,250.237,242.682,245.822,243.379
			L245.822,243.379z"/>
	</g>
</g>
<g>
	<g>
		<path d="M174.026,72.332c45.457,1.225,91.047-2.451,136.363,2.598c4.483,0.5,4.435-6.506,0-7
			c-45.316-5.049-90.906-1.373-136.363-2.598C169.509,65.21,169.521,72.21,174.026,72.332L174.026,72.332z"/>
	</g>
</g>
<g>
	<g>
		<path d="M162.733,18.182c2.3,17.587-1.022,35.432,2.723,52.879c0.947,4.413,7.695,2.541,6.75-1.861
			c-3.601-16.777-0.257-34.077-2.473-51.018C169.157,13.772,162.149,13.716,162.733,18.182L162.733,18.182z"/>
	</g>
</g>
<g>
	<g>
		<path d="M168.831,16.487c70.517,3.788,141.121,1.323,211.688,1.299c4.514-0.001,4.514-7.001,0-7
			c-70.567,0.024-141.171,2.489-211.688-1.299C164.318,9.245,164.342,16.246,168.831,16.487L168.831,16.487z"/>
	</g>
</g>
<g>
	<g>
		<path d="M306.493,74.929c30.303,0,60.606,0,90.909,0c4.514,0,4.514-7,0-7c-30.303,0-60.606,0-90.909,0
			C301.979,67.929,301.979,74.929,306.493,74.929L306.493,74.929z"/>
	</g>
</g>
<g>
	<g>
		<path d="M392.729,16.516c2.448,17.763,2.472,35.719,2.473,53.615c0,4.514,7,4.514,7,0c-0.001-18.554-0.185-37.064-2.723-55.476
			C398.864,10.199,392.121,12.103,392.729,16.516L392.729,16.516z"/>
	</g>
</g>
<g>
	<g>
		<path d="M192.729,33.398c2.674,6.446,6.394,12.145,11.29,17.129c3.167,3.224,8.115-1.729,4.95-4.95
			c-3.998-4.069-7.297-8.752-9.49-14.04C197.775,27.43,191,29.229,192.729,33.398L192.729,33.398z"/>
	</g>
</g>
<g>
	<g>
		<path d="M215.16,33.299c-4.001,9.072-9.347,17.403-14.286,25.974c-2.258,3.918,3.792,7.442,6.044,3.533
			c4.939-8.571,10.285-16.903,14.286-25.974C223.008,32.742,216.978,29.176,215.16,33.299L215.16,33.299z"/>
	</g>
</g>
<g>
	<g>
		<path d="M236.241,40.138c2.186-1.892,5.894-4.152,8.531-1.784c2.194,1.972,1.695,5.476,0.007,7.609
			c-2.247,2.838-7.697,6.423-11.36,4.47c-3.977-2.121-2.259-8.081-0.527-11.003c2.307-3.893-3.746-7.412-6.044-3.533
			c-3.949,6.666-4.043,15.34,2.565,20.28c6.404,4.788,16.442-0.368,20.701-5.75c3.996-5.05,4.268-12.288-0.392-17.021
			c-5.443-5.528-13.404-2.567-18.431,1.783C227.872,38.147,232.846,43.076,236.241,40.138L236.241,40.138z"/>
	</g>
</g>
<g>
	<g>
		<path d="M257.539,31.169c-0.671,9.037,1.044,26.224,13.579,26.225c12.083,0,12.096-16.529,10.179-24.558
			c-1.048-4.39-7.798-2.527-6.75,1.861c0.967,4.051,1.413,8.248,0.059,12.258c-0.411,1.218-1.104,2.083-1.992,2.875
			c-0.544,0.486-1.107,0.563-1.849,0.563c-1.532,0-3.325-1.998-4.44-4.159c-2.313-4.48-2.146-10.201-1.786-15.065
			C264.873,26.664,257.871,26.696,257.539,31.169L257.539,31.169z"/>
	</g>
</g>
<g>
	<g>
		<path d="M297.923,32.836c-1.678,7.162-1.823,14.831,3.335,20.613c5.022,5.631,13.665,5.503,20.451,4.472
			c4.451-0.676,2.553-7.421-1.861-6.75c-4.604,0.7-10.084,0.811-13.64-2.671c-3.497-3.425-2.519-9.601-1.535-13.802
			C305.702,30.306,298.953,28.442,297.923,32.836L297.923,32.836z"/>
	</g>
</g>
<g>
	<g>
		<path d="M335.461,38.961c0.095,5.226,1.203,10.359,1.298,15.584c0.082,4.509,7.083,4.517,7,0
			c-0.095-5.226-1.203-10.359-1.298-15.584C342.379,34.453,335.378,34.445,335.461,38.961L335.461,38.961z"/>
	</g>
</g>
<g>
	<g>
		<path d="M355.066,35.434c-1.303,6.814-2.042,13.934,0.85,20.438c3.107,6.989,11.297,7.397,17.741,5.946
			c4.403-0.992,2.535-7.74-1.861-6.75c-4.075,0.917-8.448,1.088-10.107-3.436c-1.629-4.442-0.734-9.837,0.127-14.336
			C362.66,32.884,355.914,31.003,355.066,35.434L355.066,35.434z"/>
	</g>
</g>
<g>
	<g>
		<path d="M355.844,38.565c5.195,0,10.39,0,15.584,0c4.514,0,4.514-7,0-7c-5.195,0-10.39,0-15.584,0
			C351.33,31.565,351.33,38.565,355.844,38.565L355.844,38.565z"/>
	</g>
</g>
<g>
	<g>
		<path d="M359.74,51.552c3.896,0,7.792,0,11.688,0c4.514,0,4.514-7,0-7c-3.896,0-7.792,0-11.688,0
			C355.226,44.552,355.226,51.552,359.74,51.552L359.74,51.552z"/>
	</g>
</g>
<g>
	<g>
		<path d="M546.607,542.856c-14.747-8.584-29.711-16.751-45.454-23.377c-3.765-1.584-8.011-1.125-10.245,2.745
			c-1.852,3.207-1.03,8.656,2.745,10.245c15.743,6.626,30.707,14.793,45.454,23.377
			C547.475,560.718,554.972,547.726,546.607,542.856L546.607,542.856z"/>
	</g>
</g>
<g>
	<g>
		<path d="M446.136,503.154c-7.792-1.298-15.585-2.597-23.377-3.896c-4.033-0.672-8.052,1.019-9.216,5.255
			c-0.999,3.636,1.222,8.543,5.255,9.216c7.792,1.299,15.585,2.598,23.377,3.896c4.033,0.672,8.052-1.019,9.216-5.255
			C452.389,508.734,450.169,503.826,446.136,503.154L446.136,503.154z"/>
	</g>
</g>
<g>
	<g>
		<path d="M368.214,479.778c-15.825-2.811-30.507-9.655-43.685-18.74c-7.976-5.498-15.414,7.534-7.5,12.99
			c14.091,9.714,30.307,17.216,47.224,20.221C373.716,495.93,377.731,481.469,368.214,479.778L368.214,479.778z"/>
	</g>
</g>
<g>
	<g>
		<path d="M283.093,437.761c-4.204-5.462-9.303-9.714-14.181-14.521c-6.882-6.784-17.456,3.859-10.551,10.664
			c1.9,1.874,3.903,3.637,5.874,5.435c1.976,1.805,4.649,4.367,5.919,6.018c2.492,3.237,6.405,4.937,10.268,2.672
			C283.614,446.156,285.591,441.007,283.093,437.761L283.093,437.761z"/>
	</g>
</g>
<g>
	<g>
		<path d="M590.292,471.986c-8.636-2.231-16.972-5.418-23.978-11.084c-3.172-2.566-7.519-3.072-10.608,0.057
			c-2.656,2.689-3.128,8.031,0.058,10.607c9.071,7.338,19.301,11.979,30.567,14.891
			C595.708,488.881,599.654,474.406,590.292,471.986L590.292,471.986z"/>
	</g>
</g>
<g>
	<g>
		<path d="M511.542,427.271c-7.476-4.907-15.388-8.991-23.376-12.987c-8.617-4.312-16.167,8.654-7.5,12.99
			c7.988,3.996,15.9,8.08,23.376,12.987C512.144,445.58,519.599,432.561,511.542,427.271L511.542,427.271z"/>
	</g>
</g>
<g>
	<g>
		<path d="M449.205,394.804c-11.282-7.052-17.431-18.986-24.553-29.77c-5.304-8.028-18.286-0.499-12.939,7.596
			c8.659,13.108,16.309,26.611,29.993,35.164C449.922,412.931,457.395,399.923,449.205,394.804L449.205,394.804z"/>
	</g>
</g>
</svg>
