<?xml version="1.0" encoding="utf-8"?>
<!-- Generator: Adobe Illustrator 15.1.0, SVG Export Plug-In . SVG Version: 6.00 Build 0)  -->
<!DOCTYPE svg PUBLIC "-//W3C//DTD SVG 1.1//EN" "http://www.w3.org/Graphics/SVG/1.1/DTD/svg11.dtd">
<svg version="1.1" id="Layer_1" xmlns="http://www.w3.org/2000/svg" xmlns:xlink="http://www.w3.org/1999/xlink" x="0px" y="0px"
	 width="800px" height="505.263px" viewBox="0 0 800 505.263" enable-background="new 0 0 800 505.263" xml:space="preserve">
<g>
	<g>
		<path d="M49.472,481.186c132.926,0,265.853,0,398.779,0c61.811,0,123.621,0,185.432,0c9.686,0,9.771-15.004,0.107-15.004
			c-132.926,0-265.852,0-398.778,0c-61.811,0-123.621,0-185.432,0C39.894,466.182,39.809,481.186,49.472,481.186L49.472,481.186z"/>
	</g>
</g>
<g>
	<g>
		<path d="M191.578,316.712c14.035,0,28.07,0,42.105,0c9.687,0,9.772-15.004,0.108-15.004c-14.035,0-28.07,0-42.105,0
			C182,301.708,181.914,316.712,191.578,316.712L191.578,316.712z"/>
	</g>
</g>
<g>
	<g>
		<path d="M463.946,312.765c15.351,0,30.701,0,46.053,0c9.686,0,9.771-15.004,0.107-15.004c-15.351,0-30.701,0-46.053,0
			C454.368,297.761,454.282,312.765,463.946,312.765L463.946,312.765z"/>
	</g>
</g>
<g>
	<g>
		<path d="M336.762,135.472c3.693,36.257,3.748,72.595-2.365,108.6c-1.607,9.465,12.853,13.488,14.471,3.961
			c6.343-37.359,6.732-74.806,2.897-112.452c-0.414-4.063-3.032-7.527-7.447-7.556C340.569,128,336.347,131.4,336.762,135.472
			L336.762,135.472z"/>
	</g>
</g>
<g>
	<g>
		<path d="M348.156,139.08c76.901-6.718,154.417-10.643,231.579-6.579c-2.397-1.854-4.794-3.707-7.19-5.561
			c9.225,36.721,1.18,75.229,1.059,112.479c-0.031,9.688,14.973,9.771,15.004,0.108c0.125-38.74,8.027-78.249-1.574-116.469
			c-0.839-3.341-3.876-5.386-7.19-5.561c-77.161-4.064-154.678-0.14-231.578,6.579C338.698,124.913,338.532,139.921,348.156,139.08
			L348.156,139.08z"/>
	</g>
</g>
<g>
	<g>
		<path d="M440.967,101.941c2.07,5.467,2.37,10.637,2.373,16.426c0.006,9.686,15.01,9.772,15.004,0.108
			c-0.005-6.977-0.394-13.829-2.889-20.416c-1.447-3.822-4.938-6.442-9.186-5.304C442.62,93.733,439.516,98.111,440.967,101.941
			L440.967,101.941z"/>
	</g>
</g>
<g>
	<g>
		<path d="M330.439,32.204c4.795,31.408,7.372,63.173,2.642,94.763c-0.606,4.043,0.97,8.039,5.254,9.215
			c3.587,0.985,8.61-1.209,9.215-5.254c5.155-34.422,2.606-68.36-2.622-102.605c-0.619-4.05-5.566-6.273-9.186-5.304
			C331.465,24.165,329.823,28.164,330.439,32.204L330.439,32.204z"/>
	</g>
</g>
<g>
	<g>
		<path d="M331.756,30.919c59.668,10.774,120.665,5.037,180.787,2.446c13.759-0.593,27.524-0.856,41.283-1.418
			c4.248-0.173,9.229-0.51,13.249,1.213c4.224,1.811,6.39,5.124,8.335,8.902c3.864,7.505,4.506,17.114,4.786,25.503
			c0.36,10.774-0.57,21.591-1.969,32.265c-1.487,11.348-3.792,22.722-6.989,33.715c-2.709,9.314,11.773,13.233,14.471,3.961
			c5.359-18.426,8.336-37.855,9.334-56.996c0.969-18.568,0.343-42.03-13.988-55.879c-8.423-8.14-20.441-8.04-31.342-7.493
			c-14.132,0.708-28.295,0.826-42.434,1.46c-30.525,1.369-61.03,3.312-91.597,3.538c-26.725,0.197-53.623-0.931-79.965-5.687
			C326.255,14.741,322.243,29.201,331.756,30.919L331.756,30.919z"/>
	</g>
</g>
<g>
	<g>
		<path d="M338.891,231.729c-14.941-20.311-31.235-39.083-52.72-52.697c-8.187-5.188-15.654,7.823-7.5,12.99
			c19.177,12.153,33.938,29.165,47.28,47.303c2.42,3.29,6.463,4.902,10.268,2.672C339.469,240.09,341.316,235.026,338.891,231.729
			L338.891,231.729z"/>
	</g>
</g>
<g>
	<g>
		<path d="M287.291,180.317c2.681-46.989,10.417-93.654,10.526-140.79c0.023-9.688-14.98-9.771-15.003-0.108
			c-0.11,47.136-7.846,93.8-10.526,140.79C271.735,189.895,286.743,189.927,287.291,180.317L287.291,180.317z"/>
	</g>
</g>
<g>
	<g>
		<path d="M323.36,13.267c-13.96,8.678-29.823,13.072-44.737,19.737c-3.737,1.67-4.565,7.039-2.672,10.268
			c2.236,3.813,6.538,4.338,10.268,2.672c14.928-6.671,30.748-11.041,44.737-19.737C339.147,21.114,331.597,8.147,323.36,13.267
			L323.36,13.267z"/>
	</g>
</g>
<g>
	<g>
		<path d="M325.151,255.929c23.981-7.832,48.727-9.125,73.711-10.641c26.5-1.607,53.046-2.362,79.59-2.76
			c53.056-0.794,106.122,0.019,159.179-0.816c9.675-0.152,9.775-15.155,0.107-15.003c-53.719,0.845-107.448,0.042-161.168,0.846
			c-26.547,0.397-53.088,1.244-79.589,2.851c-25.594,1.552-51.156,3.015-75.711,11.034
			C312.111,244.43,315.946,258.935,325.151,255.929L325.151,255.929z"/>
	</g>
</g>
<g>
	<g>
		<path d="M298.835,226.981c3.987-1.285,5.929,0.095,8.304,4.334c2.408,4.298,2.62,10.148,1.133,15.176
			c-1.578,5.337-6.559,8.475-11.251,10.087c-2.812,0.967-3.205,1.049-6.248,0.838c1.49,0.104-1.311-0.387-1.811-0.556
			c1.574,0.534-0.991-0.622-1.44-0.917c1.5,0.989-0.452-0.468-0.75-0.762c-1.478-1.458,0.103,0.434-1.063-1.312
			c-0.576-0.864-1.045-1.795-1.49-2.731c0.792,1.667-0.406-1.261-0.549-1.739c-0.25-0.83-0.432-1.679-0.604-2.528
			c-0.432-2.116-0.078,0.257-0.237-1.897c-0.08-1.082-0.069-2.168-0.036-3.252c0.018-0.429,0.044-0.856,0.08-1.284
			c0.153-2.106-0.279,1.47,0.054-0.588c0.131-0.812,0.327-1.613,0.534-2.409c0.12-0.461,1.219-3.291,0.457-1.561
			c0.375-0.852,0.851-1.653,1.356-2.433c0.477-0.673,0.412-0.59-0.193,0.25c0.331-0.402,0.708-0.761,1.084-1.118
			c0.625-0.533,0.513-0.45-0.335,0.25c0.412-0.294,0.864-0.525,1.313-0.754c-2.433,1.237,2.217-0.157-0.349,0.107
			c1.361-0.14,2.726,0.178,3.717,0.629c8.729,3.975,16.311-8.979,7.5-12.99c-13.233-6.025-25.541,0.271-29.175,14.25
			c-3.143,12.091,0.245,26.994,10.701,34.515c13.575,9.766,34.624,0.079,41.366-13.547c7.529-15.215,1.756-41.536-17.96-43.504
			c-2.683-0.268-5.433,0.134-7.991,0.958C285.781,215.449,289.618,229.952,298.835,226.981L298.835,226.981z"/>
	</g>
</g>
<g>
	<g>
		<path d="M550.217,228.282c-8.835,2.384-17.208,8.19-17.333,18.193c-0.105,8.345,5.812,15.188,12.06,19.924
			c5.399,4.094,13.729,6.888,20.338,4.279c10.073-3.976,12.327-14.729,11.483-24.571c-0.35-4.069-3.081-7.527-7.448-7.556
			c-3.798-0.025-7.905,3.37-7.556,7.447c0.166,1.93,0.236,3.851,0.152,5.786c-0.017,0.389-0.384,3.042-0.063,1.056
			c-0.138,0.856-0.363,1.695-0.621,2.522c-0.41,1.315,0.784-1.496-0.143,0.315c-0.131,0.244-0.271,0.483-0.42,0.717
			c-0.783,1.279,1.166-1.378,0.219-0.285c-0.422,0.486-1.844,1.51,0.18,0.011c-0.588,0.436-2.522,1.196,0.013,0.195
			c-0.432,0.17-0.886,0.278-1.338,0.376c-1.246,0.272,2.175-0.142,0.227-0.07c-0.491,0.018-0.982-0.02-1.472-0.062
			c2.544,0.223,0.305,0.009-0.343-0.153c-0.52-0.13-1.027-0.303-1.532-0.479c-0.722-0.276-0.514-0.182,0.623,0.284
			c-0.387-0.163-0.764-0.348-1.14-0.533c-1.16-0.569-2.254-1.267-3.308-2.012c-1.065-0.753,1.388,1.142-0.192-0.186
			c-0.445-0.374-0.868-0.774-1.287-1.177c-0.416-0.4-0.807-0.824-1.193-1.252c-0.19-0.213-0.376-0.43-0.558-0.65
			c-1.013-1.205,1.079,1.459,0.169,0.193c-0.71-0.988-1.301-2.057-1.802-3.165c1.388,3.072-0.354-3.623-0.014-0.128
			c-0.047-0.477-0.033-0.956-0.009-1.433c0.063-1.246-0.44,2.013,0.038,0.173c0.475-1.825-0.625,1.199-0.06,0.081
			c0.119-0.223,0.248-0.44,0.385-0.652c0.771-1.247-1.188,1.41-0.19,0.269c0.379-0.433,0.816-0.812,1.256-1.183
			c-1.792,1.513,0.381-0.122,0.911-0.416c0.367-0.204,2.618-1.13,0.731-0.391c1.016-0.397,2.067-0.696,3.119-0.98
			C563.438,240.251,559.557,225.762,550.217,228.282L550.217,228.282z"/>
	</g>
</g>
<g>
	<g>
		<path d="M259.659,197.422c0.209-1.879,0.574-2.901,1.377-4.284c-0.606,1.043,0.553-0.583,0.688-0.715
			c-1.222,1.196,1.932-0.721,0.051-0.034c0.286-0.105,2.317-0.412,0.623-0.245c0.323-0.032,2.914,0.176,1.564-0.044
			c2.095,0.341,2.532,0.617,3.937,1.35c5.604,2.926,9.525,8.857,8.18,14.641c-2.237,9.619-13.771,10.886-21.035,6.404
			c-13.121-8.098,1.25-21.21,7.709-27.641c6.851-6.822-3.799-17.389-10.665-10.552c-6.889,6.86-14.463,13.927-16.812,23.735
			c-2.438,10.183,2.979,20.997,11.312,26.784c15.677,10.889,37.467,4.168,43.707-13.89c4.523-13.091-4.602-27.587-16.309-33.177
			c-6.292-3.004-12.773-3.433-19.173-0.585c-6.941,3.089-9.396,11.3-10.157,18.145c-0.453,4.069,3.68,7.531,7.447,7.556
			C256.514,204.899,259.208,201.481,259.659,197.422L259.659,197.422z"/>
	</g>
</g>
<g>
	<g>
		<path d="M-1.165,176.981c89.601-11.891,180.353-3.747,270.374-5.006c9.677-0.136,9.775-15.139,0.108-15.004
			c-91.462,1.279-183.327-6.561-274.364,5.521c-4.064,0.54-6.258,5.625-5.304,9.186C-9.188,176.014-5.216,177.519-1.165,176.981
			L-1.165,176.981z"/>
	</g>
</g>
<g>
	<g>
		<path d="M596.841,161.449c68.304-5.191,136.853-3.986,205.264-6.579c9.651-0.366,9.772-15.37,0.107-15.003
			c-68.41,2.593-136.959,1.388-205.264,6.579C587.358,147.174,587.203,162.182,596.841,161.449L596.841,161.449z"/>
	</g>
</g>
<g>
	<g>
		<path d="M303.419,106.186c5.084,0.002,10.202-0.113,15.179,1.049c9.416,2.2,13.382-12.269,3.961-14.47
			c-6.266-1.464-12.631-1.581-19.032-1.583C293.841,91.18,293.756,106.183,303.419,106.186L303.419,106.186z"/>
	</g>
</g>
<g>
	<g>
		<path d="M288.077,102.577c1.216,14.009,1.315,28.054,1.315,42.105c0.001,9.687,15.004,9.772,15.004,0.108
			c-0.001-14.052-0.1-28.097-1.315-42.105C302.25,93.118,287.242,92.952,288.077,102.577L288.077,102.577z"/>
	</g>
</g>
<g>
	<g>
		<path d="M298.862,154.604c6.969,1.305,14.06,1.528,21.052,2.632c4.039,0.637,8.045-0.993,9.216-5.255
			c0.992-3.61-1.215-8.578-5.255-9.215c-6.986-1.103-14.106-1.332-21.052-2.632C293.364,138.362,289.357,152.824,298.862,154.604
			L298.862,154.604z"/>
	</g>
</g>
<g>
	<g>
		<path d="M315.709,103.893c0.047,16.239,1.265,32.446,1.315,48.684c0.03,9.685,15.034,9.773,15.004,0.108
			c-0.051-16.238-1.269-32.445-1.316-48.684C330.684,94.316,315.681,94.229,315.709,103.893L315.709,103.893z"/>
	</g>
</g>
<g>
	<g>
		<path d="M292.893,178.554c9.687,0,9.772-15.003,0.108-15.003C283.315,163.551,283.229,178.554,292.893,178.554L292.893,178.554z"
			/>
	</g>
</g>
<g>
	<g>
		<path d="M302.104,183.817c9.687,0,9.772-15.004,0.108-15.004C292.525,168.813,292.44,183.817,302.104,183.817L302.104,183.817z"/>
	</g>
</g>
<g>
	<g>
		<path d="M315.262,186.449c9.687,0,9.772-15.004,0.108-15.004C305.684,171.445,305.598,186.449,315.262,186.449L315.262,186.449z"
			/>
	</g>
</g>
<g>
	<g>
		<path d="M323.156,196.976c9.687,0,9.772-15.004,0.108-15.004C313.578,181.972,313.493,196.976,323.156,196.976L323.156,196.976z"
			/>
	</g>
</g>
<g>
	<g>
		<path d="M379.735,177.238c14.474,0,28.947,0,43.422,0c9.686,0,9.771-15.003,0.107-15.003c-14.474,0-28.947,0-43.421,0
			C370.157,162.235,370.072,177.238,379.735,177.238L379.735,177.238z"/>
	</g>
</g>
<g>
	<g>
		<path d="M397.287,172.314c-0.001,9.669-0.039,19.346-1.315,28.947c-0.54,4.061,3.746,7.531,7.448,7.556
			c4.477,0.029,7.018-3.398,7.556-7.448c1.276-9.601,1.313-19.278,1.315-28.947C412.293,162.736,397.289,162.65,397.287,172.314
			L397.287,172.314z"/>
	</g>
</g>
<g>
	<g>
		<path d="M435.712,169.072c-1.312,7.313-3.831,14.176-6.579,21.053c-1.521,3.806,1.647,8.225,5.255,9.215
			c4.278,1.176,7.702-1.466,9.216-5.254c2.748-6.877,5.267-13.74,6.579-21.053c0.722-4.024-1.055-8.062-5.255-9.215
			C441.255,162.808,436.435,165.048,435.712,169.072L435.712,169.072z"/>
	</g>
</g>
<g>
	<g>
		<path d="M448.198,169.806c11.009,12.527,17.203,28.654,30.263,39.474c7.382,6.116,18.019-4.479,10.551-10.665
			c-12.916-10.7-19.302-27-30.263-39.474C452.363,151.875,441.836,162.566,448.198,169.806L448.198,169.806z"/>
	</g>
</g>
<g>
	<g>
		<path d="M441.578,194.344c5.701,0,11.402,0,17.104,0c9.686,0,9.771-15.004,0.107-15.004c-5.701,0-11.402,0-17.104,0
			C432,179.34,431.914,194.344,441.578,194.344L441.578,194.344z"/>
	</g>
</g>
<g>
	<g>
		<path d="M516.686,154.34c-15.289-1.987-25.375,9.041-22.767,23.943c2.579,14.738,16.496,24.811,30.554,26.587
			c4.062,0.513,7.53-3.726,7.556-7.448c0.029-4.457-3.396-7.044-7.448-7.556c-7.752-0.979-13.906-7.503-15.795-13.869
			c-0.662-2.231-0.539-1.971-0.432-4.206c-0.067,1.399,0.19-0.694,0.239-0.877c0.138-0.51,0.397-0.811-0.013-0.281
			c0.97-1.255,1.017-1.045,2.147-1.369c1.403-0.401,3.823-0.185,5.851,0.079c4.062,0.528,7.531-3.737,7.556-7.448
			C524.163,157.428,520.736,154.867,516.686,154.34L516.686,154.34z"/>
	</g>
</g>
<g>
	<g>
		<path d="M540.941,174.35c3.203-0.955,6.458-1.76,9.776-2.192c-0.665,0.086-1.33,0.171-1.995,0.257
			c1.661-0.207,3.331-0.317,5.005-0.243c0.352,0.016,0.702,0.045,1.052,0.08c1.344,0.134-2.352-0.377-0.795-0.108
			c0.578,0.1,1.147,0.245,1.705,0.425c0.684,0.222,1.947,0.832-0.905-0.407c0.228,0.099,0.448,0.212,0.666,0.331
			c0.206,0.113,0.405,0.24,0.6,0.371c0.937,0.634-1.89-1.53-0.907-0.682c0.929,0.802,1.075,1.328-0.27-0.517
			c0.262,0.359,0.473,0.754,0.648,1.163c-0.258-0.619-0.517-1.238-0.774-1.857c0.239,0.581,0.393,1.184,0.479,1.806
			c-0.086-0.665-0.172-1.33-0.258-1.995c0.096,0.774,0.086,1.549,0.002,2.324c-0.094,0.862,0.383-2.524,0.167-1.232
			c-0.04,0.236-0.089,0.471-0.141,0.704c-0.099,0.441-0.223,0.877-0.359,1.309c-0.141,0.446-0.305,0.885-0.479,1.32
			c-0.326,0.811,0.99-2.301,0.432-1.05c-0.108,0.242-0.223,0.48-0.34,0.717c-0.436,0.888-0.937,1.742-1.478,2.57
			c-0.272,0.417-0.561,0.825-0.856,1.226c-0.525,0.711,1.529-1.975,0.667-0.88c-0.167,0.212-0.339,0.42-0.512,0.626
			c-0.621,0.739-1.29,1.439-1.996,2.097c-0.338,0.315-0.688,0.616-1.048,0.907c-0.903,0.733,1.882-1.437,0.956-0.746
			c-0.191,0.143-0.387,0.279-0.584,0.413c-0.673,0.458-1.389,0.856-2.139,1.174c0.618-0.258,1.237-0.517,1.856-0.775
			c-0.639,0.262-1.297,0.458-1.982,0.548c0.666-0.085,1.331-0.171,1.996-0.257c-1.123,0.129-2.404-0.248,0.419,0.235
			c-0.227-0.039-0.448-0.102-0.666-0.177c-0.925-0.319,2.126,0.927,1.37,0.573c-0.133-0.062-0.26-0.136-0.385-0.211
			c-1.158-0.701,1.785,1.485,0.871,0.665c-0.195-0.175-0.37-0.371-0.536-0.573c2.121,2.587,0.591,0.751,0.171-0.233
			c0.259,0.619,0.517,1.238,0.775,1.857c-0.503-1.222-0.776-2.517-0.949-3.823c0.085,0.665,0.171,1.33,0.257,1.995
			c-0.345-2.768-0.248-5.573-0.009-8.345c0.351-4.077-3.604-7.53-7.448-7.556c-4.333-0.029-7.205,3.378-7.556,7.447
			c-0.664,7.716-0.146,16.645,6.773,21.459c2.746,1.91,6.599,2.076,9.73,1.249c3.09-0.816,5.618-2.592,8.031-4.604
			c4.239-3.534,7.437-8.666,9.127-13.888c0.994-3.071,1.107-6.216,0.54-9.371c-0.659-3.67-3.146-6.535-6.098-8.603
			c-3.079-2.157-7.387-2.75-11.04-2.729c-5.209,0.03-10.481,1.236-15.451,2.717c-3.917,1.167-6.384,5.154-5.303,9.186
			C532.791,172.912,537.021,175.518,540.941,174.35L540.941,174.35z"/>
	</g>
</g>
<g>
	<g>
		<path d="M189.666,99.375c-0.173-0.968-0.164-1.336-0.154-2.527c0.002-0.251,0.486-2.056,0.145-1.288
			c0.191-0.396,0.407-0.777,0.647-1.144c-0.535,0.658-0.522,0.67,0.037,0.036c0.637-0.575,0.606-0.584-0.092-0.029
			c0.512-0.383,1.087-0.673,1.654-0.962c-1.576,0.804,0.852-0.166,1.279-0.265c0.877-0.154,0.897-0.167,0.059-0.038
			c0.711-0.073,1.429-0.063,2.143-0.055c1.112,0.012,4.244,0.686,5.097,1.05c7.711,3.292,11.41,11.691,5.311,18.297
			c-1.025,1.11-2.792,2.093-3.684,2.412c-2.682,0.959-3.375,0.894-5.718,0.919c-4.431,0.048-8.517-1.23-12.465-3.501
			c-1.977-1.137-2.443-1.527-4.286-3.508c-0.576-0.68-0.615-0.714-0.118-0.1c-0.404-0.545-0.739-1.135-1.07-1.725
			c-0.389-0.808-0.399-0.791-0.03,0.052c-0.236-0.606-0.377-1.242-0.516-1.875c0.373,1.701,0.072-0.772,0.104-1.255
			c-0.062,0.924,0.368-0.877,0.449-1.042c1.116-2.271,2.902-3.937,5.132-5.566c3.298-2.41,4.897-6.472,2.672-10.268
			c-1.911-3.259-6.962-5.086-10.268-2.672c-6.944,5.073-12.957,11.668-13.039,20.756c-0.069,7.697,4.995,14.155,10.911,18.482
			c12.066,8.824,30.477,10.351,42.038-0.014c13.537-12.135,8.246-33.628-6.521-41.703c-13.843-7.57-32.811-3.402-34.825,14.09
			c-0.279,2.419,0.196,4.954,0.62,7.324C176.88,112.783,191.355,108.823,189.666,99.375L189.666,99.375z"/>
	</g>
</g>
<g>
	<g>
		<path d="M178.867,127.577c2.464,25.923,0.08,51.832-2.631,77.632c-1.013,9.636,14.003,9.625,15.003,0.108
			c2.711-25.801,5.096-51.709,2.631-77.632c-0.386-4.066-3.053-7.527-7.447-7.556C182.652,120.104,178.479,123.502,178.867,127.577
			L178.867,127.577z"/>
	</g>
</g>
<g>
	<g>
		<path d="M177.088,203.935c-11.335,12.344-25.615,20.896-39.255,30.385c-7.877,5.48-0.364,18.477,7.596,12.939
			c14.665-10.203,30.138-19.502,42.324-32.772C194.274,207.385,183.652,196.787,177.088,203.935L177.088,203.935z"/>
	</g>
</g>
<g>
	<g>
		<path d="M162.881,218.337c10.782,7.513,16.443,20.358,26.106,29.101c7.145,6.464,17.748-4.154,10.552-10.665
			c-10.754-9.73-17.054-22.992-29.158-31.426C162.435,199.809,155,212.845,162.881,218.337L162.881,218.337z"/>
	</g>
</g>
<g>
	<g>
		<path d="M189.054,162.235c-1.877,0.067-2.863,0.374-4.529,1.187c-1.28,0.625-2.404,1.976-3.134,3.152
			c-0.766,1.234-1.191,2.984-1.208,4.424c-0.05,4.086,3.379,7.529,7.447,7.556c4.104,0.027,7.506-3.362,7.556-7.447
			c0.001-0.052,0.007-0.104,0.013-0.155c-0.089,0.642-0.178,1.284-0.267,1.926c0.023-0.15,0.062-0.292,0.119-0.432
			c-0.247,0.59-0.493,1.18-0.74,1.77c0.046-0.1,0.099-0.189,0.163-0.278c-0.387,0.508-0.775,1.017-1.163,1.525
			c0.058-0.069,0.117-0.129,0.185-0.188c-0.512,0.398-1.023,0.796-1.535,1.194c0.081-0.059,0.16-0.106,0.25-0.15
			c-0.619,0.258-1.237,0.517-1.856,0.775c0.108-0.042,0.211-0.07,0.324-0.092c-0.665,0.085-1.33,0.171-1.995,0.257
			c0.087-0.013,0.174-0.02,0.262-0.02c2.045-0.074,3.927-0.748,5.387-2.226c1.365-1.383,2.156-3.277,2.169-5.222
			C196.528,165.838,193.14,162.087,189.054,162.235L189.054,162.235z"/>
	</g>
</g>
<g>
	<g>
		<path d="M188.851,153.838c11.56-6.716,28.31-10.723,41.136-5.238c3.755,1.606,8.02,1.109,10.245-2.745
			c1.86-3.223,1.021-8.635-2.745-10.245c-18.049-7.719-39.521-4.42-56.232,5.289C172.9,145.752,180.474,158.704,188.851,153.838
			L188.851,153.838z"/>
	</g>
</g>
<g>
	<g>
		<path d="M182.408,189.543c17.528,15.051,40.614,7.684,57.758-4.126c7.907-5.447,0.391-18.441-7.596-12.939
			c-10.659,7.343-27.833,16.513-39.61,6.4C185.67,172.619,175.048,183.222,182.408,189.543L182.408,189.543z"/>
	</g>
</g>
<g>
	<g>
		<path d="M440.98,75.69c-0.623-1.893-0.896-2.732-0.87-4.421c-0.003,0.147-0.279,0.213,0.096-0.191
			c0.368-0.397,0.532-0.295,1.134-0.472c1.616-0.474,0.894-0.302,3.137-0.288c2.198,0.015,5.617,0.843,7.242,1.552
			c1.404,0.613,2.719,1.405,3.975,2.279c-1.171-0.814,0.498,0.565,0.594,0.66c0.85,0.839-0.261-0.667,0.651,1.02
			c-0.657-1.216-0.248,1.285-0.079,0.323c-0.033,0.188-0.846,2.146-0.248,0.919c-0.041,0.084-1.346,1.92-0.51,0.899
			c-1.489,1.818-4.163,3.292-5.923,3.891c-2.85,0.97-4.459,1.065-6.415,0.545c-0.592-0.157-0.454-0.387-0.032,0.215
			c-1.062-1.518,0.285,1.322-0.213-0.61c0.371,1.437,0.098-1.156,0.085-1.083c1.625-9.464-12.835-13.485-14.471-3.961
			c-1.026,5.98-0.479,12.442,4.525,16.599c4.993,4.147,11.142,4.504,17.304,3.551c12.116-1.874,22.971-12.629,20.282-25.374
			c-2.347-11.127-16.787-16.034-26.66-16.429c-14.149-0.565-22.466,10.97-18.092,24.258C429.503,88.721,444.009,84.889,440.98,75.69
			L440.98,75.69z"/>
	</g>
</g>
<g>
	<g>
		<path d="M737.534,74.891c6.471-2.745,14.748,1.11,18.092,6.855c3.431,5.896-4.436,12.455-9.668,13.869
			c-5.247,1.418-12.036-1.699-15.188-5.792c-1.795-2.331-2.687-4.638-2.738-6.955c-0.066-2.979,2.044-5.641,4.458-7.855
			c7.131-6.541-3.546-17.082-10.664-10.552c-9.76,8.953-11.652,23.011-3.431,33.69c7.851,10.198,21.849,15.817,34.303,11.017
			c14.119-5.441,23.012-20.816,15.867-35.018c-6.985-13.884-25.294-17.854-38.627-12.2c-3.771,1.6-4.534,7.09-2.672,10.268
			C729.532,76.083,733.773,76.485,737.534,74.891L737.534,74.891z"/>
	</g>
</g>
<g>
	<g>
		<path d="M730.183,109.156c2.495,20.562,2.567,41.188,1.315,61.842c-0.587,9.683,14.422,9.713,15.004,0.108
			c1.252-20.654,1.179-41.279-1.315-61.842c-0.492-4.055-2.975-7.526-7.448-7.556C734.05,101.684,729.689,105.09,730.183,109.156
			L730.183,109.156z"/>
	</g>
</g>
<g>
	<g>
		<path d="M727.241,175.197c-4.909,7.401-9.563,14.967-14.473,22.368c-5.356,8.076,7.666,15.528,12.99,7.5
			c4.909-7.401,9.563-14.967,14.473-22.368C745.588,174.621,732.565,167.169,727.241,175.197L727.241,175.197z"/>
	</g>
</g>
<g>
	<g>
		<path d="M728.583,178.798c9.39,14.507,21.568,25.692,35.614,35.592c7.915,5.579,15.347-7.46,7.5-12.99
			c-11.848-8.351-22.262-17.97-30.175-30.197C736.289,163.117,723.312,170.654,728.583,178.798L728.583,178.798z"/>
	</g>
</g>
<g>
	<g>
		<path d="M661.284,90.592c3.03-5.667,12.127-8.599,18.767-7.604c2.312,0.347,3.511,0.801,4.907,1.578
			c1.004,0.558,1.574,1.212,2.292,2.562c0.676,1.272-0.101,6.285-1.675,8.603c0.68-1.001-1.093,0.952-1.324,1.158
			c0.906-0.808-1.278,0.758-1.557,0.917c-1.374,0.785-2.394,1.078-4.784,1.621c-3.013,0.685-7.172,0.499-10.57-0.366
			c-2.191-0.558-2.305-0.614-4.432-1.891c-0.414-0.248-1.938-1.878-2.026-2.021c-0.398-0.791-0.414-0.762-0.047,0.086
			c-0.148-0.416-0.271-0.838-0.365-1.269c0.39,1.531,0.019-0.972,0.049-1.482c-0.062,1.041,0.527-1.627,0.646-1.976
			c0.17-0.494,1.003-1.832,1.436-2.546c5.022-8.286-7.979-15.769-12.99-7.5c-3.944,6.508-5.557,14.008-2.251,21.12
			c2.752,5.921,8.596,9.425,14.528,11.501c12.728,4.454,28.446,1.009,36.678-9.852c4.188-5.526,5.116-14.776,2.71-21.152
			c-2.637-6.987-8.549-11.389-15.657-13.234c-13.138-3.41-30.668,1.798-37.324,14.249C643.739,91.611,656.715,99.138,661.284,90.592
			L661.284,90.592z"/>
	</g>
</g>
<g>
	<g>
		<path d="M664.393,113.104c-2.643,21.822-2.643,43.968,0,65.79c0.491,4.055,2.975,7.526,7.448,7.556
			c3.689,0.024,8.048-3.382,7.556-7.448c-2.644-21.822-2.644-43.968,0-65.79c0.492-4.065-3.71-7.531-7.448-7.556
			C667.508,105.626,664.884,109.049,664.393,113.104L664.393,113.104z"/>
	</g>
</g>
<g>
	<g>
		<path d="M665.399,176.513c-5.974,8.225-13.255,14.963-22.303,19.648c-8.588,4.448-0.975,17.378,7.596,12.939
			c11.411-5.91,20.211-14.78,27.697-25.088c2.405-3.312,0.517-8.362-2.745-10.245C671.829,171.565,667.799,173.208,665.399,176.513
			L665.399,176.513z"/>
	</g>
</g>
<g>
	<g>
		<path d="M654.986,194.653c15.442,10.618,24.342,28.534,36.633,42.258c6.454,7.208,16.987-3.478,10.551-10.665
			c-13.374-14.935-22.834-32.998-39.684-44.583C654.504,176.173,647.064,189.206,654.986,194.653L654.986,194.653z"/>
	</g>
</g>
<g>
	<g>
		<path d="M666.522,148.833c-8.774-11.361-19.964-19.19-32.983-25.065c-3.723-1.68-8.05-1.057-10.245,2.745
			c-1.891,3.275-0.986,8.562,2.745,10.245c10.372,4.681,20.473,10.514,27.544,19.671c2.497,3.233,6.4,4.938,10.268,2.672
			C667.039,157.231,669.026,152.076,666.522,148.833L666.522,148.833z"/>
	</g>
</g>
<g>
	<g>
		<path d="M598.861,111.151c1.916,9.135,8.716,16.225,18.209,16.91c10.778,0.777,16.582-9.611,17.59-18.796
			c0.446-4.069-3.676-7.531-7.448-7.556c-4.405-0.029-7.11,3.387-7.556,7.447c-0.079,0.724-0.312,1.427-0.513,2.123
			c0.11-0.381-1.316,2.012-0.535,1.078c-0.669,0.619-0.706,0.701-0.11,0.246c-0.386,0.263-0.789,0.492-1.211,0.689
			c0.797-0.354,0.77-0.4-0.08-0.14c0.878-0.099,0.869-0.13-0.028-0.095c1.715-0.006-1.671-0.659-0.345-0.05
			c-1.362-0.626-0.826-0.417-1.521-1.083c-1.016-0.975-1.519-2.535-1.964-4.656C611.362,97.792,596.884,101.724,598.861,111.151
			L598.861,111.151z"/>
	</g>
</g>
<g>
	<g>
		<path d="M742.75,144.82c-10.606-4.741-22.285-9.952-27.544-20.987c-4.158-8.724-17.075-1.083-12.939,7.596
			c6.376,13.378,20.052,20.601,32.983,26.381c3.729,1.667,8.045,1.066,10.245-2.745C747.381,151.8,746.487,146.491,742.75,144.82
			L742.75,144.82z"/>
	</g>
</g>
<g>
	<g>
		<path d="M685.04,122.438c6.343,6.967,17.208,10.09,26.369,8.726c11.426-1.701,13.694-13.22,7.745-21.804
			c-5.468-7.889-18.463-0.375-12.939,7.596c0.234,0.337,1.754,3.032,1.394,2.089c0.227,0.926,0.267,0.899,0.118-0.081
			c-0.083-0.919,0.665-1.716,1.176-2.359c-0.476,0.599,0.966-0.433-0.058-0.162c-0.852,0.159-0.858,0.174-0.022,0.044
			c-0.743,0.074-1.493,0.051-2.237,0.033c-3.813-0.09-8.413-1.913-10.994-4.748C689.077,104.618,678.539,115.297,685.04,122.438
			L685.04,122.438z"/>
	</g>
</g>
</svg>
