<?xml version="1.0" encoding="utf-8"?>
<!-- Generator: Adobe Illustrator 15.1.0, SVG Export Plug-In . SVG Version: 6.00 Build 0)  -->
<!DOCTYPE svg PUBLIC "-//W3C//DTD SVG 1.1//EN" "http://www.w3.org/Graphics/SVG/1.1/DTD/svg11.dtd">
<svg version="1.1" id="Layer_1" xmlns="http://www.w3.org/2000/svg" xmlns:xlink="http://www.w3.org/1999/xlink" x="0px" y="0px"
	 width="800px" height="705.063px" viewBox="0 0 800 705.063" enable-background="new 0 0 800 705.063" xml:space="preserve">
<g>
	<g>
		<path d="M253.708,26.38c5.312,11.049,6.626,23.341,7.829,35.388c0.406,4.064,3.039,7.527,7.448,7.556
			c3.755,0.025,7.962-3.374,7.556-7.447c-1.489-14.913-3.326-29.434-9.893-43.092C262.458,10.074,249.54,17.711,253.708,26.38
			L253.708,26.38z"/>
	</g>
</g>
<g>
	<g>
		<path d="M257.591,22.489c13.623-0.039,30.438-2.104,42.41,5.775c14.082,9.268-14.941,28.142-22.777,31.377
			c-3.778,1.56-6.465,4.85-5.304,9.186c0.955,3.562,5.397,6.868,9.186,5.304c18.348-7.575,50.729-31.624,32.031-53.91
			C300.417,5.059,275.379,7.435,257.7,7.486C248.015,7.513,247.927,22.517,257.591,22.489L257.591,22.489z"/>
	</g>
</g>
<g>
	<g>
		<path d="M353.297,25.474c-10.399-1.521-23.281-1.578-30.659,7.323c-5.397,6.51-6.473,15.604-3.328,23.409
			c3.328,8.258,9.479,14.292,18.509,15.502c10.235,1.371,18.317-8.271,22.524-16.261c4.498-8.543-8.475-16.076-12.99-7.5
			c-0.481,0.915-0.982,1.813-1.51,2.702c-0.235,0.396-2.105,3.074-1.162,1.85c-0.491,0.637-1.029,1.234-1.577,1.822
			c-0.357,0.383-2.63,2.304-0.852,0.936c-0.503,0.388-1.045,0.721-1.593,1.041c-1.87,1.095,1.444-0.39-0.516,0.258
			c-0.507,0.167-1.032,0.27-1.558,0.359c2.543-0.435,0.441-0.13-0.286-0.173c-1.271-0.075,1.978,0.417,0.095-0.046
			c-0.24-0.064-0.477-0.135-0.711-0.215c-1.367-0.439,1.694,0.784,0.39,0.167c-0.458-0.216-0.89-0.482-1.317-0.751
			c-1.674-1.056,1.188,1.066-0.313-0.263c-0.397-0.352-0.763-0.738-1.123-1.126c-1.387-1.496,0.871,1.308-0.315-0.38
			c-0.397-0.565-0.745-1.164-1.08-1.767c-0.297-0.536-1.265-2.861-0.283-0.425c-0.472-1.172-0.799-2.399-1.043-3.637
			c-0.406-2.057,0.101,1.262-0.011-0.08c-0.058-0.69-0.05-1.384-0.025-2.075c0.075-2.03-0.248,1.16-0.033-0.117
			c0.114-0.674,0.301-1.332,0.509-1.981c0.39-1.22-0.839,1.683,0.06-0.119c0.263-0.527,1.682-2.483,0.204-0.574
			c0.354-0.457,0.76-0.87,1.17-1.274c1.471-1.45-1.16,0.685,0.63-0.49c0.55-0.361,1.139-0.658,1.728-0.948
			c0.759-0.341,0.624-0.286-0.405,0.167c0.519-0.2,1.055-0.355,1.588-0.512c0.767-0.224,1.553-0.376,2.337-0.521
			c0.857-0.133,0.832-0.134-0.074-0.005c0.688-0.078,1.379-0.11,2.07-0.144c2.235-0.109,5.261,0.07,6.99,0.323
			c4.046,0.592,8.036-0.96,9.216-5.254C359.534,31.113,357.345,26.066,353.297,25.474L353.297,25.474z"/>
	</g>
</g>
<g>
	<g>
		<path d="M342.549,30.123c0,12.236,0,24.473,0,36.709c0,9.687,15.004,9.772,15.004,0.108c0-12.236,0-24.473,0-36.709
			C357.553,20.545,342.549,20.459,342.549,30.123L342.549,30.123z"/>
	</g>
</g>
<g>
	<g>
		<path d="M365.591,15.663c4.763,16.237,3.58,33.189,3.54,49.903c-0.022,9.688,14.981,9.771,15.004,0.108
			c0.042-18.048,1.089-36.359-4.054-53.894C377.362,2.512,362.867,6.373,365.591,15.663L365.591,15.663z"/>
	</g>
</g>
<g>
	<g>
		<path d="M360.123,41.476c13.48,1.173,26.985,1.266,40.507,1.266c9.686,0.001,9.772-15.002,0.108-15.003
			c-13.522-0.001-27.027-0.093-40.507-1.266C350.571,25.632,350.566,40.645,360.123,41.476L360.123,41.476z"/>
	</g>
</g>
<g>
	<g>
		<path d="M431.016,35.075c-6.802-3.247-14.994-4.93-21.786-0.624c-5.162,3.272-8.354,9.005-9.373,14.944
			c-0.929,5.413-0.944,11.328,1.078,16.518c1.07,2.745,2.354,5.471,4.626,7.457c2.395,2.092,5.654,3.75,8.938,3.366
			c2.539-0.296,4.897-0.893,7.027-2.402c2.008-1.423,3.727-3.004,5.223-4.949c4.552-5.917,7.563-12.58,10.284-19.505
			c1.498-3.814-1.631-8.22-5.255-9.215c-1.936-0.532-4.046-0.25-5.778,0.765c-1.823,1.069-2.692,2.593-3.438,4.489
			c-0.257,0.654-0.518,1.306-0.783,1.957c-0.519,1.269,0.746-1.771,0.222-0.526c-0.127,0.301-0.257,0.602-0.387,0.901
			c-0.486,1.125-0.997,2.239-1.526,3.344c-0.896,1.873-1.871,3.708-2.946,5.484c-0.448,0.74-0.921,1.465-1.415,2.175
			c-0.224,0.322-0.456,0.639-0.691,0.953c1.675-2.235,1.088-1.419,0.708-0.938c-0.11,0.14-0.225,0.278-0.338,0.416
			c-0.807,0.978-1.698,1.893-2.7,2.672c0.512-0.398,1.023-0.796,1.535-1.194c-0.621,0.473-1.279,0.886-1.998,1.193
			c0.618-0.258,1.237-0.517,1.856-0.775c-0.479,0.196-0.973,0.338-1.486,0.408c0.665-0.085,1.33-0.171,1.995-0.257
			c-0.405,0.047-0.808,0.047-1.212-0.006c0.642,0.089,1.284,0.178,1.926,0.267c-0.305-0.046-0.601-0.121-0.892-0.224
			c-0.949-0.336,2.256,1.02,1.231,0.504c-0.152-0.077-0.299-0.166-0.443-0.257c-1.069-0.681,1.598,1.255,1.031,0.802
			c-0.142-0.112-0.274-0.234-0.405-0.358c-0.274-0.26-0.521-0.548-0.755-0.846c0.398,0.511,0.796,1.023,1.194,1.535
			c-0.623-0.813-1.107-1.716-1.506-2.658c0.258,0.619,0.517,1.237,0.774,1.856c-0.693-1.672-1.111-3.442-1.35-5.234
			c0.085,0.665,0.171,1.33,0.257,1.995c-0.298-2.326-0.288-4.684,0.03-7.007c-0.089,0.642-0.178,1.284-0.267,1.926
			c0.146-1.026,0.354-2.041,0.633-3.04c0.13-0.468,0.281-0.93,0.445-1.387c0.088-0.247,0.185-0.49,0.283-0.732
			c-1.171,2.87-0.677,1.586-0.373,0.942c0.411-0.875,0.911-1.706,1.488-2.481c-1.978,2.653-0.717,0.926-0.124,0.319
			c0.34-0.348,0.707-0.667,1.09-0.964c-0.512,0.398-1.023,0.796-1.535,1.194c0.687-0.521,1.425-0.952,2.218-1.289
			c-0.619,0.258-1.237,0.517-1.856,0.775c0.845-0.347,1.722-0.576,2.626-0.702c-0.665,0.086-1.33,0.171-1.995,0.257
			c1.174-0.149,2.351-0.12,3.521,0.036c-0.642-0.089-1.284-0.178-1.926-0.267c1.025,0.147,2.029,0.387,3.019,0.693
			c0.553,0.171,1.096,0.371,1.634,0.582c1.324,0.519-1.815-0.776-0.825-0.345c0.327,0.142,0.649,0.293,0.971,0.447
			c3.686,1.759,8.082,1.001,10.245-2.745C435.685,41.988,434.708,36.837,431.016,35.075L431.016,35.075z"/>
	</g>
</g>
<g>
	<g>
		<path d="M422.296,44.047c1.468,17.02,4.218,33.706,11.158,49.422c1.654,3.745,7.05,4.558,10.268,2.672
			c3.825-2.243,4.322-6.531,2.672-10.268c-5.77-13.064-7.877-27.599-9.094-41.718C436.475,34.586,421.466,34.421,422.296,44.047
			L422.296,44.047z"/>
	</g>
</g>
<g>
	<g>
		<path d="M43.414,141.979c1.159,8.034,2.464,16.044,3.797,24.051c1.59,9.542,16.064,5.57,14.489-3.882
			c-1.334-8.007-2.638-16.017-3.797-24.051c-0.585-4.056-5.591-6.267-9.186-5.304C44.415,133.946,42.83,137.934,43.414,141.979
			L43.414,141.979z"/>
	</g>
</g>
<g>
	<g>
		<path d="M50.604,118.426c9.687,0,9.772-15.003,0.108-15.003C41.026,103.423,40.94,118.426,50.604,118.426L50.604,118.426z"/>
	</g>
</g>
<g>
	<g>
		<path d="M76.068,131.123c-0.002,9.302-0.038,18.612-1.266,27.848c-0.541,4.061,3.745,7.531,7.447,7.556
			c4.477,0.03,7.017-3.398,7.556-7.447c1.229-9.236,1.265-18.546,1.266-27.848C91.073,121.545,76.07,121.459,76.068,131.123
			L76.068,131.123z"/>
	</g>
</g>
<g>
	<g>
		<path d="M87.368,140.179c11.665-5.047,19.945,9.093,15.023,18.894c-4.325,8.612,8.641,16.161,12.99,7.5
			c5.451-10.854,4.519-23.713-3.435-33.133c-8.323-9.858-20.824-11.111-32.175-6.2c-3.758,1.626-4.546,7.07-2.672,10.268
			C79.354,141.352,83.619,141.801,87.368,140.179L87.368,140.179z"/>
	</g>
</g>
<g>
	<g>
		<path d="M131.764,134.92c-2.334,17.242-1.31,34.565-1.266,51.899c0.024,9.685,15.027,9.773,15.003,0.108
			c-0.043-17.333-1.068-34.658,1.266-51.899c0.55-4.06-3.752-7.531-7.447-7.556C134.836,127.443,132.312,130.873,131.764,134.92
			L131.764,134.92z"/>
	</g>
</g>
<g>
	<g>
		<path d="M141.207,148.548c7.109-2.168,12.946-0.231,14.865,7.354c1.149-2.803,2.298-5.607,3.447-8.411
			c-5.471,3.278-10.857,6.628-17.13,8.086c-9.432,2.192-5.52,16.674,3.882,14.489c7.544-1.753,14.263-5.693,20.844-9.636
			c2.896-1.736,4.272-5.147,3.447-8.411c-3.871-15.298-18.427-22.477-33.236-17.962
			C128.093,136.874,131.944,151.372,141.207,148.548L141.207,148.548z"/>
	</g>
</g>
<g>
	<g>
		<path d="M172.271,133.655c0.002,8.71-0.034,17.445,1.523,26.046c0.873,4.819,7.12,6.901,11.042,4.529
			c9.062-5.482,14.564-14.016,21.788-21.448c6.733-6.927-3.906-17.504-10.665-10.551c-6.207,6.385-10.961,14.367-18.718,19.059
			c3.681,1.51,7.362,3.019,11.042,4.529c-1.307-7.218-1.007-14.75-1.009-22.056C187.271,124.077,172.268,123.991,172.271,133.655
			L172.271,133.655z"/>
	</g>
</g>
<g>
	<g>
		<path d="M219.363,120.46c2.479,18.637,4.673,37.406,3.541,56.233c-0.583,9.684,14.425,9.713,15.003,0.108
			c1.214-20.174-1.4-40.264-4.055-60.223c-0.541-4.063-5.624-6.258-9.186-5.304C220.331,112.436,218.824,116.409,219.363,120.46
			L219.363,120.46z"/>
	</g>
</g>
<g>
	<g>
		<path d="M203.108,147.273c16.173,2.589,32.42,2.797,48.761,2.798c9.687,0.001,9.772-15.002,0.108-15.003
			c-14.976-0.001-30.08,0.109-44.909-2.265C197.604,131.288,193.572,145.747,203.108,147.273L203.108,147.273z"/>
	</g>
</g>
<g>
	<g>
		<path d="M465.636,137.334c-11.668-1.238-22.499,6.85-25.561,17.988c-3.81,13.86,7.739,22.968,20.425,23.623
			c12.954,0.668,25.346-7.925,29.301-20.203c1.879-5.833,0.577-12.319-3.326-16.977c-4.453-5.312-11.705-6.833-18.307-6.962
			c-9.692-0.19-9.76,14.814-0.107,15.003c3.124,0.062,6.078,0.725,7.393,2.064c-1.071-1.092,0.525,1.302-0.144-0.358
			c0.096,0.238,0.449,2.34,0.3,0.765c0.151,1.599,0.113,1.287-0.521,3.254c-1.564,4.858-8.221,8.474-14.481,8.411
			c-3.096-0.031-4.827-0.807-6.124-2.226c0.805,0.881-0.127-0.996-0.033-0.189c-0.08-0.687-0.034-1.383,0.007-2.07
			c-0.09,1.495,0.232-0.697,0.28-0.872c1.159-4.216,5.335-6.826,10.791-6.247C475.162,153.359,475.151,138.343,465.636,137.334
			L465.636,137.334z"/>
	</g>
</g>
<g>
	<g>
		<path d="M493.79,144.121c-1.875,10.191-2.211,21.454,5.263,29.564c5.464,5.93,14.408,6.801,21.793,4.819
			c7.29-1.957,14.131-7.017,17.748-13.678c4.49-8.27,2.413-16.991-3.179-24.058c-2.538-3.208-8.001-2.583-10.608,0.057
			c-3.128,3.167-2.479,7.402,0.058,10.608c1.76,2.224,1.747,4.229,0.163,6.908c-1.368,2.314-5.193,4.816-8.063,5.674
			c-0.485,0.145-3.564,0.649-1.556,0.422c-1.161,0.131-2.332,0.093-3.492-0.017c2.364,0.224-2.763-1.215-0.62-0.225
			c-0.512-0.236-0.986-0.544-1.457-0.851c1.503,0.978,0.062-0.034-0.235-0.325c-0.552-0.628-0.541-0.581,0.034,0.142
			c-0.387-0.513-0.695-1.081-1.004-1.642c-1.03-1.876,0.443,1.425-0.288-0.734c-0.249-0.735-0.407-1.499-0.568-2.257
			c-0.526-2.479-0.131-7.111,0.483-10.447C510.001,138.621,495.54,134.611,493.79,144.121L493.79,144.121z"/>
	</g>
</g>
<g>
	<g>
		<path d="M550.485,129.591c0,13.924,0,27.849,0,41.772c0,9.687,15.004,9.772,15.004,0.108c0-13.924,0-27.849,0-41.772
			C565.489,120.013,550.485,119.928,550.485,129.591L550.485,129.591z"/>
	</g>
</g>
<g>
	<g>
		<path d="M536.415,154.869c12.675,0.001,25.345,0.065,37.975,1.266c9.649,0.917,9.647-14.096,0.107-15.003
			c-12.629-1.201-25.299-1.265-37.975-1.266C526.837,139.865,526.751,154.868,536.415,154.869L536.415,154.869z"/>
	</g>
</g>
<g>
	<g>
		<path d="M579.857,154.371c2.348,15.324,4.743,31.22,2.54,46.712c-0.575,4.048,0.948,8.033,5.255,9.215
			c3.564,0.979,8.64-1.204,9.216-5.254c2.606-18.336,0.264-36.379-2.522-54.555c-0.62-4.05-5.564-6.274-9.186-5.304
			C580.884,146.332,579.238,150.332,579.857,154.371L579.857,154.371z"/>
	</g>
</g>
<g>
	<g>
		<path d="M586.511,157.144c4.311-1.557,10.016-2.834,13.591-2.312c2.339,0.342,3.242,0.695,4.399,1.29
			c0.354,0.182,2.434,1.732,1.041,0.588c0.293,0.252,0.574,0.517,0.843,0.795c1.328,1.314-0.838-1.31,0.162,0.185
			c1.188,1.775-0.086-0.674,0.278,0.469c0.392,1.231,0.051-1.688,0.045,0.435c-0.003,1.166,0.434-1.434-0.22,0.509
			c0.417-0.965,0.436-1.081,0.053-0.346c-0.882,1.578,1.058-1.133-0.231,0.284c-0.526,0.579-1.988,1.548-2.608,1.801
			c-2.481,1.013-5.188,1.563-7.848,1.808c-4.066,0.374-7.526,3.062-7.556,7.447c-0.024,3.779,3.372,7.931,7.448,7.556
			c7.694-0.708,15.547-2.439,21.229-8.061c4.151-4.107,5.972-10.733,3.844-16.264c-5.865-15.242-25.354-15.368-38.353-10.674
			c-3.844,1.388-6.429,4.984-5.303,9.186C578.315,155.536,582.659,158.534,586.511,157.144L586.511,157.144z"/>
	</g>
</g>
<g>
	<g>
		<path d="M621.629,144.245c1.99,11.967,8.889,27.78,23.86,23.854c12.448-3.264,19.05-18.77,20.999-30.144
			c1.621-9.465-12.839-13.486-14.471-3.961c-1.188,6.941-4.318,15.813-9.634,19.202c-0.718,0.458-0.871,0.521-1.409,0.532
			c0.611-0.013,0.413,0.344-0.335-0.338c-2.861-2.608-3.834-8.889-4.522-13.028C634.53,130.821,620.057,134.792,621.629,144.245
			L621.629,144.245z"/>
	</g>
</g>
<g>
	<g>
		<path d="M675.802,113.136c0.001,17.307-0.01,34.629,1.266,51.899c0.709,9.595,15.716,9.748,15.004,0.108
			c-1.276-17.27-1.266-34.592-1.266-51.899C690.805,103.558,675.802,103.472,675.802,113.136L675.802,113.136z"/>
	</g>
</g>
<g>
	<g>
		<path d="M661.731,142.21c13.574,0.247,26.664,4.57,39.97-0.257c9.021-3.273,5.215-17.79-3.883-14.489
			c-11.767,4.269-23.913-0.038-35.979-0.257C652.146,127.031,652.078,142.036,661.731,142.21L661.731,142.21z"/>
	</g>
</g>
<text transform="matrix(1 0 0 1 9.7222 233.8633)"><tspan x="0" y="0" font-family="'ComicSansMS'" font-size="24">Physical Property (Tech) </tspan><tspan x="0" y="28.8" font-family="'ComicSansMS'" font-size="24">Data (Computers)* </tspan><tspan x="0" y="57.6" font-family="'ComicSansMS'" font-size="24">Vision (Camera) </tspan><tspan x="0" y="86.4" font-family="'ComicSansMS'" font-size="24">Motion (Camera + Computer)</tspan><tspan x="0" y="115.2" font-family="'ComicSansMS'" font-size="24">Position (GPS)</tspan><tspan x="0" y="144" font-family="'ComicSansMS'" font-size="24">Contact</tspan><tspan x="86.871" y="144" font-family="'ComicSansMS'" font-size="24" letter-spacing="13">	</tspan><tspan x="108" y="144" font-family="'ComicSansMS'" font-size="24">(Bump, Switch)</tspan><tspan x="0" y="172.799" font-family="'ComicSansMS'" font-size="24">Distance</tspan><tspan x="97.359" y="172.799" font-family="'ComicSansMS'" font-size="24" letter-spacing="3">	</tspan><tspan x="108" y="172.799" font-family="'ComicSansMS'" font-size="24">(Ultrasound, Radar, Infra Red)</tspan><tspan x="0" y="201.6" font-family="'ComicSansMS'" font-size="24">Light Level</tspan><tspan x="122.789" y="201.6" font-family="'ComicSansMS'" font-size="24" letter-spacing="14">	</tspan><tspan x="144" y="201.6" font-family="'ComicSansMS'" font-size="24">(Photo Cells, Cameras)</tspan><tspan x="0" y="230.401" font-family="'ComicSansMS'" font-size="24">Sound Level</tspan><tspan x="133.336" y="230.401" font-family="'ComicSansMS'" font-size="24" letter-spacing="3">	</tspan><tspan x="144" y="230.401" font-family="'ComicSansMS'" font-size="24">(microphones)</tspan><tspan x="0" y="259.2" font-family="'ComicSansMS'" font-size="24">Strain</tspan><tspan x="71.051" y="259.2" font-family="'ComicSansMS'" font-size="24" letter-spacing="-6">	</tspan><tspan x="72" y="259.2" font-family="'ComicSansMS'" font-size="24"> (Strain Gauges)</tspan><tspan x="0" y="288" font-family="'ComicSansMS'" font-size="24">Rotation</tspan><tspan x="94.512" y="288" font-family="'ComicSansMS'" font-size="24" letter-spacing="6">	</tspan><tspan x="108" y="288" font-family="'ComicSansMS'" font-size="24">(Encoders)</tspan><tspan x="0" y="316.799" font-family="'ComicSansMS'" font-size="24">Magnetism (Compasses)</tspan><tspan x="0" y="345.6" font-family="'ComicSansMS'" font-size="24">Smell</tspan><tspan x="61.582" y="345.6" font-family="'ComicSansMS'" font-size="24" letter-spacing="3">	</tspan><tspan x="72" y="345.6" font-family="'ComicSansMS'" font-size="24">Chemical</tspan><tspan x="0" y="374.401" font-family="'ComicSansMS'" font-size="24">Temperature (Thermal, Infra Red)</tspan><tspan x="0" y="403.2" font-family="'ComicSansMS'" font-size="24">Inclination (Inclinometers, Gyroscope)</tspan><tspan x="0" y="432" font-family="'ComicSansMS'" font-size="24">Pressure</tspan><tspan x="97.699" y="432" font-family="'ComicSansMS'" font-size="24" letter-spacing="3">	</tspan><tspan x="108" y="432" font-family="'ComicSansMS'" font-size="24">(Pressure Gauges)</tspan><tspan x="0" y="460.799" font-family="'ComicSansMS'" font-size="24">Altitude (Altimeters) </tspan></text>
<text transform="matrix(1 0 0 1 330.6079 121.519)"><tspan x="0" y="0" font-family="'ComicSansMS'" font-size="24">core: </tspan><tspan x="0" y="28.8" font-family="'ComicSansMS'" font-size="24">sight</tspan><tspan x="0" y="57.6" font-family="'ComicSansMS'" font-size="24">sound</tspan><tspan x="0" y="86.4" font-family="'ComicSansMS'" font-size="24">smell</tspan><tspan x="0" y="115.2" font-family="'ComicSansMS'" font-size="24">taste</tspan><tspan x="0" y="144" font-family="'ComicSansMS'" font-size="24">feel </tspan><tspan x="0" y="172.8" font-family="'ComicSansMS'" font-size="24"> </tspan></text>
<text transform="matrix(1 0 0 1 523.3721 255.9116)"><tspan x="0" y="0" font-family="'ComicSansMS'" font-size="24">common:</tspan><tspan x="0" y="28.8" font-family="'ComicSansMS'" font-size="24">screen</tspan><tspan x="0" y="57.6" font-family="'ComicSansMS'" font-size="24">projector </tspan><tspan x="0" y="86.4" font-family="'ComicSansMS'" font-size="24">speaker</tspan><tspan x="0" y="115.2" font-family="'ComicSansMS'" font-size="24">smell-maker?</tspan><tspan x="0" y="144" font-family="'ComicSansMS'" font-size="24">taste-maker?</tspan><tspan x="0" y="172.8" font-family="'ComicSansMS'" font-size="24">3d printer</tspan><tspan x="0" y="230.4" font-family="'ComicSansMS'" font-size="24">cool:</tspan><tspan x="0" y="259.2" font-family="'ComicSansMS'" font-size="24">circuits</tspan><tspan x="0" y="288" font-family="'ComicSansMS'" font-size="24">robots</tspan><tspan x="0" y="316.8" font-family="'ComicSansMS'" font-size="24">data* (+ internet)</tspan></text>
</svg>
