<?xml version="1.0" encoding="utf-8"?>
<!-- Generator: Adobe Illustrator 15.1.0, SVG Export Plug-In . SVG Version: 6.00 Build 0)  -->
<!DOCTYPE svg PUBLIC "-//W3C//DTD SVG 1.1//EN" "http://www.w3.org/Graphics/SVG/1.1/DTD/svg11.dtd">
<svg version="1.1" id="Layer_1" xmlns="http://www.w3.org/2000/svg" xmlns:xlink="http://www.w3.org/1999/xlink" x="0px" y="0px"
	 width="525.317px" height="268.354px" viewBox="0 0 525.317 268.354" enable-background="new 0 0 525.317 268.354"
	 xml:space="preserve">
<g>
	<g>
		<path d="M86.345,41.985c10.231-11.95,26.363-9.841,37.638-0.26c4.946,4.203,9.373,10.368,10.066,16.474
			c0.722,6.362-2.667,13.205-6.168,15.773c-4.788,3.512-9.956,4.247-16.153,4.148c-6.477-0.103-13.258-1.925-18.989-4.854
			c-5.441-2.782-9.196-5.957-11.627-11.081c0.689,1.453-0.722-3.401-0.522-1.814c-0.094-0.746-0.092-1.499-0.09-2.249
			c0,0.002,0.285-2.396,0.072-1.167c0.587-3.392,2.221-5.974,4.405-8.901c2.449-3.282,0.482-8.382-2.745-10.245
			c-3.849-2.223-7.803-0.528-10.245,2.745c-10.161,13.616-7.402,30.572,5.897,40.872c12.764,9.885,30.331,13.961,46.122,10.441
			c17.536-3.909,27.623-21.062,24.366-38.369c-3.316-17.625-21.258-31.63-38.316-34.331c-12.997-2.058-25.74,2.181-34.375,12.266
			C69.433,38.73,80.035,49.354,86.345,41.985L86.345,41.985z"/>
	</g>
</g>
<g>
	<g>
		<path d="M101.359,94.882c3.873,34.22,11.262,68.053,12.658,102.532c0.391,9.648,15.395,9.771,15.003,0.107
			c-1.396-34.495-8.785-68.304-12.658-102.531c-0.459-4.059-2.998-7.526-7.447-7.556C105.201,87.41,100.898,90.813,101.359,94.882
			L101.359,94.882z"/>
	</g>
</g>
<g>
	<g>
		<path d="M112.492,194.984c-12.625,18.62-30.693,32.81-48.205,46.576c-3.216,2.528-2.577,8.008,0.057,10.607
			c3.175,3.136,7.394,2.471,10.608-0.057c18.665-14.674,37.087-29.8,50.53-49.627C130.92,194.464,117.892,187.02,112.492,194.984
			L112.492,194.984z"/>
	</g>
</g>
<g>
	<g>
		<path d="M115.741,209.767c24.461,8.798,44.062,27.005,67.851,37.234c3.752,1.613,8.023,1.104,10.245-2.745
			c1.864-3.228,1.017-8.627-2.745-10.245c-25.012-10.756-45.606-29.44-71.39-38.715
			C110.574,192.013,106.709,206.518,115.741,209.767L115.741,209.767z"/>
	</g>
</g>
<g>
	<g>
		<path d="M348.267,42.991c8.175-12.736,22.942-14.525,36.218-9.43c5.401,2.073,10.388,6.199,13.056,10.541
			c2.758,4.488,2.617,8.717-0.79,13.977c-8.011,12.366-25.37,11.536-37.725,7.059c-2.671-0.968-5.4-2.555-7.838-4.226
			c-1.762-1.208-3.569-3.291-4.528-5c0.162,0.289-0.568-2.226-0.46-1.128c-0.024-0.252,0.099-2.312-0.136-0.651
			c0.094-0.669,0.31-1.315,0.52-1.954c-0.21,0.636,1.137-1.613,1.413-1.924c1.155-1.301,2.471-2.313,3.902-3.279
			c7.968-5.377,0.444-18.365-7.596-12.939c-6.988,4.716-12.957,11.121-13.132,19.999c-0.146,7.341,4.728,13.955,10.311,18.212
			c13.445,10.253,33.262,14.065,49.331,8.281c16.63-5.986,28.674-23.909,21.091-41.195c-6.625-15.103-24.619-23.049-40.267-23.553
			c-14.99-0.483-28.364,7.251-36.36,19.709C330.042,43.647,343.055,51.11,348.267,42.991L348.267,42.991z"/>
	</g>
</g>
<g>
	<g>
		<path d="M368.448,78.427c-0.021,40.51-1.245,81.009-1.266,121.519c-0.005,9.687,14.999,9.771,15.004,0.107
			c0.021-40.51,1.245-81.008,1.266-121.518C383.457,68.849,368.453,68.764,368.448,78.427L368.448,78.427z"/>
	</g>
</g>
<g>
	<g>
		<path d="M369.352,197.256c-18.676,17.192-41.83,28.22-63.023,41.844c-8.104,5.21-0.564,18.186,7.596,12.939
			c22.334-14.358,46.402-26.106,66.092-44.232C387.135,201.254,376.459,190.712,369.352,197.256L369.352,197.256z"/>
	</g>
</g>
<g>
	<g>
		<path d="M368.402,211.558c18.695,11.096,39.125,19.093,56.962,31.646c7.92,5.573,15.352-7.465,7.5-12.99
			c-17.837-12.553-38.267-20.55-56.962-31.646C367.573,193.625,360.083,206.621,368.402,211.558L368.402,211.558z"/>
	</g>
</g>
<g>
	<g>
		<path fill="#ED1C24" d="M110.072,123.958c9.687,0,9.772-15.004,0.108-15.004C100.494,108.954,100.409,123.958,110.072,123.958
			L110.072,123.958z"/>
	</g>
</g>
<g>
	<g>
		<path fill="#ED1C24" d="M115.136,158.134c9.687,0,9.772-15.003,0.108-15.003C105.558,143.131,105.472,158.134,115.136,158.134
			L115.136,158.134z"/>
	</g>
</g>
<g>
	<g>
		<path fill="#ED1C24" d="M117.667,210.034c9.687,0,9.772-15.004,0.108-15.004C108.089,195.03,108.004,210.034,117.667,210.034
			L117.667,210.034z"/>
	</g>
</g>
<g>
	<g>
		<path fill="#ED1C24" d="M87.288,237.881c9.687,0,9.772-15.004,0.108-15.004C77.709,222.877,77.624,237.881,87.288,237.881
			L87.288,237.881z"/>
	</g>
</g>
<g>
	<g>
		<path fill="#ED1C24" d="M149.313,226.49c9.687,0,9.772-15.004,0.108-15.004C139.735,211.486,139.649,226.49,149.313,226.49
			L149.313,226.49z"/>
	</g>
</g>
<g>
	<g>
		<path fill="#ED1C24" d="M107.541,66.996c9.687,0,9.772-15.004,0.108-15.004C97.963,51.992,97.877,66.996,107.541,66.996
			L107.541,66.996z"/>
	</g>
</g>
<g>
	<g>
		<path fill="#ED1C24" d="M372.098,60.667c9.686,0,9.771-15.004,0.107-15.004C362.52,45.663,362.434,60.667,372.098,60.667
			L372.098,60.667z"/>
	</g>
</g>
<g>
	<g>
		<path fill="#ED1C24" d="M373.364,116.363c9.686,0,9.771-15.004,0.107-15.004C363.786,101.359,363.7,116.363,373.364,116.363
			L373.364,116.363z"/>
	</g>
</g>
<g>
	<g>
		<path fill="#ED1C24" d="M373.364,156.869c9.686,0,9.771-15.003,0.107-15.003C363.786,141.866,363.7,156.869,373.364,156.869
			L373.364,156.869z"/>
	</g>
</g>
<g>
	<g>
		<path fill="#ED1C24" d="M369.567,217.628c9.686,0,9.771-15.004,0.107-15.004C359.989,202.625,359.903,217.628,369.567,217.628
			L369.567,217.628z"/>
	</g>
</g>
<g>
	<g>
		<path fill="#ED1C24" d="M336.655,236.616c9.687,0,9.771-15.004,0.108-15.004C327.077,221.612,326.991,236.616,336.655,236.616
			L336.655,236.616z"/>
	</g>
</g>
<g>
	<g>
		<path fill="#ED1C24" d="M406.276,230.287c9.686,0,9.771-15.004,0.107-15.004C396.698,215.283,396.612,230.287,406.276,230.287
			L406.276,230.287z"/>
	</g>
</g>
<g>
	<g>
		<path fill="#00FF00" d="M367.035,216.363c9.686,0,9.771-15.004,0.107-15.004C357.457,201.359,357.371,216.363,367.035,216.363
			L367.035,216.363z"/>
	</g>
</g>
<g>
	<g>
		<path fill="#00FF00" d="M113.87,159.401c9.687,0,9.772-15.004,0.108-15.004C104.292,144.397,104.207,159.401,113.87,159.401
			L113.87,159.401z"/>
	</g>
</g>
<g>
	<g>
		<path d="M110.072,140.414c35.711-1.895,73.84-13.385,108.251,1.429c18.629,8.02,33.958,22.246,50.452,33.745
			c15.742,10.975,33,18.57,52.029,21.522c4.04,0.627,8.042-0.985,9.216-5.255c0.989-3.603-1.213-8.589-5.255-9.216
			c-19.042-2.954-35.182-10.645-50.819-21.675c-16.734-11.804-32.192-25.583-51.323-33.467
			c-36.43-15.015-74.776-4.084-112.442-2.086C100.55,125.921,100.415,140.926,110.072,140.414L110.072,140.414z"/>
	</g>
</g>
<g>
	<g>
		<path d="M370.94,121.612c-17.978-0.116-34.894-4.377-50.974-12.345c-15.56-7.71-29.898-17.658-45.212-25.828
			c-17.858-9.527-35.87-15.751-56.31-12.744c-19.123,2.813-36.341,14.174-53.887,21.57c-3.774,1.591-4.531,7.096-2.672,10.268
			c2.269,3.87,6.503,4.258,10.268,2.672c16.542-6.973,32.251-16.969,50.174-20.021c18.874-3.214,36.62,6.426,52.453,15.386
			c14.17,8.02,27.719,17.127,42.513,24.006c16.91,7.862,34.883,11.919,53.54,12.04C380.522,136.678,380.601,121.674,370.94,121.612
			L370.94,121.612z"/>
	</g>
</g>
<g>
	<g>
		<path d="M107.649,129.208c-19.623-0.049-41.446-1.841-58.832-11.709c-8.622-4.894-12.914-11.778-13.673-21.622
			c-0.968-12.541,1.371-25.065,1.47-37.594c0.077-9.69-14.926-9.768-15.003-0.108c-0.107,13.464-2.562,26.848-1.231,40.324
			c1.29,13.064,7.326,22.712,18.02,30.159c19.142,13.332,46.515,15.498,69.14,15.554
			C117.229,144.235,117.312,129.231,107.649,129.208L107.649,129.208z"/>
	</g>
</g>
<g>
	<g>
		<path d="M371.437,135.083c14.562,2.918,29.242,2.623,43.942,4.083c13.131,1.305,22.526,7.308,29.198,18.713
			c7.782,13.306,10.105,29.297,17.397,42.965c7.771,14.563,21.067,23.936,37.311,26.644c9.466,1.577,13.491-12.882,3.961-14.471
			c-7.344-1.224-14.212-3.529-19.849-8.542c-5.048-4.489-8.328-10.484-11.116-16.547c-6.754-14.692-9.201-31.011-19.096-44.2
			c-8.639-11.515-20.547-17.317-34.605-19.19c-14.368-1.915-28.907-1.064-43.183-3.926
			C365.948,118.719,361.953,133.182,371.437,135.083L371.437,135.083z"/>
	</g>
</g>
<g>
	<g>
		<path fill="#ED1C24" d="M26.528,69.527c9.687,0,9.772-15.003,0.108-15.003C16.95,54.524,16.865,69.527,26.528,69.527
			L26.528,69.527z"/>
	</g>
</g>
<g>
	<g>
		<path fill="#ED1C24" d="M40.452,130.287c9.687,0,9.772-15.004,0.108-15.004C30.874,115.283,30.789,130.287,40.452,130.287
			L40.452,130.287z"/>
	</g>
</g>
<g>
	<g>
		<path fill="#ED1C24" d="M199.946,135.35c9.687,0,9.772-15.004,0.108-15.004C190.368,120.346,190.282,135.35,199.946,135.35
			L199.946,135.35z"/>
	</g>
</g>
<g>
	<g>
		<path fill="#ED1C24" d="M318.933,193.578c9.687,0,9.772-15.004,0.108-15.004C309.355,178.574,309.27,193.578,318.933,193.578
			L318.933,193.578z"/>
	</g>
</g>
<g>
	<g>
		<path fill="#ED1C24" d="M169.566,106.236c9.687,0,9.772-15.003,0.108-15.003C159.988,91.233,159.902,106.236,169.566,106.236
			L169.566,106.236z"/>
	</g>
</g>
<g>
	<g>
		<path fill="#ED1C24" d="M275.895,101.172c9.687,0,9.772-15.003,0.108-15.003C266.317,86.169,266.231,101.172,275.895,101.172
			L275.895,101.172z"/>
	</g>
</g>
<g>
	<g>
		<path fill="#ED1C24" d="M437.921,145.476c9.686,0,9.771-15.003,0.107-15.003C428.343,130.473,428.257,145.476,437.921,145.476
			L437.921,145.476z"/>
	</g>
</g>
<g>
	<g>
		<path fill="#ED1C24" d="M499.947,227.755c9.686,0,9.771-15.004,0.107-15.004C490.369,212.751,490.283,227.755,499.947,227.755
			L499.947,227.755z"/>
	</g>
</g>
</svg>
