<?xml version="1.0" encoding="utf-8"?>
<!-- Generator: Adobe Illustrator 15.1.0, SVG Export Plug-In . SVG Version: 6.00 Build 0)  -->
<!DOCTYPE svg PUBLIC "-//W3C//DTD SVG 1.1//EN" "http://www.w3.org/Graphics/SVG/1.1/DTD/svg11.dtd">
<svg version="1.1" id="Layer_1" xmlns="http://www.w3.org/2000/svg" xmlns:xlink="http://www.w3.org/1999/xlink" x="0px" y="0px"
	 width="800px" height="663.26px" viewBox="0 0 800 663.26" enable-background="new 0 0 800 663.26" xml:space="preserve">
<g>
	<g>
		<path d="M123.568,346.891c12.041,14.684,25.271,27.581,44.854,30.475c4.045,0.598,8.037-0.965,9.215-5.255
			c0.984-3.581-1.208-8.618-5.254-9.216c-17.233-2.546-27.69-13.775-38.263-26.668c-2.593-3.162-7.963-2.622-10.608,0.057
			C120.42,339.413,120.976,343.729,123.568,346.891L123.568,346.891z"/>
	</g>
</g>
<g>
	<g>
		<path d="M119.699,338.671c64.491,5.665,129.265,2.426,193.877,1.502c58.761-0.84,117.758,2.213,176.288-4.465
			c30.344-3.463,60.447-9.572,88.974-20.672c3.809-1.481,6.448-4.91,5.303-9.186c-0.971-3.622-5.367-6.788-9.186-5.303
			c-54.306,21.129-113.326,24.15-170.972,24.558c-29.458,0.208-58.913-0.338-88.371,0.038c-32.371,0.414-64.73,1.461-97.103,1.732
			c-32.927,0.276-65.886-0.326-98.702-3.209C110.149,322.818,110.144,337.831,119.699,338.671L119.699,338.671z"/>
	</g>
</g>
<g>
	<g>
		<path d="M571.991,307.738c0.014,16.308,1.931,34.169-3.359,49.881c-1.699,5.046-5.145,9.489-9.691,12.443
			c-7.252,4.712-16.397,6.135-24.848,6.852c-9.571,0.812-9.735,15.82-0.107,15.004c18.944-1.607,39.231-7.204,47.463-26.184
			c7.734-17.833,5.562-38.945,5.547-57.889C586.986,298.16,571.983,298.074,571.991,307.738L571.991,307.738z"/>
	</g>
</g>
<g>
	<g>
		<path d="M344.427,166.38c-13.855,23.44-37.295,38.663-59.64,53.125c-8.085,5.233-0.548,18.21,7.596,12.939
			c24.568-15.901,49.818-32.821,65.035-58.564C362.345,165.542,349.35,158.05,344.427,166.38L344.427,166.38z"/>
	</g>
</g>
<g>
	<g>
		<path d="M351.673,169.488c-1.092-5.396-2.262-10.66-2.34-16.187c-0.137-9.677-15.14-9.775-15.004-0.108
			c0.097,6.845,1.503,13.497,2.855,20.177c0.812,4.011,5.422,6.312,9.186,5.304C350.504,177.565,352.484,173.493,351.673,169.488
			L351.673,169.488z"/>
	</g>
</g>
<g>
	<g>
		<path d="M360.151,175.405c3.911-5.131,8.433-9.73,12.987-14.285c6.834-6.837-3.813-17.405-10.665-10.552
			c-4.554,4.556-9.076,9.155-12.987,14.286c-2.473,3.244-3.135,7.457,0.057,10.608C352.17,178.057,357.666,178.666,360.151,175.405
			L360.151,175.405z"/>
	</g>
</g>
<g>
	<g>
		<path d="M354.136,176.066c8.426,2.501,16.375,6.242,24.675,9.091c9.178,3.15,13.056-11.349,3.961-14.471
			c-8.301-2.849-16.25-6.589-24.675-9.091C348.797,158.835,344.883,173.319,354.136,176.066L354.136,176.066z"/>
	</g>
</g>
<g>
	<g>
		<path d="M339.781,143.5c9.08,42.931,20.784,85.233,33.54,127.204c6.408,21.083,13.093,42.08,19.824,63.062
			c6.702,20.895,14.199,41.629,16.51,63.584c0.428,4.062,3.022,7.526,7.448,7.556c3.737,0.024,7.984-3.376,7.556-7.448
			c-2.262-21.486-8.656-41.526-15.234-61.998c-6.943-21.606-13.837-43.229-20.482-64.929
			c-13.223-43.175-25.325-86.72-34.671-130.912C352.267,130.143,337.788,134.074,339.781,143.5L339.781,143.5z"/>
	</g>
</g>
<g>
	<g>
		<path d="M292.457,222.176c-12.474-28.86-21.847-59.046-36.363-87.013c-4.456-8.584-17.386-0.972-12.939,7.596
			c14.506,27.946,23.894,58.164,36.363,87.013c1.625,3.759,7.071,4.545,10.268,2.672
			C293.63,230.189,294.077,225.926,292.457,222.176L292.457,222.176z"/>
	</g>
</g>
<g>
	<g>
		<path d="M259.959,85.423c4.573-0.001,8.759-0.361,12.943-2.33c3.702-1.743,4.596-6.985,2.672-10.268
			c-2.206-3.762-6.572-4.411-10.268-2.672c1.923-0.905,0.505-0.211,0.006-0.057c-0.493,0.152-2.717,0.438-0.473,0.188
			c-1.579,0.176-3.187,0.135-4.772,0.136c-4.086,0.001-7.529,3.34-7.556,7.447C252.484,81.932,255.873,85.425,259.959,85.423
			L259.959,85.423z"/>
	</g>
</g>
<g>
	<g>
		<path d="M285.933,84.125c4.595,0.002,9.162-0.007,13.658,1.032c9.419,2.178,13.388-12.291,3.961-14.47
			c-5.773-1.335-11.611-1.562-17.511-1.565C276.354,69.117,276.27,84.121,285.933,84.125L285.933,84.125z"/>
	</g>
</g>
<g>
	<g>
		<path d="M273.642,109.842c4.484-1.037,9.006-1.04,13.589-1.042c9.686-0.004,9.772-15.008,0.108-15.003
			c-5.914,0.002-11.793,0.217-17.58,1.556C260.326,97.535,264.239,112.017,273.642,109.842L273.642,109.842z"/>
	</g>
</g>
<g>
	<g>
		<path d="M316.865,59.794c1.014-22.276-22.603-37.979-42.512-40.023c-9.64-0.99-9.631,14.025-0.108,15.003
			c11.992,1.232,28.231,11.422,27.618,24.912C301.421,69.376,316.427,69.42,316.865,59.794L316.865,59.794z"/>
	</g>
</g>
<g>
	<g>
		<path d="M271.059,20.028c-18.033,5.378-31.847,17.691-39.383,34.915c-7.236,16.538-8.99,34.915-9.035,52.794
			c-0.025,9.688,14.979,9.771,15.003,0.108c0.074-28.809,5.446-63.83,37.297-73.329C284.194,31.758,280.337,17.261,271.059,20.028
			L271.059,20.028z"/>
	</g>
</g>
<g>
	<g>
		<path d="M224.946,100.146c-9.25,19.496-23.856,35.255-36.749,52.312c-13.366,17.684-22.367,37.251-24.25,59.52
			c-1.655,19.572-2.512,39.303-0.5,58.882c2.023,19.688,6.92,40.634,21.16,55.251c6.749,6.929,17.309-3.729,10.552-10.664
			c-12.223-12.547-15.613-31.726-17.092-48.511c-1.637-18.571-0.599-37.31,0.969-55.849c3.562-42.132,41.801-67.403,58.901-103.442
			C242.057,98.962,229.099,91.394,224.946,100.146L224.946,100.146z"/>
	</g>
</g>
<g>
	<g>
		<path d="M183.937,238.305c7.82,19.685,14.136,39.982,16.883,61.039c0.831,6.37,11.194,7.482,13.74,1.809
			c1.325-2.953,2.262-5.619,2.305-8.891c0.128-9.691-14.876-9.765-15.003-0.107c-0.013,0.956,0.124,0.571-0.292,1.498
			c4.58,0.603,9.16,1.206,13.74,1.809c-2.748-21.056-9.064-41.354-16.883-61.038c-1.509-3.798-4.89-6.455-9.186-5.304
			C185.639,230.084,182.424,234.497,183.937,238.305L183.937,238.305z"/>
	</g>
</g>
<g>
	<g>
		<path d="M206.79,223.278c11.413,22.966,20.712,46.736,37.558,66.47c6.278,7.354,16.797-3.348,10.552-10.664
			c-15.854-18.574-24.43-41.79-35.17-63.401C215.426,207.024,202.503,214.65,206.79,223.278L206.79,223.278z"/>
	</g>
</g>
<g>
	<g>
		<path d="M227.569,196.006c12.699,24.231,23.666,49.487,40.26,71.428c2.464,3.258,6.428,4.923,10.268,2.672
			c3.215-1.885,5.142-7,2.672-10.267c-16.594-21.941-27.562-47.196-40.26-71.428C236.02,179.844,223.087,187.453,227.569,196.006
			L227.569,196.006z"/>
	</g>
</g>
<g>
	<g>
		<path d="M540.479,577.632c15.935-0.056,31.73-1.58,47.45-4.154c9.544-1.562,5.57-16.036-3.883-14.488
			c-14.4,2.357-28.866,3.588-43.46,3.639C530.902,562.662,530.813,577.665,540.479,577.632L540.479,577.632z"/>
	</g>
</g>
<g>
	<g>
		<path d="M526.537,571.375c1.229,14.697,2.543,29.396,2.598,44.155c0.036,9.684,15.04,9.772,15.004,0.107
			c-0.056-14.759-1.369-29.458-2.598-44.155C540.74,561.908,525.732,561.745,526.537,571.375L526.537,571.375z"/>
	</g>
</g>
<g>
	<g>
		<path d="M582.381,566.18c0.001,19.49,0.045,38.984,1.299,58.442c0.62,9.611,15.626,9.757,15.004,0.107
			c-1.255-19.458-1.299-38.952-1.299-58.442C597.385,556.602,582.381,556.516,582.381,566.18L582.381,566.18z"/>
	</g>
</g>
<g>
	<g>
		<path d="M537.882,628.281c18.175,0.041,36.389,1.299,54.545,0c9.599-0.687,9.75-15.693,0.107-15.004
			c-18.156,1.299-36.369,0.042-54.545,0C528.302,613.256,528.219,628.259,537.882,628.281L537.882,628.281z"/>
	</g>
</g>
<g>
	<g>
		<path d="M554.955,549.432c1.418-1.776,2.796-2.984,4.308-3.418c1.247-0.357,2.746-0.027,4.083,0.638
			c3.004,1.492,5.06,4.688,4.707,6.891c-0.356,2.231-1.785,3.739-3.364,5.379c-0.426,0.442-1.472,1.253-1.938,1.437
			c-1.146,0.448-2.053,0.347-2.203,0.315c-3.135-0.654-3.638-5.202-2.39-9.342c2.799-9.29-11.687-13.2-14.471-3.961
			c-3.42,11.352,0.687,23.104,12.087,27.531c11.303,4.39,22.49-5.975,26.28-15.674c3.76-9.626-2.475-20.082-10.469-25.15
			c-8.947-5.672-20.79-3.344-27.294,4.804c-2.546,3.188-3.086,7.505,0.057,10.607C547.023,552.132,552.399,552.634,554.955,549.432
			L554.955,549.432z"/>
	</g>
</g>
<g>
	<g>
		<path d="M61.257,606.203c65.939,2.715,131.941,2.26,197.917,1.734c32.952-0.264,65.912-0.628,98.865-0.355
			c32.8,0.271,65.591,1.22,98.392,1.548c30.293,0.302,60.953,0.716,91.17-1.788c30.179-2.501,60.521-1.766,90.763-1.285
			c29.941,0.475,59.918,0.646,89.757-2.251c24.349-2.364,49.399-14.641,74.068-9.558c9.446,1.946,13.437-12.518,3.961-14.471
			c-27.287-5.622-53.096,6.614-79.888,9.216c-32.384,3.146-64.993,2.424-97.476,1.904c-16.1-0.257-32.2-0.447-48.3-0.139
			c-16.234,0.312-32.39,1.725-48.603,2.424c-32.999,1.423-66.048,1.165-99.063,0.624c-61.826-1.012-123.569-1.262-185.404-0.779
			c-62.022,0.483-124.066,0.725-186.051-1.828C51.674,590.801,51.626,605.807,61.257,606.203L61.257,606.203z"/>
	</g>
</g>
<g>
	<g>
		<path d="M412.369,334.033c11.662,14.222,24.132,26.669,43.103,29.472c4.414,0.652,6.313-6.092,1.861-6.75
			c-17.86-2.639-29.062-14.314-40.015-27.671C414.454,325.591,409.531,330.573,412.369,334.033L412.369,334.033z"/>
	</g>
</g>
<g>
	<g>
		<path d="M405.754,324.669c64.491,5.666,129.265,2.427,193.876,1.503c58.762-0.841,117.758,2.213,176.288-4.466
			c29.977-3.421,59.734-9.577,87.909-20.539c4.159-1.618,2.352-8.389-1.861-6.75c-54.605,21.246-114.071,24.28-172.036,24.69
			c-29.458,0.208-58.914-0.339-88.371,0.038c-32.371,0.414-64.73,1.46-97.104,1.732c-32.927,0.276-65.886-0.326-98.701-3.209
			C401.255,317.273,401.294,324.277,405.754,324.669L405.754,324.669z"/>
	</g>
</g>
<g>
	<g>
		<path d="M861.993,297.792c0.014,16.638,1.899,34.838-3.501,50.877c-5.544,16.464-22.874,20.925-38.453,22.247
			c-4.463,0.379-4.5,7.382,0,7c17.617-1.495,36.298-6.554,43.937-24.165c7.404-17.072,5.033-37.856,5.018-55.959
			C868.989,293.278,861.989,293.277,861.993,297.792L861.993,297.792z"/>
	</g>
</g>
<g>
	<g>
		<path d="M633.899,158.363c-14.224,24.065-38.134,39.737-61.082,54.589c-3.774,2.442-0.269,8.505,3.533,6.044
			c23.968-15.512,48.744-31.978,63.594-57.1C642.246,158.001,636.194,154.481,633.899,158.363L633.899,158.363z"/>
	</g>
</g>
<g>
	<g>
		<path d="M633.804,160.498c-1.161-5.737-2.39-11.373-2.473-17.251c-0.063-4.51-7.063-4.516-7,0
			c0.092,6.494,1.439,12.773,2.723,19.113C627.949,166.782,634.695,164.905,633.804,160.498L633.804,160.498z"/>
	</g>
</g>
<g>
	<g>
		<path d="M643.841,161.896c3.723-4.883,8.105-9.243,12.438-13.577c3.194-3.195-1.756-8.145-4.949-4.95
			c-4.773,4.776-9.435,9.617-13.534,14.994C635.059,161.955,641.143,165.436,643.841,161.896L643.841,161.896z"/>
	</g>
</g>
<g>
	<g>
		<path d="M641.187,162.206c8.426,2.501,16.374,6.242,24.675,9.091c4.281,1.47,6.104-5.293,1.861-6.75
			c-8.301-2.849-16.249-6.589-24.675-9.091C638.709,154.168,636.87,160.924,641.187,162.206L641.187,162.206z"/>
	</g>
</g>
<g>
	<g>
		<path d="M629.65,132.489c9.08,42.931,20.784,85.233,33.54,127.203c6.407,21.083,13.093,42.08,19.823,63.062
			c6.825,21.277,14.29,42.295,16.643,64.648c0.468,4.441,7.473,4.487,7,0c-2.221-21.096-8.645-40.838-15.103-60.934
			c-6.943-21.606-13.837-43.229-20.482-64.929c-13.223-43.175-25.324-86.72-34.671-130.912
			C635.467,126.213,628.719,128.086,629.65,132.489L629.65,132.489z"/>
	</g>
</g>
<g>
	<g>
		<path d="M575.009,214.208c-12.473-28.858-21.849-59.051-36.363-87.014c-2.081-4.008-8.121-0.467-6.045,3.533
			c14.509,27.951,23.894,58.161,36.363,87.014C570.751,221.875,576.779,218.306,575.009,214.208L575.009,214.208z"/>
	</g>
</g>
<g>
	<g>
		<path d="M546.014,71.422c3.79-0.001,7.376-0.138,10.856-1.776c1.726-0.812,2.154-3.254,1.256-4.789
			c-1.027-1.753-3.062-2.068-4.789-1.255c-2.225,1.047-4.936,0.819-7.323,0.82C541.5,64.424,541.5,71.424,546.014,71.422
			L546.014,71.422z"/>
	</g>
</g>
<g>
	<g>
		<path d="M571.986,70.124c4.938,0.002,9.82,0.056,14.654,1.173c4.394,1.016,6.259-5.733,1.861-6.75
			c-5.443-1.259-10.952-1.42-16.516-1.423C567.473,63.121,567.473,70.121,571.986,70.124L571.986,70.124z"/>
	</g>
</g>
<g>
	<g>
		<path d="M558.632,95.973c4.834-1.118,9.716-1.171,14.653-1.174c4.514-0.002,4.514-7.002,0-7
			c-5.563,0.003-11.071,0.165-16.515,1.424C552.373,90.24,554.238,96.989,558.632,95.973L558.632,95.973z"/>
	</g>
</g>
<g>
	<g>
		<path d="M598.863,49.74c0.908-19.946-20.774-34.14-38.564-35.967c-4.489-0.461-4.444,6.543,0,7
			c14.128,1.451,32.285,13.136,31.564,28.967C591.658,54.255,598.658,54.235,598.863,49.74L598.863,49.74z"/>
	</g>
</g>
<g>
	<g>
		<path d="M558.069,13.898c-17.073,5.092-29.805,16.767-36.92,33.029c-6.948,15.88-8.463,33.719-8.507,50.865
			c-0.012,4.515,6.988,4.514,7,0c0.079-30.783,6.512-67.071,40.288-77.144C564.245,19.361,562.406,12.604,558.069,13.898
			L558.069,13.898z"/>
	</g>
</g>
<g>
	<g>
		<path d="M514.419,92.129c-9.253,19.5-23.854,35.252-36.748,52.312c-12.945,17.128-21.895,35.994-23.722,57.59
			c-1.655,19.572-2.512,39.303-0.5,58.882c1.906,18.555,6.537,38.562,19.959,52.34c3.154,3.238,8.1-1.716,4.949-4.949
			c-13.039-13.386-16.713-33.499-18.293-51.422c-1.637-18.572-0.599-37.311,0.97-55.849c3.655-43.226,41.921-68.473,59.43-105.371
			C522.388,91.607,516.354,88.053,514.419,92.129L514.419,92.129z"/>
	</g>
</g>
<g>
	<g>
		<path d="M473.807,227.294c7.69,19.357,14.056,39.394,16.758,60.108c0.389,2.978,4.91,5.359,6.522,1.767
			c1.036-2.311,1.743-4.409,1.776-6.961c0.06-4.517-6.94-4.511-7,0c-0.018,1.314-0.255,2.167-0.821,3.428
			c2.175,0.589,4.349,1.178,6.522,1.767c-2.791-21.396-9.059-41.959-17.008-61.97C478.911,221.29,472.139,223.094,473.807,227.294
			L473.807,227.294z"/>
	</g>
</g>
<g>
	<g>
		<path d="M496.237,211.247c11.23,22.599,20.335,46.225,36.911,65.644c2.935,3.438,7.862-1.537,4.949-4.949
			c-16.125-18.892-24.892-42.246-35.815-64.228C500.272,203.671,494.235,207.218,496.237,211.247L496.237,211.247z"/>
	</g>
</g>
<g>
	<g>
		<path d="M517.017,183.975c12.698,24.232,23.667,49.487,40.26,71.429c2.687,3.552,8.77,0.07,6.045-3.533
			c-16.594-21.941-27.562-47.196-40.26-71.429C520.966,176.442,514.924,179.981,517.017,183.975L517.017,183.975z"/>
	</g>
</g>
<g>
	<g>
		<path d="M382.254,405.707c-6.483-6.55-12.419-13.596-18.182-20.779c-2.825-3.522-7.745,1.465-4.95,4.949
			c5.762,7.185,11.699,14.23,18.182,20.779C380.483,413.868,385.432,408.917,382.254,405.707L382.254,405.707z"/>
	</g>
</g>
<g>
	<g>
		<path d="M383.309,452.086c7.108,5.621,14.551,10.759,22.305,15.448c8.29,5.014,15.774-7.986,7.5-12.99
			c-6.644-4.019-13.16-8.305-19.253-13.124c-3.2-2.53-7.496-3.095-10.608,0.058C380.619,444.144,380.095,449.543,383.309,452.086
			L383.309,452.086z"/>
	</g>
</g>
<g>
	<g>
		<path d="M428.764,506.631c9.629,8.655,16.29,20.004,25.974,28.572c7.208,6.377,17.819-4.235,10.551-10.666
			c-9.684-8.567-16.344-19.916-25.974-28.57C432.151,489.528,421.546,500.145,428.764,506.631L428.764,506.631z"/>
	</g>
</g>
<g>
	<g>
		<path d="M480.712,548.189c7.418,7.352,15.359,14.098,23.376,20.779c7.366,6.142,18-4.455,10.551-10.664
			c-8.017-6.683-15.958-13.429-23.376-20.779C484.397,530.722,473.826,541.367,480.712,548.189L480.712,548.189z"/>
	</g>
</g>
<g>
	<g>
		<path d="M618.592,555.925c18.512-16.764,45.194-21.033,67.297-31.273c8.765-4.061,1.114-16.975-7.596-12.939
			c-23.702,10.981-50.448,15.625-70.365,33.662C600.756,551.868,611.437,562.405,618.592,555.925L618.592,555.925z"/>
	</g>
</g>
<g>
	<g>
		<path d="M761.954,492.958c18.931-5.651,34.654-18.273,53.247-24.675c9.093-3.13,5.272-17.641-3.883-14.488
			c-18.593,6.4-34.427,19.056-53.247,24.675C748.819,481.231,752.676,495.729,761.954,492.958L761.954,492.958z"/>
	</g>
</g>
<g>
	<g>
		<path d="M876.798,431.146c16.352-10.874,33.009-21.276,48.288-33.662c3.177-2.575,2.609-7.975-0.058-10.608
			c-3.143-3.103-7.432-2.518-10.608,0.058c-14.246,11.549-29.971,21.135-45.218,31.273
			C861.192,423.533,868.72,436.517,876.798,431.146L876.798,431.146z"/>
	</g>
</g>
<g>
	<g>
		<path d="M136.638,554.399c7.262-10.994,20.285,0.563,11.549,10.455c-2.188,2.478-5.563,4.45-8.764,4.609
			c-2.5,0.125-4.39-0.896-5.828-2.261c-1.554-1.474-1.792-2.681-1.682-4.65c-0.02,0.359,0.424-0.793,0.98-1.658
			c0.593-0.922,2.497-1.865,3.645-2.477c8.534-4.55,0.931-17.485-7.596-12.939c-12.525,6.678-15.628,20.909-6.463,31.792
			c9.869,11.719,26.744,7.342,36.373-1.865c10.01-9.571,9.892-26.389-0.881-35.228c-11.684-9.587-26.436-5.22-34.323,6.722
			C118.307,554.986,131.328,562.439,136.638,554.399L136.638,554.399z"/>
	</g>
</g>
<g>
	<g>
		<path d="M130.434,577.868c-1.328,18.653-5.063,37.107-5.195,55.845c-0.068,9.689,14.936,9.769,15.003,0.107
			c0.131-18.737,3.868-37.19,5.195-55.845C146.125,568.301,131.115,568.28,130.434,577.868L130.434,577.868z"/>
	</g>
</g>
<g>
	<g>
		<path d="M128.942,629.894c-9.071,4.002-17.402,9.348-25.974,14.286c-8.374,4.824-0.797,17.774,7.596,12.939
			c8.571-4.938,16.902-10.284,25.974-14.286c3.746-1.652,4.557-7.052,2.672-10.268C136.967,628.739,132.68,628.245,128.942,629.894
			L128.942,629.894z"/>
	</g>
</g>
<g>
	<g>
		<path d="M127.465,645.592c8.37,6.75,17.673,11.233,27.5,15.449c3.753,1.61,8.021,1.106,10.245-2.745
			c1.862-3.226,1.019-8.631-2.745-10.245c-8.473-3.635-17.212-7.288-24.449-13.123c-3.175-2.562-7.516-3.075-10.608,0.057
			C124.754,637.671,124.275,643.021,127.465,645.592L127.465,645.592z"/>
	</g>
</g>
<g>
	<g>
		<path d="M132.124,603.154c-24.127-7.008-25.917-38.245-19.421-58.316c2.988-9.233-11.504-13.126-14.47-3.961
			c-9.168,28.327-2.341,67.374,29.93,76.748C137.478,620.33,141.396,605.849,132.124,603.154L132.124,603.154z"/>
	</g>
</g>
<g>
	<g>
		<path d="M124.894,617.892c24.094,1.045,49.299-3.25,65.791-22.433c14.488-16.851,28.571-48.633,7.071-65.727
			c-3.193-2.539-7.5-3.09-10.608,0.057c-2.639,2.672-3.15,8.058,0.057,10.607c15.42,12.261,0.39,36.725-9.958,47.575
			c-13.388,14.038-33.986,15.709-52.244,14.916C115.311,602.468,115.266,617.474,124.894,617.892L124.894,617.892z"/>
	</g>
</g>
<g>
	<g>
		<path d="M271.045,557.894c2.099-0.743,3.543-1.054,5.746-0.917c0.929,0.058,2.221,0.866,2.82,1.406
			c1.356,1.225,1.85,2.705,0.414,4.39c-2.671,3.133-7.805,4.603-11.622,2.823c-4.803-2.24-2.602-5.37,0.839-8.372
			c7.289-6.358-3.406-16.884-10.665-10.551c-8.899,7.763-11.232,20.651-1.776,29.069c9.553,8.505,23.201,6.314,32.528-1.111
			c7.072-5.63,8.363-16.289,3.493-23.676c-5.56-8.432-16.473-10.805-25.659-7.55C258.108,546.613,261.921,561.126,271.045,557.894
			L271.045,557.894z"/>
	</g>
</g>
<g>
	<g>
		<path d="M264.199,571.375c0,17.51,0.24,35.252-2.33,52.618c-0.599,4.045,0.965,8.037,5.254,9.216
			c3.582,0.983,8.617-1.208,9.215-5.255c2.771-18.719,2.863-37.588,2.864-56.472C279.203,561.797,264.2,561.711,264.199,571.375
			L264.199,571.375z"/>
	</g>
</g>
<g>
	<g>
		<path d="M264.007,618.206c-6.035,4.689-12.929,7.83-19.48,11.688c-8.324,4.901-0.755,17.856,7.596,12.939
			c6.551-3.858,13.446-6.998,19.48-11.688c3.226-2.507,4.943-6.393,2.672-10.268C272.41,617.697,267.242,615.692,264.007,618.206
			L264.007,618.206z"/>
	</g>
</g>
<g>
	<g>
		<path d="M261.23,630.008c8.61,7.383,17.288,14.825,23.481,24.439c5.217,8.098,18.193,0.56,12.939-7.596
			c-6.938-10.769-16.219-19.233-25.869-27.508C264.489,613.09,253.866,623.692,261.23,630.008L261.23,630.008z"/>
	</g>
</g>
<g>
	<g>
		<path d="M267.859,595.096c-12.142,0.688-23.274-3.098-27.573-15.16c-4.184-11.74-1.947-25.02,2.287-36.396
			c3.382-9.088-11.127-12.944-14.47-3.961c-5.648,15.176-7.193,32.772-0.839,47.96c6.881,16.445,23.406,23.527,40.487,22.562
			C277.376,609.555,277.514,594.55,267.859,595.096L267.859,595.096z"/>
	</g>
</g>
<g>
	<g>
		<path d="M261.929,612.431c21.38,7.085,44.694,3.606,62.021-11.051c17.142-14.502,21.365-38.457,14.736-59.165
			c-2.939-9.18-17.442-5.341-14.489,3.883c5.27,16.459,2.25,33.022-10.912,44.73c-12.868,11.446-31.752,12.316-47.395,7.132
			C256.678,594.907,252.791,609.402,261.929,612.431L261.929,612.431z"/>
	</g>
</g>
<g>
	<g>
		<path d="M699.617,552.699c1.071-0.35,2.271-0.75,3.316-0.817c0.268-0.018,1.923,0.228,1.344-0.019
			c1.408,0.599,0.898,0.482,1.52,1.131c-0.987-1.031,0.759,2.039,0.243,0.576c0.77,2.186,0.32,5.346-2.11,7.073
			c-1.575,1.119-3.114,1.403-4.882,0.933c-0.471-0.125-1.563-1.248-1.792-1.8c-1.511-3.653-1.027-7.677,1.855-10.345
			c7.104-6.57-3.57-17.113-10.664-10.551c-7.388,6.833-8.899,18.561-4.568,27.449c5.02,10.301,17.106,12.873,26.835,7.751
			c8.568-4.511,12.368-15.346,9.815-24.393c-3.101-10.985-14.677-14.782-24.795-11.478
			C686.577,541.201,690.411,555.706,699.617,552.699L699.617,552.699z"/>
	</g>
</g>
<g>
	<g>
		<path d="M689.133,577.266c2.279,15.671,1.086,31.59,1.041,47.356c-0.027,9.688,14.977,9.771,15.004,0.107
			c0.048-17.209,0.932-34.244-1.557-51.347c-0.59-4.055-5.587-6.268-9.186-5.303C690.137,569.231,688.544,573.221,689.133,577.266
			L689.133,577.266z"/>
	</g>
</g>
<g>
	<g>
		<path d="M692.579,624.699c-6.076,3.115-11.639,7.465-15.821,12.883c-2.492,3.229-3.121,7.47,0.058,10.607
			c2.641,2.608,8.104,3.188,10.608-0.057c3.592-4.653,7.586-7.847,12.751-10.494c3.639-1.865,4.649-6.895,2.672-10.268
			C700.693,623.697,696.214,622.836,692.579,624.699L692.579,624.699z"/>
	</g>
</g>
<g>
	<g>
		<path d="M688.73,636.365c5.922,4.438,11.799,8.275,18.652,11.13c3.785,1.575,8.236-1.689,9.216-5.255
			c1.187-4.321-1.489-7.647-5.255-9.216c-5.501-2.29-10.383-6.104-15.113-9.649c-3.277-2.456-8.385-0.477-10.245,2.745
			C683.76,629.975,685.462,633.916,688.73,636.365L688.73,636.365z"/>
	</g>
</g>
<g>
	<g>
		<path d="M695.132,591.199c-10.741-0.065-21.933-1.703-31.229-7.401c-9.814-6.015-9.523-16.123-5.745-25.974
			c3.471-9.049-11.043-12.897-14.471-3.961c-5.853,15.258-3.313,31.159,10.218,41.188c11.525,8.542,27.098,11.065,41.12,11.151
			C704.713,606.262,704.793,591.259,695.132,591.199L695.132,591.199z"/>
	</g>
</g>
<g>
	<g>
		<path d="M696.993,607.235c35.652,7.109,79.706-29.929,66.368-67.618c-3.205-9.056-17.718-5.243-14.488,3.883
			c9.277,26.216-22.477,54.339-47.919,49.265C691.503,590.88,687.507,605.344,696.993,607.235L696.993,607.235z"/>
	</g>
</g>
</svg>
