<?xml version="1.0" encoding="utf-8"?>
<!-- Generator: Adobe Illustrator 15.1.0, SVG Export Plug-In . SVG Version: 6.00 Build 0)  -->
<!DOCTYPE svg PUBLIC "-//W3C//DTD SVG 1.1//EN" "http://www.w3.org/Graphics/SVG/1.1/DTD/svg11.dtd">
<svg version="1.1" id="Layer_1" xmlns="http://www.w3.org/2000/svg" xmlns:xlink="http://www.w3.org/1999/xlink" x="0px" y="0px"
	 width="923.684px" height="702.632px" viewBox="0 0 923.684 702.632" enable-background="new 0 0 923.684 702.632"
	 xml:space="preserve">
<g>
	<g>
		<path d="M197.762,411.789c0.116,65.402,12.108,129.784,22.625,194.101c1.561,9.545,16.035,5.57,14.489-3.883
			c-10.307-63.025-21.998-126.019-22.112-190.109C212.748,402.211,197.744,402.125,197.762,411.789L197.762,411.789z"/>
	</g>
</g>
<g>
	<g>
		<path d="M205.209,470.661c24.562,0,49.123,0,73.685,0c9.687,0,9.772-15.004,0.108-15.004c-24.562,0-49.123,0-73.685,0
			C195.631,455.657,195.545,470.661,205.209,470.661L205.209,470.661z"/>
	</g>
</g>
<g>
	<g>
		<path d="M313.551,455.209c-1.2,65.211,10.413,129.712,13.158,194.737c0.407,9.646,15.411,9.771,15.003,0.107
			c-2.745-65.024-14.357-129.525-13.158-194.736C328.733,445.625,313.729,445.557,313.551,455.209L313.551,455.209z"/>
	</g>
</g>
<g>
	<g>
		<path d="M628.283,459.836c12.972,49.993,11.6,102.042,11.584,153.269c-0.003,9.687,15.001,9.771,15.004,0.107
			c0.015-52.562,1.21-105.964-12.1-157.258C640.341,446.588,625.854,450.478,628.283,459.836L628.283,459.836z"/>
	</g>
</g>
<g>
	<g>
		<path d="M635.473,458.818c26.342,0,52.704-0.072,78.947-2.631c4.064-0.396,7.526-3.046,7.556-7.448
			c0.024-3.762-3.374-7.953-7.448-7.556c-26.242,2.559-52.605,2.631-78.947,2.632C625.895,443.815,625.809,458.818,635.473,458.818
			L635.473,458.818z"/>
	</g>
</g>
<g>
	<g>
		<path d="M709.603,455.209c0,60.526,0,121.053,0,181.579c0,9.686,15.004,9.771,15.004,0.107c0-60.525,0-121.052,0-181.578
			C724.607,445.631,709.603,445.546,709.603,455.209L709.603,455.209z"/>
	</g>
</g>
<g>
	<g>
		<path d="M708.288,343.368c-0.019,44.75-1.315,89.483-2.632,134.21c-0.285,9.694,14.72,9.752,15.004,0.108
			c1.315-44.727,2.612-89.46,2.632-134.21C723.295,333.79,708.292,333.705,708.288,343.368L708.288,343.368z"/>
	</g>
</g>
<g>
	<g>
		<path d="M718.368,349.607c44.079,0.076,88.429,5.306,132.258-1.573c4.047-0.635,6.276-5.554,5.303-9.186
			c-1.143-4.266-5.147-5.937-9.186-5.304c-42.355,6.647-85.662,1.131-128.268,1.059
			C708.789,334.588,708.705,349.591,718.368,349.607L718.368,349.607z"/>
	</g>
</g>
<g>
	<g>
		<path d="M770.13,282.841c0,20.614,0,41.228,0,61.842c0,9.687,15.004,9.772,15.004,0.108c0-20.614,0-41.228,0-61.842
			C785.134,273.263,770.13,273.178,770.13,282.841L770.13,282.841z"/>
	</g>
</g>
<g>
	<g>
		<path d="M436.586,642.322c0-133.234,0-266.468,0-399.702c0-78.608,0-157.216,0-235.824c0-16.343-13.367-30.114-29.791-30.223
			c-16.261-0.108-30.223,13.446-30.223,29.791c0,133.234,0,266.468,0,399.703c0,78.608,0,157.216,0,235.825
			c0,16.343,13.367,30.113,29.791,30.223C422.624,672.22,436.586,658.667,436.586,642.322L436.586,642.322z"/>
	</g>
</g>
<g>
	<g>
		<path d="M514.217,646.269c0-16.666,0-33.333,0-50c0-16.343-13.367-30.113-29.791-30.223
			c-16.261-0.107-30.223,13.446-30.223,29.791c0,16.666,0,33.333,0,50c0,16.343,13.367,30.113,29.791,30.223
			C500.255,676.167,514.217,662.614,514.217,646.269L514.217,646.269z"/>
	</g>
</g>
<g>
	<g>
		<path d="M514.535,617.891c18.754-10.717,37.527-21.398,56.579-31.579c8.529-4.559,0.928-17.494-7.596-12.939
			c-19.052,10.181-37.825,20.862-56.579,31.579C498.547,609.747,506.126,622.696,514.535,617.891L514.535,617.891z"/>
	</g>
</g>
<g>
	<g>
		<path d="M444.078,567.77c2.677-11.024,4.123-22.263,5.529-33.505c0.509-4.064-3.722-7.531-7.447-7.556
			c-4.453-0.03-7.049,3.395-7.556,7.447c-1.248,9.966-2.625,19.882-4.997,29.652C427.324,573.212,441.795,577.17,444.078,567.77
			L444.078,567.77z"/>
	</g>
</g>
<g>
	<g>
		<path d="M511.903,581.048c15.606-10.293,32.531-18.274,48.685-27.631c8.361-4.844,0.787-17.795-7.596-12.939
			c-16.153,9.356-33.078,17.338-48.685,27.631C496.274,573.408,503.804,586.389,511.903,581.048L511.903,581.048z"/>
	</g>
</g>
<g>
	<g>
		<path d="M553.235,544.262c1.539,12.546,5.068,24.388,9.469,36.206c3.345,8.982,17.864,5.184,14.488-3.883
			c-3.875-10.406-7.595-21.14-8.953-32.216c-0.497-4.054-2.971-7.526-7.448-7.556C557.106,536.79,552.737,540.196,553.235,544.262
			L553.235,544.262z"/>
	</g>
</g>
<g>
	<g>
		<path d="M571.42,581.001c6.926,5.478,14.206,10.453,21.761,15.021c3.873,2.342,7.39-3.713,3.533-6.045
			c-7.034-4.253-13.894-8.825-20.345-13.926C572.87,573.285,567.88,578.203,571.42,581.001L571.42,581.001z"/>
	</g>
</g>
<g>
	<g>
		<path d="M567.473,561.264c9.531,8.161,22.608,14.047,25.415,27.403c0.928,4.416,7.676,2.543,6.75-1.861
			c-3.143-14.952-16.555-21.363-27.216-30.491C569.014,553.396,564.039,558.324,567.473,561.264L567.473,561.264z"/>
	</g>
</g>
<g>
	<g>
		<path d="M603.415,581.543c-2.714,7.879-6.334,15.453-7.895,23.685c-0.836,4.411,5.91,6.293,6.75,1.861
			c1.561-8.232,5.181-15.806,7.895-23.685C611.638,579.125,604.875,577.302,603.415,581.543L603.415,581.543z"/>
	</g>
</g>
<g>
	<g>
		<path d="M592.888,607.089c1.341,3.734,3.934,6.821,5.264,10.525c1.514,4.215,8.279,2.398,6.75-1.861
			c-1.341-3.734-3.934-6.821-5.264-10.525C598.125,601.013,591.359,602.83,592.888,607.089L592.888,607.089z"/>
	</g>
</g>
<g>
	<g>
		<path d="M527.631,562.29c-1.37,0.001-2.856-0.024-4.146,0.492c-1.887,0.755-3.204,2.071-4.14,3.873
			c-0.879,1.693-0.45,3.789,1.256,4.789c1.583,0.927,3.911,0.436,4.789-1.256c0.12-0.232,0.96-1.436,0.344-0.686
			c0.155-0.188,0.736-0.638-0.071-0.034c0.21-0.156,0.83-0.396-0.135-0.01c0.188-0.075,0.388-0.117,0.584-0.16
			c0.751-0.166-0.869,0.08-0.055,0.021c0.522-0.039,1.05-0.029,1.573-0.029c1.908-0.001,3.5-1.592,3.5-3.5
			C531.131,563.882,529.54,562.289,527.631,562.29L527.631,562.29z"/>
	</g>
</g>
<g>
	<g>
		<path d="M604.158,567.553c3.983-0.365,8.08,0.726,10.253,4.334c2.003,3.327-1.629,7.204-4.632,8.262
			c-2.274,0.8-3.46-1.662-3.981-3.459c-0.892-3.07-0.011-6.535,2.151-8.847c3.08-3.291-1.859-8.252-4.949-4.949
			c-4.109,4.391-5.446,10.511-3.774,16.271c1.612,5.555,6.639,9.215,12.414,7.733c6.854-1.757,11.766-9.547,9.774-16.341
			c-2.086-7.117-10.419-10.632-17.256-10.004C599.702,560.962,599.662,567.966,604.158,567.553L604.158,567.553z"/>
	</g>
</g>
<g>
	<g>
		<path d="M78.025,461.788c0.002,13.032,0.177,26.034,2.889,38.837c2.007,9.474,16.485,5.543,14.489-3.882
			c-2.43-11.47-2.373-23.175-2.375-34.847C93.026,452.21,78.023,452.125,78.025,461.788L78.025,461.788z"/>
	</g>
</g>
<g>
	<g>
		<path d="M86.152,475.666c8.312-1.118,16.703-1.343,25-2.632c4.048-0.629,6.275-5.559,5.304-9.186
			c-1.145-4.271-5.147-5.931-9.186-5.304c-8.275,1.285-16.695,1.515-25,2.632c-4.062,0.546-6.259,5.62-5.304,9.186
			C78.127,474.693,82.101,476.21,86.152,475.666L86.152,475.666z"/>
	</g>
</g>
<g>
	<g>
		<path d="M92.756,500.657c6.765,1.275,13.482,1.58,20.348,1.582c9.687,0.003,9.771-15,0.108-15.004
			c-5.532-0.001-11.042-0.021-16.495-1.049c-4.018-0.757-8.069,1.08-9.215,5.255C86.485,495.141,88.74,499.899,92.756,500.657
			L92.756,500.657z"/>
	</g>
</g>
<g>
	<g>
		<path d="M108.545,472.994c1.41,9.277,3.854,18.354,5.263,27.632c0.616,4.051,5.568,6.273,9.186,5.304
			c4.28-1.147,5.917-5.146,5.304-9.186c-1.41-9.277-3.854-18.354-5.263-27.632c-0.616-4.051-5.568-6.273-9.186-5.304
			C109.568,464.955,107.931,468.954,108.545,472.994L108.545,472.994z"/>
	</g>
</g>
<g>
	<g>
		<path d="M137.492,466.415c1.398,10.586,3.866,20.993,5.263,31.579c0.537,4.064,5.626,6.257,9.186,5.304
			c4.338-1.163,5.838-5.134,5.304-9.186c-1.398-10.586-3.865-20.993-5.263-31.579c-0.537-4.064-5.626-6.257-9.186-5.304
			C138.458,458.392,136.957,462.363,137.492,466.415L137.492,466.415z"/>
	</g>
</g>
<g>
	<g>
		<path d="M144.072,471.709c8.289,2.608,16.464,2.91,24.974,1.325c4.025-0.75,6.299-5.469,5.304-9.186
			c-1.121-4.181-5.168-6.052-9.186-5.304c-5.899,1.099-11.437,0.486-17.131-1.306C138.776,454.326,134.877,468.815,144.072,471.709
			L144.072,471.709z"/>
	</g>
</g>
<g>
	<g>
		<path d="M151.967,500.657c6.849,2.703,13.839,5.062,21.052,6.578c9.442,1.986,13.429-12.479,3.961-14.47
			c-7.213-1.517-14.204-3.876-21.052-6.579c-3.812-1.504-8.221,1.635-9.215,5.255C145.541,495.707,148.173,499.159,151.967,500.657
			L151.967,500.657z"/>
	</g>
</g>
<g>
	<g>
		<path d="M169.071,463.783c3.726,12.657,6.208,25.571,6.322,38.794c0.083,9.681,15.086,9.774,15.003,0.108
			c-0.125-14.499-2.75-28.903-6.836-42.785C180.833,450.636,166.338,454.496,169.071,463.783L169.071,463.783z"/>
	</g>
</g>
<g>
	<g>
		<path d="M86.177,536.152c2.366,9.745,3.762,19.644,5.006,29.584c0.507,4.053,2.962,7.525,7.447,7.556
			c3.677,0.024,8.064-3.384,7.556-7.448c-1.41-11.268-2.837-22.523-5.52-33.573C98.382,522.862,83.898,526.766,86.177,536.152
			L86.177,536.152z"/>
	</g>
</g>
<g>
	<g>
		<path d="M97.314,539.081c9.957,1.321,19.688,1.062,29.626-0.257c4.064-0.539,6.258-5.625,5.304-9.186
			c-1.162-4.336-5.134-5.841-9.186-5.304c-8.513,1.129-17.142,0.87-25.636-0.257c-4.061-0.539-7.531,3.744-7.556,7.447
			C89.837,536.001,93.265,538.543,97.314,539.081L97.314,539.081z"/>
	</g>
</g>
<g>
	<g>
		<path d="M96.041,568.491c8.93,8.126,20.234,7.507,31.537,7.433c9.683-0.063,9.774-15.067,0.108-15.004
			c-6.544,0.043-15.807,1.718-21.095-3.095C99.464,551.338,88.863,561.958,96.041,568.491L96.041,568.491z"/>
	</g>
</g>
<g>
	<g>
		<path d="M118.814,531.525c1.231,10.493,1.314,21.027,1.316,31.579c0.001,9.686,15.005,9.771,15.003,0.107
			c-0.001-10.552-0.084-21.085-1.316-31.578c-0.476-4.057-2.986-7.526-7.447-7.556C122.669,524.053,118.337,527.458,118.814,531.525
			L118.814,531.525z"/>
	</g>
</g>
<g>
	<g>
		<path d="M144.071,522.994c3.623,11.857,8.728,23.599,8.954,36.163c0.173,9.673,15.176,9.775,15.003,0.107
			c-0.251-14.058-5.417-26.895-9.467-40.152C155.74,509.882,141.242,513.733,144.071,522.994L144.071,522.994z"/>
	</g>
</g>
<g>
	<g>
		<path d="M148.672,525.069c10.069,8.356,22.125,14.033,35.484,12.696c4.064-0.407,7.527-3.038,7.556-7.448
			c0.025-3.754-3.374-7.964-7.447-7.556c-9.475,0.949-17.779-2.33-25.042-8.357C151.845,508.282,141.209,518.877,148.672,525.069
			L148.672,525.069z"/>
	</g>
</g>
<g>
	<g>
		<path d="M162.04,568.337c7.518,5.234,16.588,5.03,24.653,1.29c3.712-1.722,4.587-7.001,2.672-10.268
			c-2.214-3.777-6.562-4.391-10.268-2.672c-3.4,1.577-6.628,0.698-9.558-1.341c-3.358-2.339-8.332-0.569-10.245,2.745
			C157.122,561.855,158.688,566.003,162.04,568.337L162.04,568.337z"/>
	</g>
</g>
<g>
	<g>
		<path d="M178.025,523.63c0.106,16.173,2.646,32.17,5.52,48.048c1.725,9.523,16.2,5.565,14.489-3.883
			c-2.643-14.593-4.908-29.191-5.006-44.057C192.964,514.056,177.961,513.965,178.025,523.63L178.025,523.63z"/>
	</g>
</g>
<g>
	<g>
		<path d="M241.183,490.735c-0.002,12.558-0.005,25.168-2.365,37.547c-1.803,9.457,12.659,13.461,14.47,3.961
			c2.611-13.696,2.896-27.502,2.898-41.4C256.188,481.157,241.184,481.072,241.183,490.735L241.183,490.735z"/>
	</g>
</g>
<g>
	<g>
		<path d="M249.946,502.239c7.476,0.1,14.889,1.231,22.368,1.315c9.691,0.11,9.766-14.894,0.108-15.003
			c-7.48-0.085-14.893-1.216-22.368-1.316C240.363,487.105,240.29,502.109,249.946,502.239L249.946,502.239z"/>
	</g>
</g>
<g>
	<g>
		<path d="M238.355,538.074c9.705,5.487,19.801,5.904,29.917,1.291c3.724-1.699,4.577-7.018,2.672-10.268
			c-2.224-3.793-6.551-4.367-10.268-2.672c-5.087,2.321-10.121,1.315-14.821-1.341C237.432,520.322,229.925,533.308,238.355,538.074
			L238.355,538.074z"/>
	</g>
</g>
<g>
	<g>
		<path d="M264.867,495.999c1.216,14.009,1.315,28.054,1.316,42.105c0,9.687,15.004,9.771,15.003,0.108
			c-0.001-14.052-0.099-28.097-1.316-42.105C279.04,486.539,264.031,486.374,264.867,495.999L264.867,495.999z"/>
	</g>
</g>
<g>
	<g>
		<path d="M238.267,581.429c5.668,8.517,4.279,19.311,4.232,29.044c-0.047,9.688,14.957,9.77,15.003,0.107
			c0.061-12.51,0.97-25.83-6.295-36.747C245.877,565.826,232.893,573.353,238.267,581.429L238.267,581.429z"/>
	</g>
</g>
<g>
	<g>
		<path d="M240.987,578.864c11.616,5.592,23.777,7.512,36.591,7.586c9.689,0.056,9.769-14.948,0.108-15.004
			c-10.113-0.059-19.981-1.135-29.199-5.572C239.82,561.702,232.257,574.662,240.987,578.864L240.987,578.864z"/>
	</g>
</g>
<g>
	<g>
		<path d="M240.125,623.025c10.616,2.519,21.328,2.896,32.189,2.898c9.687,0.003,9.772-15.001,0.108-15.004
			c-9.568-0.003-18.983-0.146-28.337-2.365C234.675,606.322,230.711,620.791,240.125,623.025L240.125,623.025z"/>
	</g>
</g>
<g>
	<g>
		<path d="M270.13,578.894c1.213,12.695,1.314,25.415,1.316,38.158c0,9.686,15.004,9.771,15.003,0.107
			c-0.001-12.742-0.103-25.463-1.316-38.158c-0.388-4.065-3.051-7.526-7.447-7.556C273.918,571.421,269.741,574.819,270.13,578.894
			L270.13,578.894z"/>
	</g>
</g>
<g>
	<g>
		<path d="M658.545,501.941c1.162,7.586,1.056,15.349,1.058,23.005c0.003,9.687,15.006,9.772,15.004,0.108
			c-0.003-9.055-0.198-18.028-1.573-26.995c-0.62-4.05-5.564-6.274-9.186-5.304C659.572,493.901,657.926,497.901,658.545,501.941
			L658.545,501.941z"/>
	</g>
</g>
<g>
	<g>
		<path d="M667.051,516.712c7.456,0,14.912,0,22.369,0c9.686,0,9.771-15.003,0.107-15.003c-7.456,0-14.912,0-22.369,0
			C657.473,501.709,657.387,516.712,667.051,516.712L667.051,516.712z"/>
	</g>
</g>
<g>
	<g>
		<path d="M663.355,528.864c5.711,4.22,11.974,8.052,18.875,9.95c9.348,2.571,13.279-11.908,3.961-14.47
			c-5.645-1.552-10.677-5.028-15.336-8.471c-3.293-2.434-8.374-0.495-10.245,2.745C658.395,522.456,660.07,526.437,663.355,528.864
			L663.355,528.864z"/>
	</g>
</g>
<g>
	<g>
		<path d="M681.972,515.735c-0.092,7.345-1.162,14.528-2.365,21.758c-0.67,4.033,1.018,8.052,5.255,9.216
			c3.635,0.998,8.545-1.222,9.216-5.255c1.411-8.486,2.79-16.991,2.898-25.611C697.097,506.152,682.093,506.078,681.972,515.735
			L681.972,515.735z"/>
	</g>
</g>
<g>
	<g>
		<path d="M653.025,576.262c0.097,8.217,1.528,16.282,2.889,24.363c0.68,4.038,5.521,6.285,9.186,5.303
			c4.232-1.134,5.981-5.155,5.303-9.186c-1.143-6.79-2.292-13.469-2.373-20.373C667.915,566.691,652.912,566.595,653.025,576.262
			L653.025,576.262z"/>
	</g>
</g>
<g>
	<g>
		<path d="M667.051,586.45c5.949,0.002,11.94-0.037,17.811,1.049c4.021,0.743,8.065-1.07,9.216-5.255
			c1.014-3.689-1.236-8.473-5.255-9.216c-7.19-1.33-14.37-1.579-21.664-1.582C657.472,571.442,657.387,586.446,667.051,586.45
			L667.051,586.45z"/>
	</g>
</g>
<g>
	<g>
		<path d="M656.777,614.39c5.599,3.451,12.62,3.981,18.849,2.064c3.906-1.202,6.391-5.127,5.303-9.186
			c-1.028-3.839-5.275-6.506-9.186-5.303c-2.869,0.883-4.973,0.97-7.466-0.566c-3.48-2.145-8.246-0.718-10.245,2.745
			C651.945,607.76,653.299,612.247,656.777,614.39L656.777,614.39z"/>
	</g>
</g>
<g>
	<g>
		<path d="M685.919,574.947c0,10.965,0,21.93,0,32.895c0,9.686,15.004,9.771,15.004,0.107c0-10.965,0-21.93,0-32.895
			C700.923,565.369,685.919,565.283,685.919,574.947L685.919,574.947z"/>
	</g>
</g>
<g>
	<g>
		<path d="M745.13,410.472c0.001,12.743,0.104,25.463,1.315,38.158c0.389,4.066,3.052,7.527,7.448,7.556
			c3.768,0.025,7.944-3.373,7.556-7.447c-1.213-12.696-1.314-25.416-1.315-38.158C760.133,400.894,745.129,400.809,745.13,410.472
			L745.13,410.472z"/>
	</g>
</g>
<g>
	<g>
		<path d="M757.841,420.66c13.17,0.064,26.303,1.252,39.474,1.316c9.688,0.046,9.77-14.957,0.107-15.004
			c-13.171-0.063-26.303-1.252-39.474-1.315C748.26,405.61,748.179,420.613,757.841,420.66L757.841,420.66z"/>
	</g>
</g>
<g>
	<g>
		<path d="M759.199,442.175c6.438,7.507,16.204,10.78,25.663,12.429c4.027,0.702,8.058-1.04,9.216-5.255
			c1.005-3.658-1.228-8.513-5.255-9.216c-7.095-1.236-14.212-2.955-19.073-8.624C763.455,424.169,752.934,434.87,759.199,442.175
			L759.199,442.175z"/>
	</g>
</g>
<g>
	<g>
		<path d="M784.603,423.63c0,9.21,0,18.421,0,27.631c0,9.687,15.004,9.772,15.004,0.108c0-9.21,0-18.421,0-27.631
			C799.607,414.052,784.603,413.967,784.603,423.63L784.603,423.63z"/>
	</g>
</g>
<g>
	<g>
		<path d="M808.288,411.788c1.125,15.315-1.171,30.378-3.681,45.442c-1.576,9.465,12.883,13.491,14.471,3.961
			c2.715-16.299,5.431-32.72,4.214-49.295C822.586,402.301,807.58,402.148,808.288,411.788L808.288,411.788z"/>
	</g>
</g>
<g>
	<g>
		<path d="M808.092,419.653c9.497,4.506,19.55,6.174,30.012,6.27c9.69,0.088,9.767-14.916,0.107-15.004
			c-7.749-0.07-15.535-0.895-22.619-4.256C806.909,402.542,799.34,415.5,808.092,419.653L808.092,419.653z"/>
	</g>
</g>
<g>
	<g>
		<path d="M809.157,464.081c11.658,1.371,23.429,1.126,34.89-1.573c9.425-2.22,5.515-16.702-3.883-14.489
			c-10.16,2.393-20.578,2.272-30.899,1.059c-4.066-0.479-7.53,3.699-7.556,7.447C801.679,460.955,805.1,463.604,809.157,464.081
			L809.157,464.081z"/>
	</g>
</g>
<g>
	<g>
		<path d="M838.551,420.999c0.042,19.308,1.273,38.588,1.315,57.895c0.021,9.685,15.024,9.772,15.004,0.108
			c-0.042-19.308-1.273-38.588-1.315-57.895C853.534,411.422,838.531,411.334,838.551,420.999L838.551,420.999z"/>
	</g>
</g>
<g>
	<g>
		<path d="M733.288,495.999c1.301,10.329,2.733,20.638,4.205,30.942c0.579,4.057,5.595,6.266,9.186,5.304
			c4.307-1.154,5.881-5.14,5.303-9.186c-1.281-8.977-2.557-17.955-3.689-26.952c-0.511-4.053-2.961-7.526-7.448-7.556
			C737.169,488.527,732.776,491.935,733.288,495.999L733.288,495.999z"/>
	</g>
</g>
<g>
	<g>
		<path d="M751.262,498.292c10.979,0.073,21.915,1.243,32.895,1.315c9.689,0.064,9.769-14.939,0.107-15.003
			c-10.979-0.073-21.915-1.243-32.895-1.316C741.68,483.224,741.601,498.227,751.262,498.292L751.262,498.292z"/>
	</g>
</g>
<g>
	<g>
		<path d="M745.388,532.235c7.993,1.476,15.663,1.486,23.658,0.01c4.025-0.744,6.298-5.474,5.303-9.186
			c-1.121-4.186-5.167-6.045-9.186-5.304c-5.229,0.966-10.583,0.976-15.814,0.01c-4.021-0.743-8.065,1.069-9.216,5.254
			C739.121,526.708,741.369,531.493,745.388,532.235L745.388,532.235z"/>
	</g>
</g>
<g>
	<g>
		<path d="M778.025,499.946c-0.062,13.919-0.99,27.689,1.573,41.469c1.771,9.517,16.246,5.563,14.488-3.882
			c-2.298-12.352-1.113-24.999-1.058-37.479C793.072,490.366,778.068,490.284,778.025,499.946L778.025,499.946z"/>
	</g>
</g>
<g>
	<g>
		<path d="M806.972,499.946c1.078,13.606-1.034,26.875-3.681,40.179c-1.88,9.452,12.583,13.448,14.471,3.961
			c2.885-14.505,5.389-29.197,4.214-44.032C821.216,490.47,806.209,490.312,806.972,499.946L806.972,499.946z"/>
	</g>
</g>
<g>
	<g>
		<path d="M809.157,511.45c11.408,1.274,22.802,2.672,34.211,3.947c4.068,0.455,7.53-3.682,7.556-7.448
			c0.029-4.412-3.389-7.102-7.448-7.556c-11.408-1.275-22.802-2.672-34.211-3.947c-4.068-0.455-7.53,3.682-7.556,7.448
			C801.679,508.306,805.097,510.996,809.157,511.45L809.157,511.45z"/>
	</g>
</g>
<g>
	<g>
		<path d="M800.11,538.009c7.879,17.683,29.679,11.916,43.162,5.303c8.68-4.257,1.049-17.179-7.596-12.939
			c-6.343,3.111-18.722,8.806-22.627,0.041c-1.666-3.739-7.041-4.563-10.268-2.672C798.965,529.979,798.448,534.278,800.11,538.009
			L800.11,538.009z"/>
	</g>
</g>
<g>
	<g>
		<path d="M830.656,502.578c1.251,13.158,1.251,26.316,0,39.474c-0.917,9.65,14.097,9.648,15.004,0.108
			c1.25-13.158,1.25-26.316,0-39.474c-0.387-4.066-3.053-7.527-7.448-7.556C834.442,495.105,830.269,498.503,830.656,502.578
			L830.656,502.578z"/>
	</g>
</g>
<g>
	<g>
		<path d="M754.598,570.363c2.358,12.365,2.497,24.977,3.689,37.479c0.389,4.065,3.052,7.526,7.448,7.556
			c3.768,0.024,7.944-3.373,7.556-7.448c-1.321-13.847-1.592-27.768-4.205-41.469C767.273,556.97,752.797,560.92,754.598,570.363
			L754.598,570.363z"/>
	</g>
</g>
<g>
	<g>
		<path d="M765.736,578.555c9.627,1.138,19.264,1.313,28.947,1.315c9.686,0.002,9.771-15.002,0.107-15.004
			c-9.683-0.002-19.32-0.177-28.947-1.315c-4.066-0.48-7.53,3.701-7.556,7.448C758.258,575.431,761.679,578.076,765.736,578.555
			L765.736,578.555z"/>
	</g>
</g>
<g>
	<g>
		<path d="M758.546,613.815c7.725,2.871,15.647,2.809,23.658,1.324c4.025-0.746,6.298-5.471,5.303-9.186
			c-1.121-4.184-5.167-6.048-9.186-5.303c-5.492,1.018-10.579,0.64-15.814-1.307c-3.84-1.427-8.205,1.577-9.216,5.255
			C752.136,608.805,754.723,612.393,758.546,613.815L758.546,613.815z"/>
	</g>
</g>
<g>
	<g>
		<path d="M792.499,567.052c-1.241,11.81-1.314,23.662-1.316,35.525c-0.001,9.686,15.003,9.771,15.004,0.107
			c0.001-11.862,0.075-23.715,1.316-35.525C808.515,557.524,793.5,557.535,792.499,567.052L792.499,567.052z"/>
	</g>
</g>
<g>
	<g>
		<path d="M813.551,573.63c-1.216,12.143-2.418,24.286-4.997,36.231c-2.037,9.437,12.429,13.418,14.471,3.961
			c2.85-13.199,4.187-26.666,5.53-40.085C829.52,564.095,814.505,564.101,813.551,573.63L813.551,573.63z"/>
	</g>
</g>
<g>
	<g>
		<path d="M813.809,578.289c11.91,2.591,23.94,4.142,36.138,4.214c9.688,0.057,9.769-14.947,0.107-15.004
			c-10.939-0.064-21.6-1.356-32.284-3.681C808.335,561.766,804.355,576.232,813.809,578.289L813.809,578.289z"/>
	</g>
</g>
<g>
	<g>
		<path d="M812.494,624.341c11.072,4.272,23.559,1.782,34.185-2.623c3.775-1.564,6.466-4.846,5.303-9.186
			c-0.953-3.557-5.398-6.873-9.186-5.303c-8.397,3.48-17.523,6.044-26.341,2.641c-3.822-1.475-8.215,1.613-9.216,5.255
			C806.074,619.369,808.688,622.873,812.494,624.341L812.494,624.341z"/>
	</g>
</g>
<g>
	<g>
		<path d="M498.734,570.776c-93.22-93.22-186.439-186.44-279.659-279.66c-19.061-19.061-38.122-38.122-57.183-57.183
			c-11.545-11.545-30.992-11.358-42.433,0.228c-11.525,11.671-11.34,30.865,0.228,42.433c93.22,93.22,186.44,186.44,279.659,279.66
			c19.061,19.061,38.122,38.122,57.183,57.183c11.545,11.545,30.992,11.357,42.433-0.228
			C510.487,601.538,510.301,582.343,498.734,570.776L498.734,570.776z"/>
	</g>
</g>
<g>
	<g>
		<path d="M208.817,406.634c0.011-76.757,1.305-153.507,1.316-230.263c0.001-9.687-15.002-9.772-15.003-0.108
			c-0.012,76.757-1.305,153.507-1.316,230.263C193.813,416.212,208.816,416.297,208.817,406.634L208.817,406.634z"/>
	</g>
</g>
<g>
	<g>
		<path d="M71.446,378.894c1.172,12.261,1.336,24.593,2.631,36.842c0.429,4.062,3.021,7.526,7.447,7.556
			c3.737,0.025,7.986-3.376,7.556-7.447c-1.295-12.25-1.459-24.582-2.631-36.842c-0.389-4.066-3.051-7.527-7.447-7.556
			C75.234,371.421,71.057,374.82,71.446,378.894L71.446,378.894z"/>
	</g>
</g>
<g>
	<g>
		<path d="M82.841,381.187c11.811,1.241,23.663,1.314,35.526,1.315c9.687,0.001,9.772-15.002,0.108-15.003
			c-11.864-0.001-23.716-0.075-35.526-1.315C73.313,365.171,73.324,380.187,82.841,381.187L82.841,381.187z"/>
	</g>
</g>
<g>
	<g>
		<path d="M92.051,419.344c7.457,0,14.913,0,22.369,0c9.687,0,9.772-15.003,0.108-15.003c-7.457,0-14.913,0-22.369,0
			C82.473,404.341,82.388,419.344,92.051,419.344L92.051,419.344z"/>
	</g>
</g>
<g>
	<g>
		<path d="M110.92,367.052c-0.109,14.358-2.354,28.513,0.257,42.785c1.743,9.521,16.218,5.564,14.489-3.882
			c-2.333-12.75,0.16-25.95,0.257-38.794C125.997,357.47,110.993,357.392,110.92,367.052L110.92,367.052z"/>
	</g>
</g>
<g>
	<g>
		<path d="M130.657,370.999c0.131,14.005,2.785,27.782,5.52,41.469c1.898,9.496,16.375,5.554,14.489-3.882
			c-2.48-12.41-4.887-24.779-5.006-37.479C145.569,361.427,130.566,361.333,130.657,370.999L130.657,370.999z"/>
	</g>
</g>
<g>
	<g>
		<path d="M142.051,375.923c10.92,1.353,21.905,2.532,32.895,1.315c4.06-0.449,7.526-3.006,7.556-7.447
			c0.025-3.722-3.377-8.006-7.447-7.556c-10.989,1.216-21.975,0.037-32.895-1.315c-4.064-0.504-7.531,3.718-7.556,7.447
			C134.574,372.817,137.998,375.421,142.051,375.923L142.051,375.923z"/>
	</g>
</g>
<g>
	<g>
		<path d="M139.42,418.029c10.418,1.233,20.752,1.168,30.942-1.573c9.341-2.513,5.459-17.002-3.882-14.489
			c-8.919,2.399-17.844,2.137-26.952,1.058c-4.066-0.481-7.531,3.702-7.556,7.448C131.943,414.905,135.364,417.548,139.42,418.029
			L139.42,418.029z"/>
	</g>
</g>
<g>
	<g>
		<path d="M168.814,365.736c-0.002,10.552-0.084,21.086-1.316,31.579c-0.478,4.067,3.698,7.531,7.447,7.556
			c4.429,0.03,7.08-3.391,7.556-7.447c1.232-10.494,1.314-21.027,1.316-31.579C183.819,356.158,168.816,356.072,168.814,365.736
			L168.814,365.736z"/>
	</g>
</g>
<g>
	<g>
		<path d="M67.499,294.683c1.195,11.375,1.314,22.785,1.316,34.211c0.001,9.687,15.004,9.772,15.003,0.108
			c-0.001-11.426-0.121-22.836-1.316-34.211c-0.427-4.062-3.022-7.526-7.447-7.556C71.315,287.211,67.07,290.612,67.499,294.683
			L67.499,294.683z"/>
	</g>
</g>
<g>
	<g>
		<path d="M71.25,294.654c13.706,7.379,28.488,10.134,43.849,7.328c9.522-1.74,5.565-16.215-3.882-14.489
			c-11.309,2.066-22.447-0.435-32.467-5.829C70.242,277.083,62.717,290.06,71.25,294.654L71.25,294.654z"/>
	</g>
</g>
<g>
	<g>
		<path d="M68.619,332.812c17.303,10.359,36.5,12.802,56.327,12.849c9.688,0.023,9.771-14.98,0.108-15.003
			c-17.305-0.042-33.804-1.777-48.936-10.836C67.807,314.845,60.32,327.843,68.619,332.812L68.619,332.812z"/>
	</g>
</g>
<g>
	<g>
		<path d="M104.598,305.889c2.706,9.199,6.372,18.122,7.895,27.631c1.529,9.549,16.003,5.571,14.489-3.882
			c-1.523-9.509-5.189-18.433-7.895-27.631C116.361,292.741,101.866,296.601,104.598,305.889L104.598,305.889z"/>
	</g>
</g>
<g>
	<g>
		<path d="M128.282,299.31c2.72,11.934,6.492,23.593,9.21,35.526c2.151,9.442,16.632,5.525,14.489-3.882
			c-2.719-11.934-6.491-23.593-9.21-35.526C140.619,285.986,126.138,289.903,128.282,299.31L128.282,299.31z"/>
	</g>
</g>
<g>
	<g>
		<path d="M138.355,340.707c11.369,8.15,25.548,10.285,39.222,8.901c4.064-0.411,7.527-3.034,7.556-7.447
			c0.025-3.75-3.375-7.968-7.447-7.556c-11.414,1.155-22.305-0.06-31.831-6.888c-3.327-2.385-8.353-0.533-10.245,2.745
			C133.417,334.26,135.036,338.327,138.355,340.707L138.355,340.707z"/>
	</g>
</g>
<g>
	<g>
		<path d="M59.861,233.521c1.358,8.854,3.905,17.462,5.263,26.316c0.621,4.05,5.564,6.274,9.186,5.304
			c4.276-1.146,5.923-5.146,5.304-9.186c-1.358-8.854-3.905-17.462-5.263-26.316c-0.621-4.05-5.564-6.274-9.186-5.304
			C60.889,225.481,59.242,229.481,59.861,233.521L59.861,233.521z"/>
	</g>
</g>
<g>
	<g>
		<path d="M72.314,239.081c16.228,0,32.456,0,48.684,0c9.687,0,9.772-15.003,0.108-15.003c-16.228,0-32.456,0-48.684,0
			C62.736,224.078,62.651,239.081,72.314,239.081L72.314,239.081z"/>
	</g>
</g>
<g>
	<g>
		<path d="M66.441,275.657c11.592,4.096,23.982,4.21,36.137,4.214c9.687,0.003,9.771-15,0.108-15.003
			c-10.949-0.003-21.839,0.01-32.284-3.681C61.254,257.955,57.384,272.457,66.441,275.657L66.441,275.657z"/>
	</g>
</g>
<g>
	<g>
		<path d="M36.177,196.678C52.984,324.561,58.6,453.949,52.342,582.792c-0.746,15.365-1.9,30.71-1.949,46.102
			c-0.031,9.688,14.972,9.77,15.003,0.107c0.052-16.043,1.267-32.046,2.045-48.063c0.782-16.101,1.083-32.249,1.562-48.363
			c0.956-32.106,1.03-64.236,0.399-96.349c-1.271-64.704-5.655-129.342-12.704-193.668c-1.82-16.61-3.856-33.195-6.033-49.762
			c-0.534-4.064-5.628-6.257-9.186-5.304C37.141,188.656,35.645,192.626,36.177,196.678L36.177,196.678z"/>
	</g>
</g>
<g>
	<g>
		<path d="M867.756,336.152c19.775,106.582,5.089,215.542,5.005,323.005c-0.008,9.687,14.996,9.771,15.004,0.107
			c0.085-108.935,14.528-218.942-5.521-326.995C880.479,322.752,866.003,326.707,867.756,336.152L867.756,336.152z"/>
	</g>
</g>
<g>
	<g>
		<path d="M203.554,173.739c0-29.825,0-59.649,0-89.474c0-9.687-15.003-9.772-15.003-0.108c0,29.825,0,59.649,0,89.474
			C188.551,183.317,203.554,183.402,203.554,173.739L203.554,173.739z"/>
	</g>
</g>
<g>
	<g>
		<path d="M196.107,74.078c-57.064,0.044-114.021,3.907-171.053,5.263c-9.668,0.229-9.776,15.233-0.108,15.003
			c57.032-1.356,113.989-5.219,171.053-5.263C205.685,89.073,205.771,74.07,196.107,74.078L196.107,74.078z"/>
	</g>
</g>
<g>
	<g>
		<path d="M25.394,88.104c2.646,37.417,9.103,74.436,11.842,111.842c0.702,9.596,15.709,9.749,15.003,0.108
			c-2.739-37.406-9.195-74.425-11.842-111.842C39.718,78.612,24.711,78.461,25.394,88.104L25.394,88.104z"/>
	</g>
</g>
<g>
	<g>
		<path d="M135.329,125.084c-13.054-6.281-35.287-9.883-42.93,6.22c-3.273,6.897-2.488,14.288,3.002,19.758
			c4.369,4.354,10.639,6.254,16.133,8.689c5.615,2.488,10.428,6.624,13.544,12.794c0.738,1.461,0.625,2.851,0.469,3.543
			c-0.192,0.85-1.495,2.414-1.997,2.771c-3.366,2.395-7.889,3.223-12.466,2.548c-5.995-0.885-11.548-3.954-15.141-8.89
			c-5.631-7.736-18.641-0.238-12.939,7.596c8.96,12.309,22.963,18.247,38.023,15.708c12.719-2.144,22.296-13.467,18.751-26.485
			c-2.05-7.527-8.071-13.87-14.038-18.551c-5.111-4.009-11.396-5.682-17.089-8.65c-1.254-0.654-2.049-1.166-2.699-1.737
			c-0.914-0.803-0.462-0.077-0.731-1.093c0.351,1.324,0.307-0.791,0.67-1.556c0.423-0.892,1.16-1.685,2.125-2.074
			c6.027-2.436,14.221-0.291,19.814,2.4C136.497,142.245,144.06,129.285,135.329,125.084L135.329,125.084z"/>
	</g>
</g>
<g>
	<g>
		<path d="M106.973,110.472c0,33.772,0,67.544,0,101.316c0,9.687,15.003,9.772,15.003,0.108c0-33.772,0-67.544,0-101.316
			C121.976,100.894,106.973,100.809,106.973,110.472L106.973,110.472z"/>
	</g>
</g>
<g>
	<g>
		<path d="M594.287,603.557c-4.391,2.16-8.899,3.706-13.638,4.91c-4.372,1.111-2.517,7.862,1.861,6.75
			c5.321-1.353,10.381-3.191,15.31-5.615C601.871,607.609,598.322,601.573,594.287,603.557L594.287,603.557z"/>
	</g>
</g>
</svg>
