<?xml version="1.0" encoding="utf-8"?>
<!-- Generator: Adobe Illustrator 15.1.0, SVG Export Plug-In . SVG Version: 6.00 Build 0)  -->
<!DOCTYPE svg PUBLIC "-//W3C//DTD SVG 1.1//EN" "http://www.w3.org/Graphics/SVG/1.1/DTD/svg11.dtd">
<svg version="1.1" id="Layer_1" xmlns="http://www.w3.org/2000/svg" xmlns:xlink="http://www.w3.org/1999/xlink" x="0px" y="0px"
	 width="962.337px" height="333.767px" viewBox="0 0 962.337 333.767" enable-background="new 0 0 962.337 333.767"
	 xml:space="preserve">
<g>
	<g>
		<path d="M39.578,46.196c28.306,11.703,59.101,11.468,89.199,10.884c32.322-0.627,64.665,0.092,96.989,0.267
			c32.842,0.178,65.694-0.026,98.503-1.647c32.742-1.618,65.167-5.364,97.595-10.067c63.396-9.194,126.364-23.894,190.775-23.031
			c30.866,0.414,61.6,4.892,90.97,14.492c27.18,8.884,52.952,21.513,79.422,32.226c9.628,3.896,19.378,7.487,29.274,10.643
			c9.246,2.949,13.143-11.542,3.961-14.47c-27.356-8.724-53.286-21.116-79.79-32.037c-27.684-11.408-55.745-19.363-85.471-23.214
			c-63.816-8.268-128.124,3.651-190.926,14.191c-32.021,5.374-64.15,10.489-96.491,13.509c-32.653,3.048-65.467,4.071-98.249,4.372
			c-32.919,0.301-65.839-0.221-98.757-0.406c-15.577-0.087-31.133,0.08-46.708,0.335c-14.93,0.245-30.006,0.248-44.817-1.891
			c-10.828-1.563-21.412-4.446-31.519-8.625c-3.789-1.566-8.234,1.683-9.215,5.255C33.138,41.294,35.808,44.637,39.578,46.196
			L39.578,46.196z"/>
	</g>
</g>
<g>
	<g>
		<path d="M23.924,255.188c9.295,23.426,32.065,29.364,54.615,33.865c15.863,3.166,31.548,6.856,47.53,9.476
			c15.91,2.606,31.915,4.651,47.95,6.312c32.145,3.331,64.462,4.787,96.765,5.354c32.123,0.565,64.445,0.81,96.543-0.726
			c61.206-2.928,121.256-16.256,180.712-30.25c29.611-6.97,59.193-14.08,89.007-20.147c28.932-5.889,58.49-12.233,88.161-10.702
			c57.08,2.946,108.488,33.373,155.458,63.318c8.173,5.211,15.638-7.802,7.5-12.99c-47.346-30.186-97.642-58.752-154.5-64.68
			c-29.585-3.084-58.963,2.566-87.926,8.084c-29.904,5.697-59.543,12.702-89.165,19.698
			c-59.303,14.006-118.866,28.004-179.835,32.128c-31.921,2.159-64.15,1.742-96.127,1.4c-32.327-0.346-64.653-1.643-96.856-4.558
			c-30.21-2.734-60.248-7.139-89.893-13.588c-11.458-2.493-23.272-4.471-34.414-8.187c-9.001-3.002-17.416-8.568-21.036-17.692
			c-1.507-3.799-4.891-6.454-9.186-5.303C25.625,246.968,22.413,251.38,23.924,255.188L23.924,255.188z"/>
	</g>
</g>
<g>
	<g>
		<path d="M287.57,81.136c-6.978,48.043-8.263,97.357-1.309,145.48c0.725,5.013,7.183,6.656,11.042,4.528
			c12.788-7.051,27.926-8.594,42.146-10.851c14.97-2.377,30.129-3.506,45.263-4.163c31.011-1.347,62.074-0.085,93.077,0.876
			c64.419,1.995,128.973,1.043,193.42,1.4c65.422,0.363,130.845,0.778,196.269,0.783c9.686,0,9.771-15.003,0.107-15.004
			c-66.081-0.004-132.162-0.427-198.243-0.794c-64.409-0.357-128.912,0.548-193.294-1.447c-31.629-0.979-63.286-2.131-94.918-0.651
			c-15.853,0.742-31.667,2.305-47.342,4.793c-15.163,2.407-30.453,4.604-44.08,12.118c3.681,1.51,7.362,3.02,11.042,4.528
			c-6.542-45.268-5.274-92.443,1.289-137.636c0.588-4.046-0.957-8.035-5.254-9.215C293.212,74.9,288.158,77.088,287.57,81.136
			L287.57,81.136z"/>
	</g>
</g>
<g>
	<g>
		<path d="M296.049,84.125c131.912-6.288,264.011-6.386,396.04-5.49c85.735,0.582,171.469,1.586,257.208,1.594
			c9.686,0.001,9.771-15.002,0.107-15.003c-132.016-0.012-264.021-2.371-396.038-1.952c-85.763,0.272-171.537,1.764-257.208,5.847
			C286.519,69.581,286.389,84.585,296.049,84.125L296.049,84.125z"/>
	</g>
</g>
<g>
	<g>
		<path d="M288.993,68.09c-19.673-2.855-31.43-21.333-48.88-29.13c-3.729-1.667-8.044-1.067-10.245,2.745
			c-1.885,3.265-0.993,8.575,2.745,10.245c18.792,8.397,31.008,27.503,52.419,30.61c4.046,0.587,8.035-0.957,9.216-5.254
			C295.229,73.732,293.042,68.677,288.993,68.09L288.993,68.09z"/>
	</g>
</g>
<g>
	<g>
		<path d="M286.989,222.176c-19.706-27.529-40.9-54.151-66.13-76.858c-7.159-6.444-17.764,4.172-10.551,10.664
			c24.279,21.854,44.775,47.292,63.741,73.79C279.625,237.561,292.63,230.058,286.989,222.176L286.989,222.176z"/>
	</g>
</g>
<g>
	<g>
		<path d="M221.07,51.894c-0.158,33.813-9.034,66.585-12.987,100.001c-0.481,4.065,3.701,7.53,7.447,7.556
			c4.432,0.029,7.076-3.392,7.556-7.448c3.956-33.434,12.829-66.149,12.987-100C236.118,42.313,221.115,42.232,221.07,51.894
			L221.07,51.894z"/>
	</g>
</g>
<g>
	<g>
		<path d="M234.057,98.647c-0.167,9.162-2.431,18.111-2.597,27.273c-0.177,9.693,14.828,9.762,15.003,0.108
			c0.167-9.162,2.431-18.111,2.597-27.273C249.236,89.062,234.232,88.994,234.057,98.647L234.057,98.647z"/>
	</g>
</g>
<g>
	<g>
		<path d="M240.876,102.04c10.699,3.858,21.865,5.354,33.095,6.761c4.064,0.509,7.531-3.723,7.556-7.448
			c0.03-4.454-3.395-7.048-7.447-7.556c-9.96-1.248-19.764-2.809-29.243-6.227C235.712,84.28,231.848,98.785,240.876,102.04
			L240.876,102.04z"/>
	</g>
</g>
<g>
	<g>
		<path d="M269.388,100.617c-2.532,11.388-5.073,22.792-9.091,33.766c-3.335,9.107,11.172,12.968,14.47,3.961
			c4.019-10.975,6.559-22.378,9.091-33.766C285.955,95.148,271.488,91.172,269.388,100.617L269.388,100.617z"/>
	</g>
</g>
<g>
	<g>
		<path d="M234.383,137.105c6.816,2.222,13.757,3.789,20.779,5.194c9.451,1.891,13.446-12.572,3.961-14.471
			c-7.022-1.405-13.964-2.972-20.779-5.194C229.117,119.627,225.226,134.12,234.383,137.105L234.383,137.105z"/>
	</g>
</g>
<g>
	<g>
		<path d="M311.826,124.756c3.205-4.012,7.515-5.65,12.471-5.404c4.13,0.206,5.375,3.874,4.118,8.665
			c-0.875,3.337-4.474,4.101-8.076,3.491c-5.073-0.858-9.121-3.634-11.271-8.034c-4.247-8.685-17.168-1.053-12.939,7.596
			c8.806,18.008,39.574,22.497,46.757,0.907c3.736-11.23-1.955-22.945-12.981-26.705c-9.712-3.312-22.47,1.081-28.743,8.933
			c-2.546,3.187-3.084,7.506,0.057,10.608C303.895,127.457,309.268,127.958,311.826,124.756L311.826,124.756z"/>
	</g>
</g>
<g>
	<g>
		<path d="M312.236,146.097c1.299,9.155,2.385,18.429,5.195,27.273c2.919,9.188,17.421,5.348,14.489-3.883
			c-2.81-8.844-3.896-18.117-5.195-27.273c-0.576-4.058-5.598-6.265-9.186-5.303C313.23,138.065,311.662,142.05,312.236,146.097
			L312.236,146.097z"/>
	</g>
</g>
<g>
	<g>
		<path d="M317.44,170.747c-3.653,9.427-9.229,18.048-16.28,25.276c-6.747,6.915,3.894,17.492,10.665,10.551
			c8.928-9.15,15.479-19.982,20.084-31.866c1.48-3.82-1.617-8.216-5.254-9.216C322.408,164.325,318.914,166.943,317.44,170.747
			L317.44,170.747z"/>
	</g>
</g>
<g>
	<g>
		<path d="M320.097,182.56c8.685,3.362,16.489,8.405,24.205,13.546c8.064,5.374,15.515-7.649,7.5-12.99
			c-8.863-5.905-17.781-11.169-27.744-15.026c-3.821-1.479-8.216,1.616-9.215,5.255C313.676,177.59,316.293,181.087,320.097,182.56
			L320.097,182.56z"/>
	</g>
</g>
<g>
	<g>
		<path d="M317.564,155.103c-5.664-1.147-11.277-2.495-16.883-3.896c-9.392-2.347-13.345,12.125-3.961,14.471
			c5.606,1.4,11.219,2.748,16.883,3.896c4.007,0.812,8.08-1.12,9.216-5.255C323.847,160.578,321.569,155.914,317.564,155.103
			L317.564,155.103z"/>
	</g>
</g>
<g>
	<g>
		<path d="M479.511,88.257c3.685,35.426,1.346,70.972,1.299,106.494c-0.013,9.687,14.991,9.771,15.004,0.107
			c0.047-35.521,2.386-71.066-1.299-106.493c-0.423-4.063-3.026-7.526-7.448-7.556C483.325,80.785,479.088,84.186,479.511,88.257
			L479.511,88.257z"/>
	</g>
</g>
<g>
	<g>
		<path d="M602.888,84.361c0.155,39.505,10.466,79.436,4.162,118.853c-1.514,9.466,12.945,13.498,14.471,3.961
			c6.551-40.965-3.469-81.686-3.629-122.705C617.854,74.786,602.851,74.696,602.888,84.361L602.888,84.361z"/>
	</g>
</g>
<g>
	<g>
		<path d="M649.352,120.633c-0.821,1.081,1.167-0.996,1.383-1.189c-0.478,0.33-0.328,0.221,0.449-0.327
			c0.718-0.512,1.484-0.954,2.245-1.396c2.198-1.277,4.011-1.882,6.67-2.521c2.037-0.49,3.297-0.491,5.041,0.004
			c-0.392-0.111-0.165-0.128,0.285,0.319c-0.488-0.485-0.055,0.344-0.032,0.626c0.687,8.716-14.288,11.981-16.59,3.988
			c-2.673-9.286-17.167-5.42-14.488,3.882c7.095,24.64,44.873,17.605,46.093-6.735c0.547-10.903-8.438-17.88-18.727-17.353
			c-9.747,0.499-19.437,5.46-25.319,13.202c-2.479,3.261-0.46,8.395,2.745,10.245C642.979,125.614,646.881,123.885,649.352,120.633
			L649.352,120.633z"/>
	</g>
</g>
<g>
	<g>
		<path d="M648.6,140.902c1.189,8.242,2.527,16.461,3.896,24.676c1.59,9.541,16.063,5.569,14.488-3.883
			c-1.368-8.215-2.707-16.433-3.896-24.676c-0.585-4.056-5.59-6.266-9.186-5.303C649.601,132.869,648.016,136.856,648.6,140.902
			L648.6,140.902z"/>
	</g>
</g>
<g>
	<g>
		<path d="M655.942,158.465c-8.571,3.708-16.859,7.857-24.676,12.987c-8.047,5.281-0.515,18.262,7.596,12.939
			c7.816-5.13,16.104-9.279,24.676-12.987c3.759-1.626,4.546-7.07,2.672-10.268C663.956,157.292,659.691,156.843,655.942,158.465
			L655.942,158.465z"/>
	</g>
</g>
<g>
	<g>
		<path d="M659.059,179.963c8.734,1.487,16.201,6.124,24.204,9.649c3.737,1.646,8.036,1.081,10.245-2.745
			c1.877-3.251,1.002-8.595-2.745-10.245c-9.113-4.015-17.797-9.436-27.743-11.13C653.555,163.88,649.532,178.34,659.059,179.963
			L659.059,179.963z"/>
	</g>
</g>
<g>
	<g>
		<path d="M732.369,119.457c1.954-1.282,10.048-5.065,11.342-1.823c1.576,3.95-3.368,8.151-6.346,9.107
			c-3.851,1.236-8.009,0.141-11.479-2.064c-2.824-1.794-4.065-4.572-2.508-7.94c4.03-8.712-8.925-16.289-12.99-7.5
			c-9.983,21.582,14.798,39.44,34.521,30.583c10.115-4.542,17.818-18.209,12.16-28.817c-6.409-12.015-22.337-11.018-32.296-4.486
			C716.725,111.796,724.258,124.777,732.369,119.457L732.369,119.457z"/>
	</g>
</g>
<g>
	<g>
		<path d="M727.829,130.487c-1.314,7.106-1.562,14.2-1.565,21.408c-0.004,9.687,15,9.771,15.004,0.107
			c0.002-5.863-0.038-11.77,1.032-17.555c0.743-4.02-1.07-8.065-5.255-9.215C733.355,124.219,728.573,126.468,727.829,130.487
			L727.829,130.487z"/>
	</g>
</g>
<g>
	<g>
		<path d="M704.187,159.687c0.109,7.25,1.439,14.386,2.854,21.476c1.895,9.496,16.371,5.554,14.488-3.883
			c-1.159-5.811-2.25-11.543-2.339-17.485C719.045,150.118,704.042,150.019,704.187,159.687L704.187,159.687z"/>
	</g>
</g>
<g>
	<g>
		<path d="M716.227,172.179c58.628-14.014,119.259,1.254,178.524-6.235c4.053-0.513,7.525-2.959,7.556-7.448
			c0.024-3.673-3.384-8.069-7.448-7.556c-60.672,7.668-122.415-7.615-182.515,6.751
			C702.927,159.941,706.834,174.424,716.227,172.179L716.227,172.179z"/>
	</g>
</g>
<g>
	<g>
		<path d="M798.703,125.828c2.285-4.73,6.988-7.437,12.167-8.519c4.049-0.846,6.693,1.45,6.905,5.759
			c0.064,1.301-0.139,1.221-1.05,1.83c-1.673,1.118-3.768,1.483-6.111,1.547c-4.722,0.13-9.64-1.662-11.937-5.568
			c-4.896-8.327-17.852-0.758-12.939,7.596c5.394,9.172,16.248,13.572,26.613,12.89c10.392-0.685,20.082-6.982,20.428-18.188
			c0.368-11.932-9.399-21.102-20.962-20.938c-10.293,0.145-21.588,6.738-26.104,16.09
			C781.528,126.99,794.489,134.553,798.703,125.828L798.703,125.828z"/>
	</g>
</g>
<g>
	<g>
		<path d="M801.589,137.608c0,4.329,0,8.658,0,12.987c0,4.085,3.342,7.528,7.448,7.556c4.065,0.026,7.556-3.361,7.556-7.448
			c0-4.329,0-8.658,0-12.987c0-4.086-3.342-7.528-7.448-7.556C805.079,130.133,801.589,133.522,801.589,137.608L801.589,137.608z"/>
	</g>
</g>
<g>
	<g>
		<path d="M849.993,120.231c1.229-0.444,3.647-1.345,4.646-0.927c1.303,0.546,1.536,0.93,1.896,2.117
			c0.977,3.23-2.147,6.324-4.716,7.643c-1.831,0.94-4.824,0.676-6.839-0.539c1.146,0.691-0.487-0.539-0.635-0.695
			c0.354,0.377,0.169,0.204-0.01-0.415c0.39,1.351,0.054-1.418-0.015-1.026c0.201-1.149,0.615-2.132,1.136-3.159
			c4.359-8.6-8.608-16.145-12.99-7.5c-4.03,7.951-4.773,18.077,2.896,24.212c7.06,5.646,16.067,5.626,24.052,2.062
			c9.122-4.072,13.639-15.066,11.609-24.464c-2.426-11.235-15.054-15.359-24.912-11.797c-3.843,1.389-6.429,4.983-5.303,9.186
			C841.798,118.623,846.143,121.623,849.993,120.231L849.993,120.231z"/>
	</g>
</g>
<g>
	<g>
		<path d="M847.043,136.31c0,6.926,0,13.853,0,20.779c0,9.686,15.004,9.771,15.004,0.107c0-6.926,0-13.853,0-20.779
			C862.047,126.731,847.043,126.646,847.043,136.31L847.043,136.31z"/>
	</g>
</g>
<g>
	<g>
		<path d="M251.894,165.943c9.687,0,9.772-15.004,0.108-15.004C242.315,150.939,242.23,165.943,251.894,165.943L251.894,165.943z"/>
	</g>
</g>
<g>
	<g>
		<path d="M242.24,148.608c-26.143-4.181-51.375-12.275-76.901-19.076c-12.918-3.442-25.952-6.435-39.166-8.494
			c-14.264-2.223-28.537-3.04-42.375-7.494c-9.238-2.973-13.132,11.519-3.961,14.471c13.239,4.261,26.872,5.295,40.554,7.224
			c13.246,1.866,26.302,4.93,39.234,8.302c26.154,6.82,51.901,15.261,78.653,19.539C247.745,164.593,251.777,150.134,242.24,148.608
			L242.24,148.608z"/>
	</g>
</g>
<g>
	<g>
		<path d="M241.656,157.167c-50.438,33.791-109.871,47.394-165.675,69.355c-3.803,1.496-6.452,4.899-5.304,9.186
			c0.968,3.61,5.373,6.804,9.186,5.303c57.009-22.436,117.863-36.384,169.389-70.904
			C257.241,164.754,249.715,151.768,241.656,157.167L241.656,157.167z"/>
	</g>
</g>
<g>
	<g>
		<path d="M66.135,164.911c3.783-2.378,7.905-4.116,11.688-6.493c8.191-5.147,0.935-17.514-7.596-12.939
			c-4.708,2.524-8.628,6.053-12.987,9.091c-7.085,4.939-2.676,15.19,5.739,13.714c7.872-1.381,15.558-3.573,23.377-5.195
			c-1.913-4.571-3.826-9.143-5.739-13.714c-9.226,6.523-18.987,12.214-28.572,18.183c-8.193,5.103-0.853,17.701,7.596,12.939
			c8.573-4.832,17.517-8.739,26.715-12.213c-1.913-4.571-3.826-9.143-5.739-13.714c-6.654,4.089-12.826,8.897-19.48,12.987
			c-7.214,4.435-2.539,15.844,5.739,13.714c10.901-2.805,21.379-6.769,31.727-11.164c-2.532-4.313-5.064-8.626-7.596-12.939
			c-11.967,9.081-26.094,14.481-38.961,22.077c-7.208,4.255-2.476,16.216,5.739,13.714c13.101-3.989,25.861-8.996,38.961-12.986
			c-2.424-4.173-4.849-8.347-7.273-12.52c-8.362,7.002-18.138,12.032-27.037,18.286c-7.79,5.475-0.79,18.031,7.596,12.939
			c10.978-6.666,23.352-10.46,35.065-15.585c-2.532-4.313-5.064-8.626-7.596-12.939c-8.754,3.862-16.733,8.994-24.675,14.286
			c-5.874,3.914-4.081,14.184,3.744,13.972c11.824-0.321,22.306-5.209,33.164-9.349c-1.913-4.571-3.826-9.143-5.739-13.714
			c-13.003,7.721-26.738,14.043-40.26,20.779c-7.524,3.749-2.211,16.646,5.739,13.714c13.502-4.978,26.49-11.341,40.26-15.585
			c-1.913-4.571-3.826-9.143-5.739-13.714c-17.113,7.836-34.834,14.242-51.948,22.078c-7.847,3.593-2.228,15.888,5.739,13.714
			c15.234-4.156,30.27-8.603,44.714-15.061c7.702-3.444,2.161-16.649-5.739-13.714c-4.011,1.49-7.694,3.711-11.688,5.195
			c-8.986,3.339-5.187,17.858,3.882,14.488c4.011-1.49,7.694-3.711,11.688-5.195c-1.913-4.571-3.826-9.143-5.739-13.714
			c-13.174,5.891-27.112,9.722-41,13.512c1.913,4.571,3.826,9.143,5.739,13.714c17.113-7.836,34.834-14.242,51.948-22.078
			c7.76-3.553,2.238-16.173-5.739-13.714c-13.77,4.243-26.758,10.606-40.26,15.585c1.913,4.571,3.826,9.143,5.739,13.714
			c13.521-6.736,27.256-13.059,40.26-20.779c7.065-4.195,2.364-16.804-5.739-13.714c-9.382,3.576-18.957,8.556-29.174,8.833
			c1.248,4.657,2.496,9.314,3.744,13.972c7.941-5.292,15.921-10.424,24.675-14.286c3.746-1.653,4.557-7.051,2.672-10.268
			c-2.248-3.834-6.525-4.31-10.268-2.672c-11.723,5.13-24.071,8.909-35.065,15.585c2.532,4.313,5.064,8.626,7.596,12.939
			c9.991-7.021,20.708-12.805,30.106-20.675c5.808-4.863-0.417-14.608-7.273-12.52c-13.101,3.989-25.861,8.996-38.961,12.986
			c1.913,4.571,3.826,9.143,5.739,13.714c12.867-7.596,26.994-12.996,38.961-22.077c7.768-5.895,1.322-16.728-7.596-12.939
			c-9.099,3.865-18.437,7.151-28.013,9.615c1.913,4.571,3.826,9.143,5.739,13.714c6.654-4.09,12.826-8.898,19.48-12.987
			c6.958-4.275,2.425-16.798-5.739-13.714c-10.437,3.941-20.699,8.278-30.429,13.762c2.532,4.313,5.064,8.626,7.596,12.939
			c9.584-5.969,19.345-11.66,28.572-18.183c6.898-4.877,2.777-15.48-5.739-13.714c-7.82,1.621-15.506,3.813-23.377,5.195
			c1.913,4.571,3.826,9.143,5.739,13.714c4.362-3.04,8.276-6.565,12.987-9.091c-2.532-4.313-5.064-8.626-7.596-12.939
			c-3.784,2.378-7.905,4.115-11.688,6.493C50.376,157.103,57.923,170.072,66.135,164.911L66.135,164.911z"/>
	</g>
</g>
<g>
	<g>
		<path d="M115.486,190.885c4.362-3.04,8.276-6.564,12.987-9.091c7.543-4.046,2.351-15.932-5.739-13.714
			c-14.196,3.891-28.613,8.638-43.459,8.833c1.759,4.26,3.519,8.519,5.278,12.777c9.372-10.3,23.063-15.23,34.829-22.182
			c7.139-4.218,2.444-16.474-5.739-13.714c-6.878,2.319-13.667,4.964-20.779,6.493c1.294,4.829,2.588,9.659,3.882,14.488
			c8.357-2.884,16.33-6.666,23.935-11.164c8.32-4.922,0.83-17.712-7.596-12.939c-5.084,2.881-11.02,6.725-16.981,7.098
			c-5.166,0.322-8.079-5.104-10.413-9.62c-4.441-8.591-17.372-0.978-12.939,7.596c4.327,8.369,10.63,15.715,20.471,16.876
			c9.705,1.146,19.347-4.415,27.458-9.01c-2.532-4.313-5.064-8.626-7.596-12.939c-6.458,3.819-13.121,7.165-20.221,9.615
			c-9.109,3.143-5.626,16.532,3.882,14.488c7.112-1.528,13.901-4.174,20.779-6.493c-1.913-4.571-3.826-9.143-5.739-13.714
			c-12.949,7.65-27.566,13.215-37.898,24.57c-4.229,4.648-1.471,12.866,5.278,12.777c16.23-0.214,31.931-5.095,47.45-9.349
			c-1.913-4.571-3.826-9.143-5.739-13.714c-4.708,2.525-8.628,6.053-12.987,9.091C100.018,183.432,107.53,196.429,115.486,190.885
			L115.486,190.885z"/>
	</g>
</g>
<g>
	<g>
		<path d="M415.027,124.058c1.803-4.403,20.462-21.214,23.28-10.893c-0.08-0.293,0.018,0.244-0.123,0.799
			c0.306-0.561,0.245-0.442-0.182,0.358c-0.872,1.655,0.515-0.391-0.802,1.029c-1.527,1.647-3.736,2.626-6.013,3.346
			c-4.973,1.572-10.191,1.292-12.926-1.953c-6.229-7.393-16.745,3.314-10.552,10.665c13.455,15.968,49.247,4.297,45.086-18.127
			c-2.354-12.687-16.585-16.428-27.196-12.497c-10.721,3.971-20.681,12.66-25.044,23.311c-1.553,3.793,1.673,8.231,5.255,9.215
			C410.115,130.495,413.481,127.833,415.027,124.058L415.027,124.058z"/>
	</g>
</g>
<g>
	<g>
		<path d="M417.174,127.218c0,10.39,0,20.78,0,31.169c0,9.686,15.003,9.771,15.003,0.107c0-10.39,0-20.779,0-31.168
			C432.177,117.64,417.174,117.555,417.174,127.218L417.174,127.218z"/>
	</g>
</g>
<g>
	<g>
		<path d="M419.343,154.465c-5.415,6.679-11.469,12.802-16.883,19.48c-2.569,3.169-3.069,7.521,0.057,10.608
			c2.692,2.658,8.028,3.125,10.608-0.058c5.415-6.679,11.469-12.802,16.883-19.48c2.569-3.169,3.069-7.521-0.057-10.608
			C427.258,151.749,421.923,151.282,419.343,154.465L419.343,154.465z"/>
	</g>
</g>
<g>
	<g>
		<path d="M422.224,164.937c8.29,5.922,16.588,11.83,24.449,18.318c7.392,6.1,18.029-4.494,10.551-10.666
			c-8.845-7.299-18.173-13.979-27.5-20.643c-3.331-2.379-8.35-0.537-10.245,2.745C417.288,158.486,418.9,162.562,422.224,164.937
			L422.224,164.937z"/>
	</g>
</g>
</svg>
