<?xml version="1.0" encoding="utf-8"?>
<!-- Generator: Adobe Illustrator 15.1.0, SVG Export Plug-In . SVG Version: 6.00 Build 0)  -->
<!DOCTYPE svg PUBLIC "-//W3C//DTD SVG 1.1//EN" "http://www.w3.org/Graphics/SVG/1.1/DTD/svg11.dtd">
<svg version="1.1" id="Layer_1" xmlns="http://www.w3.org/2000/svg" xmlns:xlink="http://www.w3.org/1999/xlink" x="0px" y="0px"
	 width="1250.65px" height="906.494px" viewBox="0 0 1250.65 906.494" enable-background="new 0 0 1250.65 906.494"
	 xml:space="preserve">
<g>
	<g>
		<path d="M595.915,525.375c3.773,7.105,6.752,15.215,4.752,22.872c-1.595,6.107-6.502,11.065-11.413,15.606
			c-12.75,11.789-27.197,21.485-35.136,37.519c-4.274,8.632,8.69,16.185,12.99,7.5c8.193-16.545,24.465-25.591,36.906-38.458
			c5.781-5.979,10.554-13.343,11.843-21.682c1.693-10.954-1.913-21.367-7.003-30.952
			C604.318,509.237,591.384,516.841,595.915,525.375L595.915,525.375z"/>
	</g>
</g>
<g>
	<g>
		<path d="M664.458,524.274c-1.135-0.635-1.873-1.539-2.215-2.713c0.174,0.792,0.177,0.704,0.01-0.262
			c0.08,0.971-0.031,1.963-0.125,2.928c-0.158,1.618-1.131,5.333-1.727,7.668c-1.684,6.61-3.67,13.153-4.705,19.909
			c-2.131,13.894,3.892,26.552,13.198,36.679c19.085,20.764,49.202,25.236,69.987,43.488c7.229,6.349,17.844-4.262,10.551-10.664
			c-21.078-18.51-51.596-23.48-70.75-44.319c-4.064-4.422-6.768-9.809-8.294-15.58c-1.022-3.867,0.593-10.486,1.84-15.493
			c2.505-10.043,10.292-26.925-0.271-34.63c-3.309-2.413-8.365-0.511-10.245,2.745C659.507,517.849,661.158,521.867,664.458,524.274
			L664.458,524.274z"/>
	</g>
</g>
<g>
	<g>
		<path d="M543.057,627.858c0.269-0.504,0.553-0.977,0.873-1.45c-1.03,1.522-0.006,0.171,0.302-0.127
			c1.33-1.284-1.325,0.872,0.244-0.147c0.482-0.312,1.004-0.56,1.521-0.808c-1.726,0.826,1.551-0.34,2.232-0.478
			c2.097-0.422-1.571,0.115,0.628-0.076c0.928-0.081,1.861-0.079,2.792-0.07c5.383,0.049,11.881,2.057,17.073,4.616
			c2.553,1.259,6.154,3.471,7.738,4.706c1.292,1.007,2.501,2.113,3.671,3.258c1.25,1.221,2.454,2.705,2.851,3.266
			c2.107,2.963,2.364,3.586,3.106,6.854c0.506,2.227-0.051-1.417,0.123,0.865c0.056,0.729,0.027,1.459-0.002,2.188
			c-0.09,2.267,0.306-1.233-0.145,1.043c-0.205,1.032-0.55,2.031-0.908,3.017c-2.601,7.162-12.653,13.362-19.59,17.297
			c-9.207,5.223-21.235,9.435-31.094,3.631c-6.023-3.545-8.517-10.65-10.308-17.817c-1.548-6.194-2.09-14.567,0.04-19.329
			c1.033-2.31,1.53-2.822,3.277-3.816c0.31-0.176,1.422-0.491,1.608-0.512c1.624-0.185,3.273-0.023,4.886,0.174
			c4.065,0.496,7.531-3.713,7.556-7.448c0.03-4.444-3.393-7.062-7.447-7.556c-19.664-2.402-27.535,16.035-25.981,32.736
			c1.768,19.004,11.525,38.784,32.561,41.143c12.399,1.39,24.649-3.6,35.126-9.787c8.639-5.104,17.246-11.691,22.07-20.696
			c7.644-14.267,0.899-29.679-10.849-39.174c-9.106-7.361-20-11.875-31.577-13.394c-9.45-1.24-20.567,1.387-25.367,10.393
			C525.523,628.882,538.498,636.41,543.057,627.858L543.057,627.858z"/>
	</g>
</g>
<g>
	<g>
		<path d="M734.937,640.013c0.639-2.027-0.668,1.029,0.43-0.854c-0.633,1.085,0.721-0.793,0.791-0.866
			c1.109-1.148,1.873-1.508,3.457-2.416c3.748-2.148,8.043-3.242,12.225-4.178c7.896-1.768,16.885-2.428,24.723-0.417
			c2.941,0.755,5.561,2.649,8.242,5.688c2.273,2.574,3.361,6.547,3.672,9.873c0.836,8.974-2.275,17.983-6.447,25.785
			c-3.969,7.422-9.299,13.828-16.557,18.166c-3.1,1.852-5.033,2.6-8.592,3.334c-1.686,0.346-4.092,0.196-6.395-0.49
			c-1.252-0.373-3.529-1.791-4.539-2.68c-2.719-2.386-2.951-2.914-4.797-6.08c-2.531-4.342-4.422-11.244-4.906-16.018
			c-0.789-7.78,0.129-15.814,2.756-21.693c1.705-3.818,2.918-5.468,5.422-7.906c1.281-1.25,0.344-0.428,1.197-1.053
			c0.771-0.562,1.596-1.041,2.426-1.506c1.271-0.713,1.947-0.964,4.385-1.552c9.41-2.272,5.506-16.757-3.885-14.489
			c-30.111,7.275-32.906,48.243-20.688,71.176c6.713,12.6,19.521,19.537,33.662,16.623c18.48-3.809,31.016-21.148,37.729-37.506
			c8.48-20.658,4.283-49.652-21.287-54.723c-10.898-2.161-22.648-0.979-33.322,1.777c-9.812,2.533-20.889,7.647-24.172,18.043
			C717.542,645.306,732.033,649.203,734.937,640.013L734.937,640.013z"/>
	</g>
</g>
<g>
	<g>
		<path d="M505.01,653.167c0.139,33.33,7.653,65.7,14.181,98.197c1.907,9.494,16.384,5.555,14.489-3.883
			c-6.27-31.211-13.533-62.194-13.667-94.206C519.973,643.593,504.969,643.503,505.01,653.167L505.01,653.167z"/>
	</g>
</g>
<g>
	<g>
		<path d="M583.491,651.902c0.122,23.394,5.646,46.468,2.77,69.922c-1.088,8.874-4.325,18.937-12.011,24.206
			c-11.959,8.203-29.862,6.129-43.302,3.754c-9.463-1.672-13.479,12.789-3.961,14.471c17.287,3.055,36.114,4.334,52.265-3.756
			c11.53-5.775,17.891-18.039,20.628-30.113c5.894-25.994-1.25-52.262-1.386-78.375C598.444,642.326,583.44,642.237,583.491,651.902
			L583.491,651.902z"/>
	</g>
</g>
<g>
	<g>
		<path d="M716.402,654.433c-0.076,30.012-6.162,60.678,1.037,90.334c3.305,13.619,10.779,25.717,24.299,30.836
			c7.244,2.744,15.426,2.18,22.885,0.855c8.979-1.598,18.174-4.828,24.871-11.193c12.375-11.762,12.988-31.779,12.336-47.609
			c-0.73-17.714-4.502-35.248-4.602-52.984c-0.055-9.684-15.059-9.775-15.004-0.109c0.105,18.932,4.209,37.638,4.725,56.568
			c0.238,8.785-0.219,17.631-3.217,25.963c-2.527,7.025-7.654,10.459-14.562,12.717c-6.881,2.248-14.688,3.537-20.697,2.16
			c-4.91-1.123-8.488-4.039-10.893-7.521c-3.721-5.389-4.959-9.99-6.393-16.834c-1.459-6.973-1.889-13.979-2.084-21.55
			c-0.531-20.558,2.25-40.987,2.303-61.521C731.431,644.854,716.427,644.771,716.402,654.433L716.402,654.433z"/>
	</g>
</g>
<g>
	<g>
		<path d="M538.503,656.669c3.242-0.98,6.715-1.312,10.071-1.648c2.553-0.256,5.116-0.4,7.682-0.441
			c0.936-0.016,1.869,0.021,2.803,0.069c0.986,0.09,1.091,0.092,0.314,0.006c1.364,0.396,0.863,0.007-1.503-1.162
			c0.4,0.308,0.631,1.546,0.328,0.574c-0.233-0.746-0.084-1.663,0.44-2.255c-0.593,0.668-1.475,0.875-3.106,1.314
			c-1.787,0.48-3.253,0.469-5.327,0.348c-0.879-0.051-2.748-1.155-2.037-0.521c-7.178-6.418-17.786,4.197-10.552,10.665
			c9.719,8.689,36.167,5.977,35.456-10.723c-0.41-9.612-8.291-13.301-16.708-13.32c-7.035-0.016-14.98,0.561-21.743,2.605
			C525.38,644.972,529.234,659.47,538.503,656.669L538.503,656.669z"/>
	</g>
</g>
<g>
	<g>
		<path d="M752.964,663.255c1.016,0.002,2.023,0.019,3.037,0.082c-1.48-0.092,1.834,0.617,0.861,0.178
			c-0.916-3.416-1.83-6.83-2.746-10.246c-0.174,0.438-0.367,0.867-0.582,1.285c-0.199,0.41-1.371,1.849-0.131,0.381
			c-1.078,1.277,1.396-0.832,0.078-0.027c1.6-0.975,1.035-0.379,0.23-0.178c-1.561,0.391,1.863-0.137,0.203-0.055
			c-0.482,0.024-0.971,0.008-1.453-0.002c-1.062-0.022-2.125-0.082-3.188-0.091c-4.086-0.034-7.529,3.368-7.557,7.448
			c-0.027,4.092,3.361,7.521,7.447,7.557c2.992,0.024,5.898,0.266,8.852-0.473c4.209-1.055,7.436-4.459,9.09-8.344
			c1.471-3.453,1.297-8.42-2.744-10.245c-3.693-1.668-7.252-2.267-11.291-2.272c-4.086-0.006-7.529,3.348-7.557,7.448
			C745.49,659.771,748.878,663.248,752.964,663.255L752.964,663.255z"/>
	</g>
</g>
<g>
	<g>
		<path d="M446.328,583.05c1.586-4.891,5.433-7.164,9.221-7.582c5.291-0.583,10.893,1.017,14.643,3.979
			c4.272,3.374,6.665,7.702,5.799,13.215c-0.538,3.425-1.186,4.922-2.603,6.715c-2.114,2.674-4.742,5.113-7.432,7.197
			c-6.554,5.078-14.047,9.328-21.919,11.956c-5.941,1.982-11.137,3.277-15.334-1.203c-4.191-4.473-3.042-14.116-2.404-19.838
			c0.785-7.036,2.817-14.002,4.839-20.768c2.779-9.295-11.706-13.208-14.47-3.961c-4.712,15.763-11.061,38.309-0.314,52.967
			c12.826,17.498,36.844,6.984,51.44-2.199c7.503-4.723,15.193-10.715,19.74-18.479c4.535-7.742,4.526-17.936,1.018-25.991
			c-6.36-14.604-25.563-22.266-40.425-17.104c-8.1,2.814-13.653,9.065-16.269,17.134
			C428.865,588.321,443.358,592.213,446.328,583.05L446.328,583.05z"/>
	</g>
</g>
<g>
	<g>
		<path d="M429.06,630.384c-1.161,12.209-1.265,24.453-1.266,36.707c-0.001,9.688,15.002,9.772,15.003,0.108
			c0.001-12.255,0.105-24.499,1.266-36.708C444.981,620.841,429.967,620.843,429.06,630.384L429.06,630.384z"/>
	</g>
</g>
<g>
	<g>
		<path d="M438.503,671.859c26.594-5,51.779-17.25,79.018-18.729c9.629-0.523,9.765-15.529,0.108-15.004
			c-28.744,1.562-54.994,13.979-83.008,19.244C425.107,659.158,429.059,673.634,438.503,671.859L438.503,671.859z"/>
	</g>
</g>
<g>
	<g>
		<path d="M427.647,678.445c37.089,3.753,74.026,10.017,111.393,10.127c9.688,0.028,9.771-14.976,0.108-15.004
			c-37.367-0.11-74.304-6.374-111.393-10.126C418.114,662.466,418.12,677.481,427.647,678.445L427.647,678.445z"/>
	</g>
</g>
<g>
	<g>
		<path d="M417.668,669.623c0,54.431,0,108.86,0,163.292c0,9.686,15.003,9.771,15.003,0.107c0-54.43,0-108.86,0-163.291
			C432.671,660.046,417.668,659.96,417.668,669.623L417.668,669.623z"/>
	</g>
</g>
<g>
	<g>
		<path d="M418.888,840.729c15.997,8.789,29.24,21.477,44.304,31.646c8.031,5.422,15.477-7.605,7.5-12.99
			c-15.065-10.172-28.3-22.854-44.304-31.646C417.914,823.083,410.397,836.063,418.888,840.729L418.888,840.729z"/>
	</g>
</g>
<g>
	<g>
		<path d="M413.611,820.358c-9.618,15.281-17.015,31.795-23.524,48.604c-1.48,3.82,1.616,8.217,5.254,9.217
			c4.247,1.166,7.742-1.451,9.215-5.256c6.05-15.621,13.111-30.869,22.045-45.064C431.763,819.655,418.754,812.185,413.611,820.358
			L413.611,820.358z"/>
	</g>
</g>
<g>
	<g>
		<path d="M821.279,569.731c0.049-1.262,0.088-1.055,0.633-1.947c-0.057,0.094,1.281-0.903,2.471-1.521
			c2.145-1.113,6.078-1.663,8.977-1.883c6.686-0.509,14.59-0.516,20.768,2.168c17.354,7.54,17.002,30.354,11.459,45.416
			c-1.166,3.166-3.068,6.014-5.502,8.314c-1.299,1.229-3.889,2.172-4.865,2.271c-5.326,0.539-10.738-2.205-15.428-6.08
			c-9.795-8.096-18.441-22.467-14.979-34.686c2.645-9.33-11.836-13.255-14.471-3.961c-4.871,17.19,4.535,35.562,16.697,47.339
			c12.062,11.681,30.789,17.882,44.367,5.045c7.594-7.18,10.83-18.696,12.117-28.716c1.393-10.833-0.105-21.707-4.982-31.518
			c-9.561-19.24-32.158-22.554-51.354-19.883c-10.676,1.485-20.463,7.951-20.91,19.532
			C805.902,579.315,820.908,579.365,821.279,569.731L821.279,569.731z"/>
	</g>
</g>
<g>
	<g>
		<path d="M839.187,629.116c-0.055,45.42-3.719,91.141,4.055,136.174c1.646,9.533,16.121,5.566,14.488-3.885
			c-7.523-43.596-3.592-88.207-3.539-132.182C854.201,619.538,839.199,619.453,839.187,629.116L839.187,629.116z"/>
	</g>
</g>
<g>
	<g>
		<path d="M843.886,761.87c-8.244,6.994-17.068,13.258-25.314,20.254c-7.373,6.254,3.332,16.771,10.666,10.551
			c8.244-6.994,17.07-13.258,25.314-20.254C861.925,766.167,851.22,755.649,843.886,761.87L843.886,761.87z"/>
	</g>
</g>
<g>
	<g>
		<path d="M847.742,773.743c17.516,19.928,37.018,38.176,53.236,59.227c2.494,3.234,6.402,4.936,10.268,2.672
			c3.191-1.871,5.172-7.021,2.672-10.268c-17.037-22.111-37.229-41.367-55.625-62.295
			C851.908,755.813,841.378,766.505,847.742,773.743L847.742,773.743z"/>
	</g>
</g>
<g>
	<g>
		<path d="M836.515,651.79c-16.102-7.667-28.506-20.979-44.305-29.113c-8.578-4.418-16.117,8.553-7.5,12.989
			c15.799,8.136,28.203,21.447,44.305,29.114C837.695,668.914,845.261,655.955,836.515,651.79L836.515,651.79z"/>
	</g>
</g>
<g>
	<g>
		<path d="M839.148,654.58c-21.121-1.077-41.312,7.737-59.549,17.488c-8.527,4.562-0.928,17.496,7.596,12.938
			c15.943-8.524,33.369-16.367,51.846-15.422C848.728,670.078,848.767,655.072,839.148,654.58L839.148,654.58z"/>
	</g>
</g>
<g>
	<g>
		<path d="M527.795,692.408c-0.443,10.998,0.573,21.886,3.52,32.507c2.856,10.295,7.251,20.133,10.661,30.25
			c3.075,9.117,17.583,5.293,14.489-3.885c-3.13-9.281-6.934-18.328-9.893-27.669c-3.229-10.187-4.203-20.442-3.774-31.095
			C543.188,682.824,528.182,682.776,527.795,692.408L527.795,692.408z"/>
	</g>
</g>
<g>
	<g>
		<path d="M552.102,685.542c2.829,21.184,11.128,41.104,15.19,62.025c1.846,9.504,16.322,5.559,14.489-3.883
			c-4.062-20.922-12.361-40.842-15.19-62.024c-0.543-4.063-5.622-6.258-9.186-5.304
			C553.072,677.519,551.561,681.491,552.102,685.542L552.102,685.542z"/>
	</g>
</g>
<g>
	<g>
		<path d="M493.617,394.939c0.037,43.896,2.495,87.749,2.532,131.646c0.008,9.686,15.011,9.772,15.003,0.108
			c-0.037-43.896-2.495-87.749-2.532-131.646C508.613,385.362,493.609,385.276,493.617,394.939L493.617,394.939z"/>
	</g>
</g>
<g>
	<g>
		<path d="M503.596,536.672c58.855,0,117.71,0,176.565,0c29.596,0,59.193,0,88.789,0c14.453,0,28.908,0,43.361,0
			c14.596,0,29.504-1.398,43.789,2.265c9.381,2.407,13.326-12.067,3.961-14.47c-13.756-3.528-27.736-2.949-41.801-2.806
			c-15.084,0.154-30.178,0.007-45.262,0.007c-29.594,0-59.188,0-88.781,0c-60.171,0-120.342,0-180.514,0
			C494.018,521.669,493.933,536.672,503.596,536.672L503.596,536.672z"/>
	</g>
</g>
<g>
	<g>
		<path d="M501.065,396.167c118.993,0.014,237.969,2.518,356.961,2.532c9.686,0.001,9.771-15.002,0.107-15.003
			c-118.992-0.014-237.969-2.518-356.961-2.532C491.487,381.161,491.401,396.165,501.065,396.167L501.065,396.167z"/>
	</g>
</g>
<g>
	<g>
		<path d="M853.111,394.939c0.074,44.362,4.988,88.55,5.062,132.912c0.018,9.686,15.02,9.772,15.004,0.108
			c-0.074-44.362-4.988-88.55-5.062-132.912C868.097,385.362,853.093,385.275,853.111,394.939L853.111,394.939z"/>
	</g>
</g>
<g>
	<g>
		<path d="M501.065,439.204c117.722,0,235.444,0,353.167,0c9.686,0,9.77-15.003,0.105-15.003c-117.721,0-235.442,0-353.164,0
			C491.487,424.201,491.401,439.204,501.065,439.204L501.065,439.204z"/>
	</g>
</g>
<g>
	<g>
		<path d="M494.736,489.837c121.172,1.174,242.111-13.854,363.292-7.595c9.688,0.5,9.725-14.506,0.105-15.003
			c-121.18-6.26-242.118,8.768-363.29,7.595C485.153,474.74,485.077,489.743,494.736,489.837L494.736,489.837z"/>
	</g>
</g>
<g>
	<g>
		<path d="M527.795,418.99c0,9.705,0,19.409,0,29.114c0,9.688,15.003,9.772,15.003,0.108c0-9.705,0-19.409,0-29.114
			C542.798,409.412,527.795,409.326,527.795,418.99L527.795,418.99z"/>
	</g>
</g>
<g>
	<g>
		<path d="M566.036,415.798c-4.033,10.252-2.863,21.541-2.798,32.306c0.058,9.683,15.061,9.774,15.003,0.108
			c-0.057-9.517-1.298-19.395,2.265-28.453c1.5-3.813-1.632-8.22-5.254-9.215C570.989,409.372,567.529,412.002,566.036,415.798
			L566.036,415.798z"/>
	</g>
</g>
<g>
	<g>
		<path d="M613.87,416.458c-1.208,9.67-2.447,19.355-2.531,29.114c-0.084,9.69,14.919,9.768,15.003,0.108
			c0.085-9.759,1.324-19.444,2.531-29.114c0.507-4.064-3.721-7.531-7.447-7.556C616.974,408.981,614.376,412.405,613.87,416.458
			L613.87,416.458z"/>
	</g>
</g>
<g>
	<g>
		<path d="M654.377,462.028c0,9.705,0,19.409,0,29.114c0,9.687,15.004,9.772,15.004,0.108c0-9.705,0-19.409,0-29.114
			C669.381,452.45,654.377,452.365,654.377,462.028L654.377,462.028z"/>
	</g>
</g>
<g>
	<g>
		<path d="M691.085,463.294c-1.26,10.082,0.219,20.449,4.055,29.843c1.545,3.784,4.861,6.462,9.186,5.304
			c3.572-0.958,6.854-5.391,5.303-9.186c-3.418-8.369-4.662-16.873-3.539-25.853c0.508-4.064-3.721-7.531-7.447-7.556
			C694.189,455.817,691.591,459.24,691.085,463.294L691.085,463.294z"/>
	</g>
</g>
<g>
	<g>
		<path d="M719.201,418.329c-2.771,11.784-2.803,24.071,1.256,35.567c3.199,9.06,17.713,5.246,14.488-3.882
			c-3.205-9.081-3.473-18.374-1.273-27.725C735.884,412.877,721.416,408.911,719.201,418.329L719.201,418.329z"/>
	</g>
</g>
<g>
	<g>
		<path d="M770.832,463.294c0,9.705,0,19.41,0,29.114c0,9.687,15.004,9.772,15.004,0.108c0-9.705,0-19.41,0-29.114
			C785.835,453.716,770.832,453.63,770.832,463.294L770.832,463.294z"/>
	</g>
</g>
<g>
	<g>
		<path d="M735.39,700.003c-1.314,17.146-2.416,34.289,0.258,51.363c0.633,4.047,5.555,6.275,9.186,5.303
			c4.268-1.143,5.936-5.146,5.303-9.186c-2.443-15.604-0.941-31.723,0.258-47.372C751.134,690.441,736.123,690.427,735.39,700.003
			L735.39,700.003z"/>
	</g>
</g>
<g>
	<g>
		<path d="M760.964,704.53c1.953,9.859,5.5,19.302,8.088,28.996c2.533,9.488,4.029,19.688-1.01,28.605
			c-4.762,8.424,8.227,15.932,12.99,7.5c12.725-22.521-1.084-46.3-5.58-68.982C773.57,691.149,759.093,695.093,760.964,704.53
			L760.964,704.53z"/>
	</g>
</g>
<g>
	<g>
		<path d="M565.081,324.676c27.239,18.148,61.327,23.808,93.461,24.832c32.338,1.029,65.666-2.955,96.646-12.394
			c9.232-2.813,5.381-17.312-3.883-14.489c-28.954,8.822-59.5,12.444-89.718,11.95c-30.577-0.5-63.101-5.629-89.006-22.889
			C564.516,306.312,557.066,319.336,565.081,324.676L565.081,324.676z"/>
	</g>
</g>
<g>
	<g>
		<path d="M572.808,303.758c-11.967-12.172-18.894-29.221-18.613-46.301c0.293-17.874,11.114-31.317,28.265-35.927
			c9.341-2.511,5.46-17-3.882-14.489c-22.783,6.123-37.169,23.867-39.226,47.199c-1.92,21.792,7.766,44.786,22.905,60.184
			C569.037,321.318,579.599,310.665,572.808,303.758L572.808,303.758z"/>
	</g>
</g>
<g>
	<g>
		<path d="M188.258,295.812c9.687,0,9.772-15.003,0.108-15.003C178.68,280.81,178.594,295.812,188.258,295.812L188.258,295.812z"/>
	</g>
</g>
<g>
	<g>
		<path d="M580.465,220.488c49.351,0.017,98.707,1.265,148.053,0c9.666-0.248,9.775-15.251,0.107-15.003
			c-49.345,1.264-98.701,0.017-148.052,0C570.887,205.481,570.802,220.485,580.465,220.488L580.465,220.488z"/>
	</g>
</g>
<g>
	<g>
		<path d="M723.296,217.02c13.895,13.932,29.183,29.084,36.126,47.941c7.224,19.616,0.11,38.325-11.372,54.665
			c-5.568,7.923,7.47,15.355,12.99,7.5c13.488-19.194,20.717-41.801,13.297-64.815c-7.129-22.109-24.468-39.891-40.49-55.956
			C727.02,199.51,716.454,210.159,723.296,217.02L723.296,217.02z"/>
	</g>
</g>
<g>
	<g>
		<path d="M580.521,214.139c21.059-31.261,52.088-55.36,68.832-89.61c4.228-8.648-8.734-16.206-12.99-7.5
			c-16.69,34.14-47.798,58.387-68.832,89.61C562.117,214.675,575.143,222.122,580.521,214.139L580.521,214.139z"/>
	</g>
</g>
<g>
	<g>
		<path d="M731.023,203.894c-16.037-9.9-26.666-26.459-39.315-40.019c-6.94-7.44-14.57-14.21-21.534-21.657
			c-8.089-8.649-15.827-17.62-23.339-26.772c-2.595-3.161-7.962-2.623-10.608,0.057c-3.09,3.129-2.537,7.448,0.057,10.608
			c7.515,9.156,15.279,18.092,23.339,26.772c7.284,7.845,15.275,14.947,22.565,22.761c13.344,14.304,24.39,30.778,41.336,41.24
			C731.769,221.974,739.246,208.969,731.023,203.894L731.023,203.894z"/>
	</g>
</g>
<g>
	<g>
		<path d="M618.923,212.369c6.76-25.109,19.062-48.396,31.728-70.958c4.736-8.436-8.249-15.946-12.99-7.5
			c-13.268,23.634-26.127,48.198-33.207,74.497C601.934,217.767,616.411,221.703,618.923,212.369L618.923,212.369z"/>
	</g>
</g>
<g>
	<g>
		<path d="M680.6,203.757c-14.627-17.271-25.962-39.002-25.046-62.146c0.383-9.692-14.623-9.741-15.004-0.108
			c-1.079,27.279,12.304,52.617,29.499,72.919C676.297,221.8,686.815,211.095,680.6,203.757L680.6,203.757z"/>
	</g>
</g>
<g>
	<g>
		<path d="M645.165,116.937c1.268-19.026,2.552-38.066,2.597-57.143c0.023-9.688-14.98-9.771-15.003-0.108
			c-0.045,19.077-1.33,38.117-2.598,57.143C629.516,126.507,644.525,126.531,645.165,116.937L645.165,116.937z"/>
	</g>
</g>
<g>
	<g>
		<path d="M635.119,49.641c-1.943,0.084-3.021-0.161-3.64-0.703c-1.195-1.048-1.608-2.471-2.053-4.682
			c-0.702-3.492,0.869-8.275,3.509-10.781c0.482-0.457,2.596-0.715,2.493-0.759c1.991,0.855,2.719,2.326,3.814,4.619
			c1.74,3.643,1.253,9.12-1.717,11.934c-7.023,6.654,3.643,17.205,10.665,10.552c16.101-15.255,1.049-52.044-22.344-39.574
			c-18.532,9.879-14.035,45.411,9.165,44.397C644.656,64.223,644.781,49.218,635.119,49.641L635.119,49.641z"/>
	</g>
</g>
<g>
	<g>
		<path d="M323.994,335.805c26.221,4.557,54.734,17.321,79.804,1.833c8.208-5.071,0.655-18.037-7.596-12.939
			c-20.697,12.787-46.636,0.393-68.248-3.363C318.491,319.691,314.472,334.151,323.994,335.805L323.994,335.805z"/>
	</g>
</g>
<g>
	<g>
		<path d="M324.128,322.733c-4.001-13.193-7.286-27.711,1.984-39.536c2.517-3.211,3.105-7.486-0.057-10.608
			c-2.657-2.624-8.08-3.168-10.608,0.057c-6,7.653-9.419,15.663-10.341,25.371c-0.909,9.576,1.782,19.527,4.533,28.599
			C312.44,335.853,326.938,332,324.128,322.733L324.128,322.733z"/>
	</g>
</g>
<g>
	<g>
		<path d="M322.024,280.228c13.397-1.222,26.795-2.537,40.26-2.598c9.684-0.043,9.773-15.046,0.108-15.003
			c-13.465,0.06-26.862,1.375-40.26,2.598C312.574,266.097,312.405,281.106,322.024,280.228L322.024,280.228z"/>
	</g>
</g>
<g>
	<g>
		<path d="M362.955,276.065c17.281,3.512,44.202,23.408,33.148,43.561c-4.65,8.477,8.331,15.995,12.99,7.5
			c15.955-29.087-14.584-59.924-42.177-65.531C357.467,259.675,353.475,274.139,362.955,276.065L362.955,276.065z"/>
	</g>
</g>
<g>
	<g>
		<path d="M322.819,265.616c3.876-12.761,8.774-26.463,18.877-35.666c7.153-6.516-3.526-17.054-10.665-10.551
			c-11.961,10.895-18.088,27.133-22.682,42.256C305.529,270.939,320.015,274.847,322.819,265.616L322.819,265.616z"/>
	</g>
</g>
<g>
	<g>
		<path d="M374.777,264.292c-5.042-13.947-9.509-28.293-17.658-40.818c-5.252-8.07-18.23-0.536-12.939,7.596
			c7.449,11.448,11.501,24.358,16.108,37.104C363.551,277.201,378.067,273.393,374.777,264.292L374.777,264.292z"/>
	</g>
</g>
<g>
	<g>
		<path d="M346.462,258.495c0-5.628,0-11.255,0-16.883c0-9.687-15.003-9.772-15.003-0.108c0,5.628,0,11.255,0,16.883
			C331.459,268.073,346.462,268.158,346.462,258.495L346.462,258.495z"/>
	</g>
</g>
<g>
	<g>
		<path d="M349.06,226.027c-1.174-9.933-1.297-19.881-1.299-29.87c-0.001-9.687-15.005-9.772-15.003-0.108
			c0.001,9.99,0.124,19.938,1.299,29.87c0.479,4.057,2.983,7.526,7.447,7.556C345.203,233.5,349.541,230.094,349.06,226.027
			L349.06,226.027z"/>
	</g>
</g>
<g>
	<g>
		<path d="M340.206,199.708c9.687,0,9.772-15.003,0.108-15.003C330.627,184.706,330.542,199.708,340.206,199.708L340.206,199.708z"
			/>
	</g>
</g>
<g>
	<g>
		<path d="M337.608,189.319c9.687,0,9.772-15.003,0.108-15.003C328.03,174.316,327.945,189.319,337.608,189.319L337.608,189.319z"/>
	</g>
</g>
<g>
	<g>
		<path d="M329.816,194.514c9.687,0,9.772-15.003,0.108-15.003C320.238,179.511,320.152,194.514,329.816,194.514L329.816,194.514z"
			/>
	</g>
</g>
<g>
	<g>
		<path d="M333.712,181.526c9.687,0,9.772-15.003,0.108-15.003C324.134,166.523,324.048,181.526,333.712,181.526L333.712,181.526z"
			/>
	</g>
</g>
<g>
	<g>
		<path d="M342.803,191.916c9.687,0,9.772-15.003,0.108-15.003C333.225,176.913,333.14,191.916,342.803,191.916L342.803,191.916z"/>
	</g>
</g>
<g>
	<g>
		<path d="M850.596,345.163c26.923,1.405,54.054,4.618,79.176-7.525c8.703-4.207,1.066-17.126-7.596-12.939
			c-22.179,10.721-47.796,6.697-71.473,5.462C841.016,329.654,840.979,344.662,850.596,345.163L850.596,345.163z"/>
	</g>
</g>
<g>
	<g>
		<path d="M848.132,328.433c-5.365-6.767-10.639-14.097-12.628-22.627c-2.104-9.02,4.029-16.759,10.089-22.608
			c6.959-6.718-3.701-17.275-10.666-10.552c-8.942,8.633-15.821,19.635-14.59,32.509c1.25,13.066,9.35,23.986,17.244,33.943
			c2.541,3.206,7.998,2.585,10.607-0.057C851.316,335.875,850.672,331.636,848.132,328.433L848.132,328.433z"/>
	</g>
</g>
<g>
	<g>
		<path d="M840.207,286.721c20.341,1.193,40.685,0.041,61.038,0c9.685-0.019,9.772-15.022,0.107-15.003
			c-20.353,0.041-40.696,1.193-61.038,0C830.63,271.15,830.599,286.158,840.207,286.721L840.207,286.721z"/>
	</g>
</g>
<g>
	<g>
		<path d="M899.919,283.254c6.771,5.946,15.791,12.726,19.264,21.39c3.669,9.152-3.971,16.812-10.23,22.547
			c-7.134,6.537,3.544,17.077,10.666,10.551c9.975-9.14,18.065-20.845,14.715-34.916c-2.981-12.521-14.669-22.165-23.863-30.238
			C903.242,266.241,892.627,276.851,899.919,283.254L899.919,283.254z"/>
	</g>
</g>
<g>
	<g>
		<path d="M845.457,277.775c7.468-14.89,15.4-29.533,23.376-44.156c4.629-8.486-8.351-16.006-12.99-7.5
			c-7.976,14.623-15.908,29.266-23.376,44.156C828.146,278.889,841.112,286.438,845.457,277.775L845.457,277.775z"/>
	</g>
</g>
<g>
	<g>
		<path d="M859.886,232.468c16.221,10.062,36.408,24.166,41.961,43.498c2.667,9.288,17.161,5.422,14.488-3.882
			c-6.734-23.447-29.146-40.323-48.949-52.606C859.151,214.37,851.676,227.375,859.886,232.468L859.886,232.468z"/>
	</g>
</g>
<g>
	<g>
		<path d="M857.691,243.499c2.19,10.074,3.658,20.248,4.938,30.472c0.508,4.054,2.963,7.526,7.448,7.556
			c3.677,0.024,8.063-3.383,7.556-7.447c-1.446-11.555-2.977-23.075-5.453-34.462C870.122,230.153,855.642,234.079,857.691,243.499
			L857.691,243.499z"/>
	</g>
</g>
<g>
	<g>
		<path d="M864.645,215.638c-1.315-12.511-1.298-25.097-1.299-37.662c-0.001-9.687-15.005-9.772-15.004-0.108
			c0.001,12.566-0.016,25.151,1.299,37.662c0.427,4.062,3.022,7.526,7.448,7.556C860.828,223.11,865.073,219.709,864.645,215.638
			L864.645,215.638z"/>
	</g>
</g>
<g>
	<g>
		<path d="M844.102,181.526c9.686,0,9.771-15.003,0.107-15.003C834.524,166.523,834.438,181.526,844.102,181.526L844.102,181.526z"
			/>
	</g>
</g>
<g>
	<g>
		<path d="M850.596,173.734c9.686,0,9.771-15.003,0.107-15.003C841.018,158.731,840.932,173.734,850.596,173.734L850.596,173.734z"
			/>
	</g>
</g>
<g>
	<g>
		<path d="M859.687,184.124c9.686,0,9.771-15.003,0.107-15.003C850.109,169.121,850.023,184.124,859.687,184.124L859.687,184.124z"
			/>
	</g>
</g>
<g>
	<g>
		<path d="M247.998,349.06c22.955,1.162,45.356-6.459,66.189-15.317c3.769-1.603,4.536-7.087,2.672-10.268
			c-2.264-3.861-6.508-4.27-10.268-2.672c-18.35,7.803-38.324,14.274-58.485,13.254C238.418,333.566,238.379,348.573,247.998,349.06
			L247.998,349.06z"/>
	</g>
</g>
<g>
	<g>
		<path d="M400.617,333.208c27.876,4.443,55.585,0.027,83.13-4.632c26.853-4.542,54.838-9.67,81.805-3.16
			c9.405,2.271,13.365-12.2,3.961-14.47c-55.229-13.333-109.641,16.605-164.935,7.792
			C395.112,317.23,391.08,331.688,400.617,333.208L400.617,333.208z"/>
	</g>
</g>
<g>
	<g>
		<path d="M754.492,336.072c26.329,2.66,52.691,6.395,79.221,5.195c9.643-0.436,9.77-15.44,0.107-15.003
			c-26.528,1.2-52.891-2.535-79.221-5.195C744.958,320.095,744.964,335.11,754.492,336.072L754.492,336.072z"/>
	</g>
</g>
<g>
	<g>
		<path d="M932.414,339.969c37.224,1.239,74.457,0.023,111.688,0c9.686-0.006,9.771-15.009,0.107-15.003
			c-37.231,0.022-74.464,1.238-111.688,0C922.828,324.643,922.773,339.648,932.414,339.969L932.414,339.969z"/>
	</g>
</g>
<g>
	<g>
		<path d="M261.33,353.192c0,132.66,0,265.319,0,397.979c0,27.946,0,55.893,0,83.84c0,9.686,15.003,9.771,15.003,0.107
			c0-132.846,0-265.691,0-398.536c0-27.761,0-55.521,0-83.281C276.333,343.614,261.33,343.529,261.33,353.192L261.33,353.192z"/>
	</g>
</g>
<g>
	<g>
		<path d="M982.109,337.608c-2.643,32.482,3.022,65.005,5.898,97.289c2.874,32.246,4.305,64.609,5.084,96.967
			c0.786,32.606,0.819,65.227,0.773,97.841c-0.045,32.331,0.237,64.652-1.536,96.947c-2.155,39.248-6.568,78.325-10.22,117.45
			c-0.9,9.651,14.113,9.651,15.004,0.107c2.894-31.011,6.23-61.982,8.603-93.041c2.442-31.978,3.052-63.889,3.106-95.945
			c0.112-65.071,0.467-130.207-3.867-195.168c-1.337-20.045-3.291-40.029-5.448-60c-2.237-20.712-4.088-41.511-2.394-62.337
			C997.899,328.05,982.887,328.04,982.109,337.608L982.109,337.608z"/>
	</g>
</g>
<g>
	<g>
		<path d="M1028.518,342.566c37.069,0.067,74.335,3.756,111.086-2.854c9.525-1.714,5.565-16.188-3.883-14.489
			c-35.301,6.351-71.482,2.405-107.096,2.341C1018.939,327.546,1018.855,342.549,1028.518,342.566L1028.518,342.566z"/>
	</g>
</g>
<g>
	<g>
		<path d="M1132.492,329.771c57.481,89.049,61.421,198.267,52.762,300.754c-5.899,69.818-18.146,138.858-26.521,208.382
			c-0.489,4.065,3.708,7.53,7.448,7.556c4.438,0.029,7.067-3.393,7.556-7.448c12.479-103.598,33.51-206.906,29.598-311.751
			c-2.682-71.846-18.505-144.054-57.902-205.088C1140.208,314.083,1127.231,321.621,1132.492,329.771L1132.492,329.771z"/>
	</g>
</g>
<g>
	<g>
		<path d="M249.449,325.998c-10.502,6.551-23.748,8.831-35.886,9.949c-12.197,1.123-26.966,1.645-38.385-3.48
			c-3.726-1.672-8.047-1.062-10.245,2.745c-1.888,3.27-0.99,8.569,2.745,10.245c13.766,6.179,29.57,6.688,44.407,5.606
			c15.172-1.105,31.842-3.943,44.959-12.125C265.228,333.833,257.678,320.864,249.449,325.998L249.449,325.998z"/>
	</g>
</g>
<g>
	<g>
		<path d="M149.642,340.205c1.948,30.087-9.979,58.325-19.889,86.094c-10.52,29.476-20.087,59.243-27.641,89.627
			C86.73,577.793,78.852,641.295,79.205,705.045c0.367,66.375,9.4,132.783,26.538,196.896c2.498,9.345,16.987,5.462,14.489-3.883
			c-16.497-61.714-25.165-125.208-25.989-189.079c-0.824-63.819,7.096-127.149,22.338-189.093
			c7.622-30.973,17.521-61.273,28.237-91.297c10.16-28.467,21.823-57.449,19.826-88.276
			C164.022,330.702,149.017,330.557,149.642,340.205L149.642,340.205z"/>
	</g>
</g>
<g>
	<g>
		<path d="M163.927,468.777c10.199,114.609-18.006,228.25-12.987,342.858c0.422,9.645,15.426,9.771,15.003,0.107
			c-5.019-114.606,23.186-228.249,12.987-342.857C178.08,459.322,163.071,459.155,163.927,468.777L163.927,468.777z"/>
	</g>
</g>
<g>
	<g>
		<path d="M183.255,455.925c21.25-22.661,40.505-47.064,59.74-71.429c2.528-3.202,3.097-7.493-0.057-10.608
			c-2.665-2.631-8.068-3.16-10.608,0.057c-19.235,24.364-38.49,48.767-59.74,71.428C165.99,452.412,176.618,463.002,183.255,455.925
			L183.255,455.925z"/>
	</g>
</g>
<g>
	<g>
		<path d="M234.057,373.972c-0.016,132.093-3.234,264.157-3.813,396.245c-0.055,12.507-0.081,25.014-0.083,37.521
			c-0.001,9.687,15.002,9.771,15.003,0.107c0.017-131.989,3.239-263.951,3.813-395.937c0.055-12.609,0.081-25.219,0.083-37.829
			C249.062,364.394,234.058,364.308,234.057,373.972L234.057,373.972z"/>
	</g>
</g>
<g>
	<g>
		<path d="M1025.223,398.044c22.019,129.308,27.101,260.672,28.101,391.615c0.165,21.61,0.212,43.221,0.213,64.832
			c0.001,9.686,15.004,9.771,15.004,0.107c-0.01-130.894-1.993-262.125-18.666-392.129c-2.929-22.836-6.298-45.611-10.163-68.307
			C1038.087,384.625,1023.614,388.593,1025.223,398.044L1025.223,398.044z"/>
	</g>
</g>
<g>
	<g>
		<path d="M1035.708,409.842c28.98-4.932,58.486-5.116,87.615-8.834c4.052-0.517,7.525-2.955,7.556-7.447
			c0.024-3.669-3.385-8.075-7.448-7.556c-30.467,3.889-61.284,4.188-91.605,9.348
			C1022.288,396.976,1026.255,411.45,1035.708,409.842L1035.708,409.842z"/>
	</g>
</g>
<g>
	<g>
		<path d="M1110.68,398.647c6.931,131.403,4.545,263.21-6.157,394.346c-1.285,15.748-2.706,31.485-4.232,47.213
			c-0.936,9.646,14.078,9.644,15.004,0.107c12.71-131.004,17.191-262.797,12.493-394.346c-0.562-15.743-1.274-31.481-2.104-47.212
			C1125.176,389.124,1110.171,388.99,1110.68,398.647L1110.68,398.647z"/>
	</g>
</g>
<g>
	<g>
		<path d="M1071.375,303.606c9.686,0,9.771-15.003,0.107-15.003C1061.797,288.603,1061.711,303.606,1071.375,303.606
			L1071.375,303.606z"/>
	</g>
</g>
<g>
	<g>
		<path d="M1032.414,258.151c9.686,0,9.771-15.003,0.107-15.003C1022.835,243.148,1022.75,258.151,1032.414,258.151
			L1032.414,258.151z"/>
	</g>
</g>
<g>
	<g>
		<path d="M1063.583,193.216c9.686,0,9.771-15.003,0.107-15.003C1054.004,178.213,1053.918,193.216,1063.583,193.216
			L1063.583,193.216z"/>
	</g>
</g>
<g>
	<g>
		<path d="M968.778,155.554c9.686,0,9.771-15.003,0.107-15.003C959.2,140.551,959.114,155.554,968.778,155.554L968.778,155.554z"/>
	</g>
</g>
<g>
	<g>
		<path d="M875.271,124.385c9.686,0,9.771-15.003,0.107-15.003C865.693,109.382,865.607,124.385,875.271,124.385L875.271,124.385z"
			/>
	</g>
</g>
<g>
	<g>
		<path d="M783.063,116.593c9.686,0,9.771-15.003,0.107-15.003C773.485,101.59,773.399,116.593,783.063,116.593L783.063,116.593z"/>
	</g>
</g>
<g>
	<g>
		<path d="M475.271,167.242c9.687,0,9.772-15.003,0.108-15.003C465.692,152.239,465.607,167.242,475.271,167.242L475.271,167.242z"
			/>
	</g>
</g>
<g>
	<g>
		<path d="M447.998,252.957c9.687,0,9.772-15.003,0.108-15.003C438.42,237.954,438.334,252.957,447.998,252.957L447.998,252.957z"/>
	</g>
</g>
<g>
	<g>
		<path d="M241.504,219.19c9.687,0,9.772-15.003,0.108-15.003C231.926,204.188,231.841,219.19,241.504,219.19L241.504,219.19z"/>
	</g>
</g>
<g>
	<g>
		<path d="M198.647,156.853c9.687,0,9.772-15.003,0.108-15.003C189.069,141.85,188.983,156.853,198.647,156.853L198.647,156.853z"/>
	</g>
</g>
<g>
	<g>
		<path d="M222.024,85.424c9.687,0,9.772-15.003,0.108-15.003C212.446,70.421,212.36,85.424,222.024,85.424L222.024,85.424z"/>
	</g>
</g>
<g>
	<g>
		<path d="M367.479,85.424c9.687,0,9.772-15.003,0.108-15.003C357.9,70.421,357.815,85.424,367.479,85.424L367.479,85.424z"/>
	</g>
</g>
<g>
	<g>
		<path d="M433.712,126.982c9.687,0,9.772-15.003,0.108-15.003C424.134,111.979,424.048,126.982,433.712,126.982L433.712,126.982z"
			/>
	</g>
</g>
<g>
	<g>
		<path d="M499.946,106.203c0.866,0,1.732,0,2.598,0c4.086,0,7.529-3.341,7.556-7.447c0.027-4.065-3.361-7.556-7.447-7.556
			c-0.866,0-1.732,0-2.598,0c-4.086,0-7.529,3.341-7.556,7.447C492.471,102.713,495.86,106.203,499.946,106.203L499.946,106.203z"/>
	</g>
</g>
<g>
	<g>
		<path d="M532.414,82.827c0.433,0,0.866,0,1.298,0c4.086,0,7.529-3.341,7.556-7.447c0.027-4.065-3.362-7.556-7.448-7.556
			c-0.433,0-0.866,0-1.298,0c-4.086,0-7.529,3.341-7.556,7.447C524.939,79.336,528.328,82.827,532.414,82.827L532.414,82.827z"/>
	</g>
</g>
<g>
	<g>
		<path d="M589.556,115.294c9.687,0,9.772-15.003,0.108-15.003C579.978,100.291,579.893,115.294,589.556,115.294L589.556,115.294z"
			/>
	</g>
</g>
<g>
	<g>
		<path d="M718.128,72.437c9.686,0,9.771-15.003,0.107-15.003C708.55,57.434,708.464,72.437,718.128,72.437L718.128,72.437z"/>
	</g>
</g>
<g>
	<g>
		<path d="M731.116,146.463c9.686,0,9.771-15.003,0.107-15.003C721.538,131.46,721.452,146.463,731.116,146.463L731.116,146.463z"/>
	</g>
</g>
<g>
	<g>
		<path d="M781.764,206.203c9.686,0,9.771-15.003,0.107-15.003C772.186,191.2,772.1,206.203,781.764,206.203L781.764,206.203z"/>
	</g>
</g>
<g>
	<g>
		<path d="M812.933,275.034c9.686,0,9.771-15.003,0.107-15.003C803.355,260.031,803.269,275.034,812.933,275.034L812.933,275.034z"
			/>
	</g>
</g>
<g>
	<g>
		<path d="M886.959,107.502c9.686,0,9.771-15.003,0.107-15.003C877.381,92.499,877.295,107.502,886.959,107.502L886.959,107.502z"/>
	</g>
</g>
<g>
	<g>
		<path d="M1014.232,67.242c2.597,0,5.194,0,7.792,0c4.085,0,7.528-3.341,7.556-7.447c0.026-4.065-3.361-7.556-7.448-7.556
			c-2.597,0-5.194,0-7.792,0c-4.086,0-7.528,3.341-7.556,7.447C1006.757,63.752,1010.146,67.242,1014.232,67.242L1014.232,67.242z"
			/>
	</g>
</g>
<g>
	<g>
		<path d="M1107.739,90.619c0.508,0.001,1.011,0.011,1.515,0.077c-0.642-0.089-1.284-0.178-1.926-0.267
			c0.377,0.065,0.728,0.164,1.082,0.309c-0.59-0.247-1.18-0.494-1.77-0.74c0.311,0.15,0.588,0.322,0.865,0.527
			c-0.509-0.387-1.018-0.775-1.525-1.163c0.151,0.121,0.296,0.25,0.433,0.387c2.964,2.805,7.688,2.9,10.608-0.057
			c2.821-2.858,2.914-7.796-0.058-10.608c-2.562-2.424-5.631-3.464-9.117-3.468c-4.086-0.004-7.528,3.345-7.556,7.447
			C1100.264,87.132,1103.653,90.615,1107.739,90.619L1107.739,90.619z"/>
	</g>
</g>
<g>
	<g>
		<path d="M329.119,409.734c10.356,33.349,3.751,68.958,4.938,103.2c0.334,9.656,15.338,9.774,15.003,0.108
			c-1.235-35.644,5.337-72.449-5.452-107.19C340.747,396.639,326.248,400.486,329.119,409.734L329.119,409.734z"/>
	</g>
</g>
<g>
	<g>
		<path d="M342.201,411.142c32.754-6.227,65.986-8.785,99.304-8.834c9.686-0.014,9.772-15.018,0.108-15.003
			c-34.646,0.051-69.238,2.875-103.294,9.348C328.808,398.46,332.758,412.937,342.201,411.142L342.201,411.142z"/>
	</g>
</g>
<g>
	<g>
		<path d="M437.953,393.453c-1.152,44.343,7.659,88.168,7.792,132.467c0.029,9.685,15.032,9.773,15.003,0.108
			c-0.132-44.3-8.944-88.125-7.792-132.467C453.208,383.868,438.204,383.807,437.953,393.453L437.953,393.453z"/>
	</g>
</g>
<text transform="matrix(1 0 0 1 355.0586 435.3398)"><tspan x="0" y="0" font-family="'ComicSansMS-Bold'" font-size="21">real</tspan><tspan x="0" y="25.2" font-family="'ComicSansMS-Bold'" font-size="21">tabla</tspan><tspan x="0" y="50.4" font-family="'ComicSansMS-Bold'" font-size="21">lessons</tspan><tspan x="0" y="75.6" font-family="'ComicSansMS-Bold'" font-size="21">next</tspan><tspan x="0" y="100.8" font-family="'ComicSansMS-Bold'" font-size="21">door</tspan></text>
<g>
	<g>
		<path d="M341.504,564.646c42.919-0.016,95.892-1.508,122.134-41.414c5.325-8.098-7.695-15.552-12.99-7.5
			c-22.687,34.5-72.481,33.897-109.035,33.91C331.927,549.646,331.841,564.649,341.504,564.646L341.504,564.646z"/>
	</g>
</g>
<g>
	<g>
		<path d="M346.206,550.008c-2.059-9.74-2.043-19.309,3.147-28.075c4.935-8.334-8.061-15.826-12.99-7.5
			c-7.245,12.237-7.521,25.856-4.646,39.457C333.719,563.365,348.198,559.434,346.206,550.008L346.206,550.008z"/>
	</g>
</g>
</svg>
