<?xml version="1.0" encoding="utf-8"?>
<!-- Generator: Adobe Illustrator 15.1.0, SVG Export Plug-In . SVG Version: 6.00 Build 0)  -->
<!DOCTYPE svg PUBLIC "-//W3C//DTD SVG 1.1//EN" "http://www.w3.org/Graphics/SVG/1.1/DTD/svg11.dtd">
<svg version="1.1" id="Layer_1" xmlns="http://www.w3.org/2000/svg" xmlns:xlink="http://www.w3.org/1999/xlink" x="0px" y="0px"
	 width="672.842px" height="653.631px" viewBox="0 0 672.842 653.631" enable-background="new 0 0 672.842 653.631"
	 xml:space="preserve">
<g>
	<g>
		<path d="M42.755,241.415c20.167,48.502,14.776,103.903,11.96,155.034c-1.494,27.119-1.319,54.22-2.344,81.347
			c-1.14,30.152-3.93,60.308-9.606,89.961c-1.811,9.456,12.651,13.46,14.47,3.961c5.69-29.726,8.64-59.909,9.988-90.125
			c1.24-27.801,0.895-55.606,2.407-83.407c2.875-52.877,8.477-110.482-12.385-160.652c-1.569-3.774-4.843-6.467-9.186-5.304
			C44.505,233.182,41.182,237.629,42.755,241.415L42.755,241.415z"/>
	</g>
</g>
<g>
	<g>
		<path d="M42.756,233.551c14.803,4.164,30.123,2.908,45.304,2.896c16.358-0.013,32.717-0.135,49.075-0.26
			c32.185-0.245,64.371-0.508,96.555-0.119c31.672,0.384,62.983,1.832,94.48,5.295c30.887,3.396,61.73,7.436,92.829,8.244
			c9.693,0.251,9.755-14.753,0.107-15.004c-30.457-0.791-60.685-4.656-90.932-8.033c-31.479-3.515-62.758-5.041-94.416-5.479
			c-31.523-0.438-63.051-0.179-94.575,0.063c-15.717,0.121-31.435,0.238-47.152,0.28c-15.606,0.042-32.124,1.921-47.315-2.353
			C37.383,216.455,33.457,230.935,42.756,233.551L42.756,233.551z"/>
	</g>
</g>
<g>
	<g>
		<path d="M421.446,240.735c-0.007,121.054-1.309,242.104-1.316,363.159c0,9.686,15.003,9.771,15.004,0.107
			c0.007-121.054,1.309-242.104,1.316-363.158C436.45,231.157,421.447,231.072,421.446,240.735L421.446,240.735z"/>
	</g>
</g>
<g>
	<g>
		<path d="M50.069,586.854c3.673-3.294,10.349-2.915,14.929-3.012c8.22-0.174,16.432-0.534,24.651-0.798
			c16.605-0.533,33.22-0.751,49.833-0.838c32.874-0.172,65.747,0.285,98.621,0.295c33.273,0.009,66.546,0,99.818,0
			c16.637,0,33.273,0,49.909,0c16.099,0,32.02,0.565,48.092,1.355c18.587,0.913,37.168,0.604,55.492-2.929
			c9.507-1.832,5.559-16.309-3.883-14.488c-15.75,3.036-31.755,3.195-47.733,2.58c-15.997-0.616-31.847-1.522-47.866-1.522
			c-33.273,0-66.546,0-99.818,0c-66.095,0-132.29-1.429-198.365,0.423c-10.077,0.283-20.145,0.738-30.222,0.951
			c-8.683,0.184-17.452,1.449-24.124,7.432C32.201,582.762,42.886,593.295,50.069,586.854L50.069,586.854z"/>
	</g>
</g>
<g>
	<g>
		<path d="M44.653,231.381c21.263-38.991,61.938-62.373,100.976-80.412c42.566-19.668,87.554-33.432,129.759-53.952
			c40.568-19.723,78.702-44.157,114.155-72.005c3.217-2.527,2.575-8.008-0.058-10.608c-3.175-3.136-7.393-2.469-10.608,0.057
			c-45.798,35.975-96.782,65.603-150.872,87.206c-41.992,16.771-85.127,31.33-124.415,54.082
			c-28.767,16.659-55.792,38.542-71.928,68.132C27.035,232.368,40.014,239.888,44.653,231.381L44.653,231.381z"/>
	</g>
</g>
<g>
	<g>
		<path d="M431.429,248.575c69.354-47.904,149.091-85.495,204.167-151.193c6.163-7.353-4.435-17.984-10.666-10.552
			c-54.254,64.719-132.773,101.614-201.097,148.806C415.934,241.091,423.45,254.086,431.429,248.575L431.429,248.575z"/>
	</g>
</g>
<g>
	<g>
		<path d="M374.335,24.34c47.103,6.636,94.627,7.028,142.058,9.285c44.341,2.11,90.482,11.38,134.232-0.064
			c9.36-2.449,5.473-16.937-3.883-14.489c-41.613,10.886-86.074,1.768-128.268-0.354c-46.747-2.349-93.744-2.306-140.179-8.847
			c-4.049-0.571-8.031,0.945-9.216,5.254C368.103,18.686,370.284,23.77,374.335,24.34L374.335,24.34z"/>
	</g>
</g>
<g>
	<g>
		<path d="M642.499,27.577c-7.436,63.077-5.7,126.761-3.607,190.099c1.033,31.285,2.504,62.608,2.227,93.916
			c-0.279,31.484-1.425,62.959-1.008,94.448c0.269,20.381,1.281,40.765,3.704,61.011c0.485,4.056,2.979,7.525,7.448,7.556
			c3.693,0.024,8.042-3.382,7.556-7.448c-7.431-62.087-1.54-124.702-2.996-187.007c-1.484-63.507-5.265-127.008-2.972-190.544
			c0.747-20.691,2.228-41.358,4.652-61.922c0.479-4.066-3.7-7.531-7.448-7.556C645.624,20.1,642.977,23.521,642.499,27.577
			L642.499,27.577z"/>
	</g>
</g>
<g>
	<g>
		<path d="M456.51,582.882c0.552-0.471-0.279,0.089-0.398,0.115c1.307,0.003,2.614,0.006,3.921,0.009
			c-0.087-0.031-0.175-0.062-0.263-0.095c1.752,3.072,3.503,6.144,5.255,9.216c-0.965,1.86-0.626,2.021,1.017,0.483
			c1.015-0.672,2.029-1.343,3.046-2.013c2.038-1.345,4.082-2.68,6.127-4.014c4.115-2.684,8.249-5.338,12.392-7.979
			c8.895-5.671,17.861-11.229,26.873-16.711c17.72-10.781,35.672-21.18,53.787-31.28c36.561-20.383,73.893-39.391,111.848-57.039
			c8.76-4.073,1.111-16.987-7.596-12.939c-39.104,18.183-77.51,37.844-115.152,58.885c-19.181,10.722-38.136,21.846-56.866,33.334
			c-8.964,5.499-17.861,11.105-26.707,16.793c-4.628,2.976-9.232,5.987-13.825,9.018c-3.421,2.258-8.721,4.927-9.413,9.502
			c-0.65,4.3,1.061,7.707,5.255,9.216c4.061,1.461,8.43-1.446,11.365-3.949C474.533,587.16,463.83,576.641,456.51,582.882
			L456.51,582.882z"/>
	</g>
</g>
<g>
	<g>
		<path d="M374.334,58.52c2.438,13.702,3.636,27.51,3.69,41.426c0.038,9.684,15.042,9.773,15.004,0.108
			c-0.061-15.247-1.536-30.408-4.206-45.416C387.128,45.11,372.654,49.071,374.334,58.52L374.334,58.52z"/>
	</g>
</g>
<g>
	<g>
		<path d="M376.708,151.262c0,13.597,0,27.193,0,40.789c0,9.687,15.004,9.772,15.004,0.108c0-13.597,0-27.193,0-40.789
			C391.712,141.684,376.708,141.598,376.708,151.262L376.708,151.262z"/>
	</g>
</g>
<g>
	<g>
		<path d="M376.708,252.577c0,21.053,0,42.106,0,63.159c0,9.686,15.004,9.771,15.004,0.107c0-21.053,0-42.105,0-63.158
			C391.712,242.999,376.708,242.914,376.708,252.577L376.708,252.577z"/>
	</g>
</g>
<g>
	<g>
		<path d="M326.465,371.162c-23.733,15.407-47.271,32.439-66.008,53.826c-6.339,7.234,4.27,17.85,10.665,10.551
			c17.936-20.471,40.222-36.69,62.939-51.438C342.138,378.858,334.602,365.879,326.465,371.162L326.465,371.162z"/>
	</g>
</g>
<g>
	<g>
		<path d="M206.51,471.041c-13.327,10.834-27.921,20.673-43.977,26.979c-3.804,1.494-6.452,4.901-5.304,9.186
			c0.968,3.613,5.372,6.801,9.186,5.303c18.724-7.353,35.208-18.272,50.76-30.916c3.173-2.579,2.612-7.972-0.057-10.608
			C213.979,467.883,209.682,468.461,206.51,471.041L206.51,471.041z"/>
	</g>
</g>
<g>
	<g>
		<path d="M118.571,517.214c-14.303,9.054-29.117,17.263-43.421,26.315c-8.145,5.155-0.601,18.127,7.596,12.939
			c14.303-9.053,29.118-17.262,43.421-26.315C134.311,524.999,126.767,512.027,118.571,517.214L118.571,517.214z"/>
	</g>
</g>
<g>
	<g>
		<path d="M474.988,344.807c14.863,12.459,24.12,30.414,40.999,40.636c8.287,5.019,15.771-7.981,7.5-12.99
			c-15.541-9.411-24.186-26.774-37.948-38.312C478.186,327.978,467.554,338.576,474.988,344.807L474.988,344.807z"/>
	</g>
</g>
<g>
	<g>
		<path d="M571.041,429.016c16.279,14.612,35.382,25.997,55.927,33.482c9.113,3.32,12.975-11.187,3.961-14.471
			c-18.035-6.57-35.059-16.86-49.337-29.676C574.424,411.918,563.818,422.535,571.041,429.016L571.041,429.016z"/>
	</g>
</g>
<g>
	<g>
		<path d="M179.52,323.299c2.43,12.358,4.052,24.895,9.563,36.362c1.955,4.067,7.989,0.515,6.044-3.533
			c-5.207-10.835-6.563-23.02-8.857-34.69C185.399,317.011,178.653,318.89,179.52,323.299L179.52,323.299z"/>
	</g>
</g>
<g>
	<g>
		<path d="M184.662,325.391c21.6-9.486,42.548-20.231,61.235-34.759c3.56-2.768-1.432-7.685-4.95-4.949
			c-18.162,14.119-38.839,24.45-59.818,33.663C177.003,321.158,180.57,327.188,184.662,325.391L184.662,325.391z"/>
	</g>
</g>
<g>
	<g>
		<path d="M194.352,366.533c24.603-5.692,46.523-19.075,67.941-31.932c3.865-2.32,0.347-8.374-3.533-6.045
			c-20.92,12.558-42.235,25.666-66.269,31.227C188.094,360.8,189.959,367.549,194.352,366.533L194.352,366.533z"/>
	</g>
</g>
<g>
	<g>
		<path d="M242.678,282.509c4.035,16.882,11.548,32.644,21.406,46.889c2.549,3.685,8.62,0.189,6.044-3.533
			c-9.542-13.788-16.793-28.871-20.7-45.217C248.378,276.259,241.629,278.121,242.678,282.509L242.678,282.509z"/>
	</g>
</g>
<g>
	<g>
		<path d="M219.29,327.631c-0.192-3.396,0.373-7.755,4.592-7.763c3.384-0.006,5.58,3.263,5.738,6.328
			c0.188,3.662-1.939,8.603-6.125,8.759c-4.794,0.18-3.9-6.173-3.014-9.025c1.343-4.323-5.416-6.157-6.75-1.861
			c-2.155,6.938-0.684,16.353,7.858,17.704c8.708,1.379,14.171-6.485,14.993-14.237c0.8-7.552-4.955-13.84-12.223-14.641
			c-8.407-0.927-12.47,7.634-12.069,14.736C212.543,332.119,219.544,332.143,219.29,327.631L219.29,327.631z"/>
	</g>
</g>
<g>
	<g>
		<path d="M347.219,418.312c5.08-3.639,12.044-5.297,18.457-3.99c2.976,0.606,5.014,1.817,6.269,3.929
			c0.66,1.109,0.776,2.57,0.816,4.064c0.028,1.023-1.017,3.023-0.555,2.42c-1.256,1.642-2.729,2-4.404,2.099
			c-2.813,0.167-5.317-0.468-7.622-1.542c-5.648-2.634-9.406-7.024-8.208-12.785c1.964-9.444-12.5-13.433-14.471-3.961
			c-2.623,12.611,3.875,24.009,15.179,29.736c9.402,4.765,23.525,5.718,30.637-3.578c8.334-10.893,4.15-27.387-8.394-33.005
			c-10.866-4.867-25.604-3.271-35.3,3.674C331.836,410.95,339.339,423.956,347.219,418.312L347.219,418.312z"/>
	</g>
</g>
<g>
	<g>
		<path d="M350.651,444.046c3.424,8.721,2.443,17.789,2.374,26.952c-0.072,9.689,14.931,9.768,15.004,0.107
			c0.078-10.423,1.007-21.019-2.89-30.942c-1.493-3.804-4.901-6.451-9.186-5.303C352.34,435.829,349.153,440.232,350.651,444.046
			L350.651,444.046z"/>
	</g>
</g>
<g>
	<g>
		<path d="M352.781,468.53c-8.669,5.731-17.708,11.028-25.218,18.3c-6.949,6.728,3.709,17.285,10.664,10.551
			c6.571-6.362,14.562-10.896,22.149-15.911C368.403,476.163,360.874,463.18,352.781,468.53L352.781,468.53z"/>
	</g>
</g>
<g>
	<g>
		<path d="M346.041,485.596c8.675,7.601,15.618,16.804,23.685,25c6.783,6.892,17.346-3.762,10.551-10.666
			c-8.066-8.195-15.01-17.398-23.685-25C349.357,468.591,338.742,479.201,346.041,485.596L346.041,485.596z"/>
	</g>
</g>
<g>
	<g>
		<path d="M357.698,451.4c-9.869-4.721-18.469-11.316-25.803-19.417c-6.772-7.48-13.007-18.189-11.502-28.687
			c0.58-4.048-0.952-8.033-5.255-9.216c-3.568-0.979-8.635,1.205-9.216,5.255c-4.104,28.632,20.205,53.541,44.275,65.055
			C358.873,468.54,366.438,455.581,357.698,451.4L357.698,451.4z"/>
	</g>
</g>
<g>
	<g>
		<path d="M348.63,477.239c19.343,0.503,36.617-11.93,49.137-25.582c12.475-13.603,23.05-31.504,24.209-50.287
			c0.597-9.682-14.411-9.711-15.004-0.107c-0.915,14.832-10.262,29.08-19.87,39.844c-9.605,10.76-23.191,21.524-38.364,21.129
			C339.044,461.983,338.983,476.988,348.63,477.239L348.63,477.239z"/>
	</g>
</g>
<g>
	<g>
		<path d="M269.072,459.867c3.878,1.331,3.822,2.962,2.812,5.027c-1.739,3.558-5.057,4.696-8.989,3.695
			c-3.367-0.857-3.495-3.507-2.756-6.739c1.008-4.402,4.085-7.564,8.132-9.328c3.753-1.637,4.55-7.062,2.672-10.268
			c-2.25-3.838-6.523-4.304-10.268-2.672c-18.432,8.035-22.942,39.609,0.501,43.969c10.675,1.984,20.729-3.771,24.83-13.729
			c4.548-11.048-2.592-20.862-12.974-24.426C263.855,442.247,259.977,456.745,269.072,459.867L269.072,459.867z"/>
	</g>
</g>
<g>
	<g>
		<path d="M259.156,487.765c9.687,0,9.772-15.004,0.108-15.004C249.578,472.761,249.493,487.765,259.156,487.765L259.156,487.765z"
			/>
	</g>
</g>
<g>
	<g>
		<path d="M251.708,480.209c0,16.666,0,33.333,0,50c0,9.686,15.004,9.771,15.004,0.107c0-16.666,0-33.333,0-50
			C266.712,470.631,251.708,470.545,251.708,480.209L251.708,480.209z"/>
	</g>
</g>
<g>
	<g>
		<path d="M248.768,522.566c-3.484,7.671-9.72,11.988-17.04,15.701c-8.625,4.375-1.004,17.302,7.596,12.939
			c9.382-4.76,17.982-11.34,22.434-21.141c1.689-3.719,1.051-8.054-2.745-10.245C255.732,517.926,250.461,518.839,248.768,522.566
			L248.768,522.566z"/>
	</g>
</g>
<g>
	<g>
		<path d="M250.198,545.968c7.05,3.671,12.637,9.056,18.211,14.628c6.838,6.833,17.406-3.814,10.552-10.666
			c-6.428-6.423-13.138-12.722-21.263-16.952C249.137,528.52,241.601,541.492,250.198,545.968L250.198,545.968z"/>
	</g>
</g>
<g>
	<g>
		<path d="M253.296,495.396c-8.72-2.696-15.745-9.933-21.106-17.039c-5.902-7.823-10.774-16.792-13.104-26.351
			c-2.293-9.405-16.777-5.503-14.489,3.883c2.758,11.312,8.544,21.965,15.52,31.211c7.526,9.977,17.042,19.001,29.218,22.767
			C258.606,512.734,262.51,498.246,253.296,495.396L253.296,495.396z"/>
	</g>
</g>
<g>
	<g>
		<path d="M247.314,516.712c15.656,0.562,32.221-1.723,45.36-10.856c14.31-9.948,20.7-25.855,22.723-42.645
			c0.489-4.065-3.708-7.53-7.448-7.556c-4.438-0.029-7.067,3.393-7.556,7.448c-1.477,12.259-6.521,24.048-17.096,31.019
			c-10.493,6.916-23.647,8.025-35.875,7.586C237.73,501.36,237.678,516.366,247.314,516.712L247.314,516.712z"/>
	</g>
</g>
<g>
	<g>
		<path d="M218.806,329.691c56.237,10.099,104.18,42.416,156.768,62.637c58.286,22.413,118.862,38.15,177.443,59.731
			c4.245,1.563,6.06-5.203,1.861-6.75c-57.976-21.358-117.845-37.118-175.626-59.037c-53.295-20.217-101.68-53.111-158.585-63.331
			C216.254,322.149,214.368,328.894,218.806,329.691L218.806,329.691z"/>
	</g>
</g>
<g>
	<g>
		<path d="M554.878,450.744c1.788-0.479,3.515-1.153,5.305-1.621c1.479-0.387,2.313,1.01,3.132,2.036
			c0.515-1.949,1.029-3.899,1.544-5.85c-1.917,0.335-4.217,1.063-5.947,1.188c-0.386,0.027-0.535,0.021-1.167-0.268
			c-0.617-0.283-1.208-0.635-1.799-0.969c-1.365-0.772-0.921-0.865-0.365,0.658c-0.3,1.136-0.6,2.271-0.9,3.405
			c0.01-0.007,0.019-0.014,0.027-0.021c-1.135,0.3-2.271,0.601-3.405,0.9c-1.195-0.264-0.371-0.14,0.164,0.213
			c0.637,0.42,1.249,0.876,1.861,1.329c0.587,0.434,0.89,0.676,1.492,1.17c0.62,0.51,0.947,1.365,0.479,0.287
			c0.182-1.413,0.364-2.827,0.547-4.241c-0.008,0.01-0.016,0.019-0.022,0.028c0.825-0.342,1.649-0.684,2.475-1.025
			c0.454,0.11,0.909,0.221,1.363,0.33c-4.109-1.92-7.206,3.41-3.533,6.045c-1.599-1.096-1.239-2.874,1.079-5.336
			c0.554-0.063,0.611-0.084,0.172-0.061c-0.289,0.008-1.453-0.105-1.238-0.074c-0.672-0.1-1.336-0.249-1.996-0.413
			c-0.253-0.062-1.786-0.644-1.087-0.316c-1.708-1.029-1.937,0.717-0.687,5.239c0.922-0.106,1.848-0.16,2.774-0.207
			c0.926-0.047,1.934-0.082,2.843,0.09c1.062,0.2,0.589-4.814-0.774-3.934c-0.884,0.571-1.896,0.904-2.882,1.246
			c1.436,1.436,2.87,2.87,4.306,4.306c-0.757-0.208-1.514-0.416-2.271-0.625c-0.342-0.824-0.684-1.649-1.025-2.475
			c0,0.13,0,0.26,0,0.39c0.342-0.825,0.684-1.65,1.025-2.475c2.748,2.088,3.984,2.19,3.711,0.306
			c-1.756,1.008-3.511,2.015-5.267,3.022c1.668,0.793,3.329,1.428,5.132,1.826c0.634,0.141,0.672,0.353,0.185-0.071
			c0.616,0.535,0.961,1.547,1.323,2.253c0.697-1.714,1.395-3.428,2.092-5.142c0.343,0.202,0.686,0.404,1.027,0.606
			c0.794,1.247,0.194,2.418-1.798,3.512c4.37-1.118,2.515-7.87-1.861-6.75c-6.501,1.664-1.618,11.627,4.493,9.382
			c2.187-0.804,3.185-3.013,2.092-5.142c-0.941-1.832-2.021-3.788-3.93-4.764c-1.646-0.843-3.542-0.957-5.222-1.756
			c-2.311-1.098-5.305,0.188-5.267,3.022c0.03,2.238,0.623,5.259,3.243,5.859c2.583,0.593,6.021-0.479,6.021-3.69
			c0-2.492-1.943-4.353-4.447-4.353c-2.98,0-5.472,2.372-6.007,5.201c-0.457,2.417,1.581,5.251,4.306,4.306
			c2.192-0.761,4.87-1.614,6.426-3.461c1.929-2.289,1.329-4.886-0.934-6.63c-1.854-1.428-5.247-1.127-7.399-1.019
			c-3.158,0.16-6.679,0.455-7.144,4.226c-0.521,4.224,6.023,5.052,8.853,5.413c1.799,0.229,3.627,0.071,5.022-1.196
			c2.273-2.065,0.606-4.954-1.356-6.362c-1.178,2.015-2.355,4.03-3.533,6.045c1.472,0.688,3.46,1.065,4.668-0.428
			c1.098-1.358,1.238-2.649,0.547-4.241c-0.761-1.752-3.388-3.159-4.818-4.219c-2.124-1.572-4.285-3.085-6.794-1.076
			c-0.89,0.712-1.284,2.354-0.9,3.405c1.062,2.914,4.841,4.485,7.59,5.394c3.226,1.066,7.126-0.56,10.3-1.114
			c2.874-0.503,3.002-4.021,1.544-5.85c-1.935-2.429-4.218-3.979-7.364-4.174c-2.646-0.163-5.386,1.29-7.883,1.958
			C548.661,445.16,550.512,451.913,554.878,450.744L554.878,450.744z"/>
	</g>
</g>
<g>
	<g>
		<path d="M557.738,455.42c-0.836-0.724-1.666-1.35-2.644-1.868c-0.41-0.191-0.822-0.38-1.236-0.563
			c-0.868-0.412-0.708-0.381,0.48,0.094c-1.318,0.536-2.636,1.072-3.953,1.608c3.046,0.973,6.166,1.658,9.211,2.632
			c3.578,1.144,5.537-3.361,3.405-5.85c-1.536-1.793-1.103-5.432-1.731-7.667c-1.714,1.317-3.428,2.636-5.142,3.953
			c3.01,1.508,4.776,2.537,6.639,5.323c1.008-1.756,2.015-3.511,3.022-5.267c-2.173,0.059-4.397,0.236-6.366,1.244
			c-2.054,1.052,0.527-0.414,1.927,0.688c-0.314-0.274-0.62-0.558-0.916-0.852c-0.86-1.131-1.047-0.725-0.562,1.218
			c-0.536,0.697-1.072,1.395-1.608,2.092c-2.554,1.614-3.494-0.389-2.844,0.172c0.531,0.459,0.998,0.998,1.461,1.524
			c0.302,0.343,0.539,0.679,0.798,1.054c1.102,1.595-0.446,0.16,0.687-1.423c0.697-0.536,1.395-1.072,2.092-1.608
			c0.333-0.012,0.666-0.024,1-0.036c-0.311,2.292-0.62,4.583-0.931,6.875c0.419-0.01,0.831-0.083,1.246-0.145
			c2.277-0.334,3.133-3.374,2.092-5.142c-1.88-3.189-7.159-1.637-10.128-2.793c0.814,0.814,1.63,1.629,2.444,2.444
			c-0.004-0.013-0.009-0.025-0.014-0.038c-0.814,1.435-1.629,2.87-2.444,4.306c-1.136,0.358-0.274,0.057,0.225,0.052
			c-1.125-0.856-2.25-1.713-3.375-2.569c0.128,0.796,0.244,1.576,0.308,2.379c0.17,2.129,4.783-1.019,3.132-2.014
			c-2.145-1.293-4.118-2.915-6.192-4.318c0.236,1.833,0.472,3.665,0.708,5.497c1.401-1.709,1.064-1.858,2.756-1.154
			c1.303,0.544,2.575,0.76,3.979,0.863c4.506,0.333,4.474-6.669,0-7c-1.92-0.142-3.545-1.293-5.524-1.418
			c-2.549-0.161-4.703,1.981-6.16,3.76c-1.486,1.812-1.287,4.147,0.708,5.497c2.855,1.931,6.588,5.956,10.384,5.335
			c4.336-0.71,3.115-6.407,2.652-9.288c-0.242-1.503-1.949-2.584-3.375-2.569c-0.672,0.007-1.446-0.004-2.085,0.198
			c-1.72,0.543-3.097,2.455-2.445,4.305c1.397,3.966,7.749,2.908,10.48,3.646c-0.697-0.536-1.395-1.072-2.092-1.608
			c0.005,0.008,0.01,0.015,0.014,0.022c0.697-1.714,1.395-3.428,2.092-5.142c0.205-0.035,0.41-0.07,0.615-0.105
			c-3.901,0.088-4.829,5.876-0.931,6.875c4.352,1.114,6.302-2.846,4.612-6.406c-1.257-2.648-4.329-6.313-7.428-6.604
			c-1.943-0.182-4.014,1.722-3.831,3.722c0.224,2.444,1.69,3.771,3.45,5.347c3.186,2.854,5.895,0.213,9.39,0.119
			c2.506-0.067,4.555-2.974,3.022-5.267c-2.553-3.816-5.05-5.779-9.15-7.835c-2.661-1.333-6.017,0.842-5.142,3.953
			c1.123,3.994,0.668,7.413,3.532,10.755c1.135-1.949,2.27-3.899,3.405-5.85c-3.046-0.974-6.166-1.659-9.211-2.632
			c-1.367-0.437-3.339,0.237-3.953,1.608c-1.122,2.504-1.838,4.703-0.565,7.285c0.995,2.02,3.517,2.201,5.061,3.535
			C556.185,463.306,561.159,458.377,557.738,455.42L557.738,455.42z"/>
	</g>
</g>
<g>
	<g>
		<path d="M313.543,158.638c11.033,3.571,22.354,5.268,33.825,6.704c4.472,0.56,4.417-6.447,0-7
			c-10.855-1.359-21.529-3.076-31.964-6.454C311.097,150.494,309.268,157.254,313.543,158.638L313.543,158.638z"/>
	</g>
</g>
<g>
	<g>
		<path d="M304.873,153.497c-8.823,12.556-18.229,24.638-28.399,36.133c-2.979,3.368,1.953,8.337,4.949,4.95
			c10.562-11.939,20.331-24.511,29.495-37.55C313.519,153.327,307.447,149.834,304.873,153.497L304.873,153.497z"/>
	</g>
</g>
<g>
	<g>
		<path d="M279.104,199.843c14.385,12.446,33.518,13.964,51.544,16.689c4.414,0.667,6.312-6.077,1.861-6.75
			c-16.49-2.493-35.25-3.464-48.456-14.89C280.658,191.956,275.684,196.884,279.104,199.843L279.104,199.843z"/>
	</g>
</g>
<g>
	<g>
		<path d="M346.978,156.128c-10.642,18.732-19.779,38.303-26.669,58.731c-1.446,4.29,5.315,6.115,6.75,1.861
			c6.7-19.867,15.614-38.843,25.964-57.059C355.255,155.73,349.208,152.205,346.978,156.128L346.978,156.128z"/>
	</g>
</g>
<g>
	<g>
		<path d="M307.738,182.738c2.15-2.543,5.09-4.243,8.219-5.311c1.32-0.451,2.638-0.71,4.03-0.702
			c0.445,0.002,0.667,0.085,1.032,0.299c-0.507-0.297-0.265-0.603-0.253,0.365c0.076,6.636-12.35,10.684-9.496,1.172
			c1.3-4.335-5.456-6.173-6.75-1.861c-1.836,6.122,0.099,13.316,7.179,14.548c7.032,1.223,13.641-4.372,15.602-10.854
			c1.866-6.168-2.209-10.959-8.461-10.643c-5.822,0.294-12.303,3.603-16.051,8.036C299.894,181.212,304.82,186.19,307.738,182.738
			L307.738,182.738z"/>
	</g>
</g>
<g>
	<g>
		<path d="M309.658,186.842c0.015,48.069,1.196,96.468-6.45,144.097c-3.215,20.027-5.433,40.163-8.249,60.249
			c-2.617,18.666-5.751,37.675-12.807,55.25c-1.683,4.192,5.09,5.996,6.75,1.861c7.062-17.591,10.144-36.578,12.807-55.25
			c2.955-20.717,5.237-41.489,8.555-62.154c7.642-47.595,6.409-96.021,6.395-144.053
			C316.657,182.328,309.657,182.328,309.658,186.842L309.658,186.842z"/>
	</g>
</g>
<g>
	<g>
		<path d="M286.458,453.375c0.6-0.196,1.2-0.386,1.807-0.56c0.231-0.065,0.464-0.124,0.698-0.178
			c0.098-0.021,0.195-0.041,0.293-0.062c-0.634,0.151-1.247,0.033-1.84-0.352c-0.418-0.419-0.837-0.837-1.255-1.256
			c0.013,0.021,0.026,0.044,0.04,0.065c-0.159-0.589-0.318-1.178-0.479-1.767c-0.002,0.03-0.004,0.06-0.006,0.089
			c0.159-0.588,0.318-1.177,0.478-1.766c-0.223,0.463,0.684-0.706,0.028-0.106c-0.318,0.292-0.716,0.519-1.146,0.81
			c1.414,0.183,2.828,0.365,4.241,0.548c-2.034-1.979-4.555-3.295-6.579-5.264c0.3,0.515,0.601,1.029,0.9,1.544
			c-0.054-0.223-0.104-0.446-0.145-0.673c0.094,0.53,0.169,0.941-0.007,1.392c-0.3,0.515-0.6,1.029-0.9,1.545
			c0.007-0.008,0.014-0.016,0.021-0.022c-0.515,0.3-1.029,0.6-1.544,0.9c0.009-0.003,0.017-0.006,0.025-0.008c-0.62,0-1.24,0-1.86,0
			c-0.98-0.202-1.526-0.92-1.721-1.21c0.125,0.187,0.233,0.385,0.343,0.582c0.323,0.584,0.605,1.192,0.878,1.803
			c0.4,0.896-0.257-0.649,0.104,0.248c0.133,0.332,0.255,0.668,0.37,1.006c0.078,0.229,0.146,0.462,0.205,0.696
			c0.078,0.31,0.089,0.819-0.053-0.517c-0.004-0.031,0.238-1.223,0.428-1.484c0.419-0.419,0.837-0.837,1.256-1.256
			c0.255-0.108,0.511-0.218,0.766-0.326c0.621,0,1.241,0,1.861,0c0.032,0.005,1.568,1.072,1.037,0.521
			c-0.128-0.133-0.242-0.277-0.358-0.419c0.935,1.144,0.353,0.502,0.155-0.133c-0.03-0.097-0.229-1.271-0.136-0.403
			c-0.036-0.335,0.164-0.972-0.051-0.02c-0.027,0.121-0.805,1.154-0.436,0.776c-0.601,0.614-0.466,0.341-0.121,0.169
			c-1.038,0.516-0.056,0.075,0.252-0.01c0.385-0.106,0.766-0.215,1.138-0.358c1.43-0.553,2.634-1.364,3.404-2.733
			c2.217-3.938-3.831-7.466-6.045-3.533c-0.201,0.358,0.604-0.477,0.296-0.296c-0.328,0.161-0.229,0.122,0.301-0.116
			c-0.186,0.071-0.379,0.125-0.569,0.181c-0.854,0.25-1.664,0.501-2.47,0.901c-2.759,1.371-3.018,4.677-2.313,7.304
			c0.597,2.227,2.336,5.044,4.985,5.044c3.084,0,4.042-3.077,3.313-5.551c-0.658-2.233-2.217-7.052-4.928-7.61
			c-3.502-0.721-4.927,2.391-4.279,5.273c0.421,1.872,2.494,3.177,3.947,4.239c1.246,0.911,2.467,1.684,3.58,2.767
			c1.073,1.044,2.937,1.431,4.241,0.548c2.197-1.487,5.5-3.802,3.596-6.903c-1.714-2.791-5.136-1.622-7.608-0.811
			C280.328,448.026,282.156,454.787,286.458,453.375L286.458,453.375z"/>
	</g>
</g>
</svg>
