<?xml version="1.0" encoding="utf-8"?>
<!-- Generator: Adobe Illustrator 15.1.0, SVG Export Plug-In . SVG Version: 6.00 Build 0)  -->
<!DOCTYPE svg PUBLIC "-//W3C//DTD SVG 1.1//EN" "http://www.w3.org/Graphics/SVG/1.1/DTD/svg11.dtd">
<svg version="1.1" id="Layer_1" xmlns="http://www.w3.org/2000/svg" xmlns:xlink="http://www.w3.org/1999/xlink" x="0px" y="0px"
	 width="920.253px" height="962.026px" viewBox="0 0 920.253 962.026" enable-background="new 0 0 920.253 962.026"
	 xml:space="preserve">
<g>
	<g>
		<path d="M176.218,754.645c4.789-5.954,11.83-8.672,17.041-1.456c4.608,6.381,2.745,15.048-3.817,19.367
			c-5.168,3.401-12.233,1.796-16.702-2.187c-2.354-2.098-3.658-4.5-3.824-7.017c-0.254-3.853,2.086-7.179,4.77-9.974
			c6.69-6.964-3.946-17.546-10.665-10.551c-10.513,10.944-12.325,26.169-1.479,37.58c9.178,9.657,25.17,11.883,36.328,4.538
			c13.256-8.725,17.053-27.273,7.726-40.188c-10.278-14.23-29.167-14.187-40.042-0.664c-2.557,3.179-3.078,7.513,0.057,10.608
			C168.294,757.353,173.65,757.838,176.218,754.645L176.218,754.645z"/>
	</g>
</g>
<g>
	<g>
		<path d="M173.511,779.696c0,17.299,0,34.599,0,51.898c0,9.686,15.003,9.771,15.003,0.107c0-17.299,0-34.599,0-51.898
			C188.514,770.118,173.511,770.032,173.511,779.696L173.511,779.696z"/>
	</g>
</g>
<g>
	<g>
		<path d="M177.214,827.709c-14.29,8.105-23.367,21.402-33.18,34.106c-2.494,3.229-3.121,7.471,0.057,10.607
			c2.642,2.609,8.103,3.188,10.608-0.057c8.917-11.544,17.125-24.352,30.111-31.718
			C193.218,835.879,185.636,822.933,177.214,827.709L177.214,827.709z"/>
	</g>
</g>
<g>
	<g>
		<path d="M173.205,848.373c9.572,10.806,20.59,20.575,33.171,27.745c8.409,4.792,15.913-8.195,7.5-12.99
			c-11.53-6.571-21.353-15.522-30.12-25.419C177.342,830.466,166.812,841.156,173.205,848.373L173.205,848.373z"/>
	</g>
</g>
<g>
	<g>
		<path d="M173.472,797.564c-9.814,0.062-20.362,2.211-29.998-0.259c-10.226-2.621-12.377-14.606-12.201-23.656
			c0.242-12.373,4.991-24.693,10.401-35.648c5.13-10.388,11.514-20.369,19.354-28.925c6.513-7.106-4.108-17.705-10.665-10.551
			c-18.592,20.287-34.235,49.565-34.114,77.625c0.058,13.336,5.665,28.104,18.534,33.866c12.102,5.418,25.802,2.632,38.58,2.552
			C183.046,812.507,183.137,797.503,173.472,797.564L173.472,797.564z"/>
	</g>
</g>
<g>
	<g>
		<path d="M150.983,686.754c3.499,13.953,7.189,27.832,7.338,42.309c0.1,9.68,15.103,9.774,15.003,0.107
			c-0.163-15.81-4.031-31.058-7.852-46.299C163.118,673.483,148.633,677.38,150.983,686.754L150.983,686.754z"/>
	</g>
</g>
<g>
	<g>
		<path d="M161.311,692.048c14.076,2.454,28.18,2.796,42.433,2.798c9.687,0.001,9.772-15.003,0.108-15.004
			c-12.903-0.001-25.832-0.042-38.58-2.265C155.808,675.928,151.789,690.388,161.311,692.048L161.311,692.048z"/>
	</g>
</g>
<g>
	<g>
		<path d="M160.705,735.352c15.985-0.105,31.865-2.487,47.565-5.32c9.525-1.718,5.566-16.193-3.882-14.488
			c-14.415,2.601-28.899,4.709-43.575,4.805C151.131,720.412,151.04,735.416,160.705,735.352L160.705,735.352z"/>
	</g>
</g>
<g>
	<g>
		<path d="M193.764,687.291c0,10.126,0,20.253,0,30.38c0,9.686,15.003,9.771,15.003,0.107c0-10.126,0-20.253,0-30.38
			C208.767,677.712,193.764,677.626,193.764,687.291L193.764,687.291z"/>
	</g>
</g>
<g>
	<g>
		<path d="M175.895,815.099c31.871-1.117,64.181-14.452,76.255-46.011c5.793-15.142,5.52-34.409-0.617-49.373
			c-6.579-16.041-20.405-25.432-36.894-29.479c-9.399-2.307-13.355,12.164-3.961,14.471c12.031,2.953,22.68,9.066,27.258,21.155
			c4.822,12.731,4.148,27.753-0.672,40.352c-9.229,24.124-37.805,33.06-61.261,33.882
			C166.348,800.434,166.229,815.438,175.895,815.099L175.895,815.099z"/>
	</g>
</g>
<g>
	<g>
		<path d="M180.016,671.101c0.332-0.288,2.1-1.444,1.729-1.299c0.705-0.276,1.043-0.107,0.425-0.24
			c-0.511-0.109-0.363-0.28,0.158,0.22c0.126,0.121,0.918,1.504,0.775,1.149c1.323,3.286,1.189,7.774,0.015,9.215
			c-0.419,0.515-1.862,1.243-2.167,1.183c0.258,0.051-0.386-0.109-0.853-0.536c-0.74-0.677-1.225-1.622-1.869-2.866
			c-1.776-3.432-2.042-9.857-0.85-12.148c4.454-8.562-8.518-16.099-12.99-7.5c-4.614,8.87-3.104,20.433,1.797,28.878
			c5.877,10.129,19.355,12.16,27.596,3.541c6.922-7.24,6.432-19.319,2.038-27.659c-5.82-11.049-18.247-9.638-26.471-2.487
			C162.051,666.896,172.747,677.42,180.016,671.101L180.016,671.101z"/>
	</g>
</g>
<g>
	<g>
		<path d="M323.218,822.645c4.789-5.954,11.83-8.672,17.041-1.456c4.608,6.381,2.745,15.048-3.817,19.367
			c-5.168,3.401-12.233,1.796-16.702-2.187c-2.354-2.098-3.658-4.5-3.824-7.017c-0.254-3.853,2.086-7.179,4.77-9.974
			c6.69-6.964-3.946-17.546-10.665-10.551c-10.513,10.944-12.325,26.169-1.479,37.58c9.178,9.657,25.17,11.883,36.328,4.538
			c13.256-8.725,17.053-27.273,7.725-40.188c-10.278-14.23-29.167-14.187-40.042-0.664c-2.557,3.179-3.078,7.513,0.057,10.608
			C315.294,825.353,320.65,825.838,323.218,822.645L323.218,822.645z"/>
	</g>
</g>
<g>
	<g>
		<path d="M320.511,847.696c0,17.299,0,34.599,0,51.898c0,9.686,15.003,9.771,15.003,0.107c0-17.299,0-34.599,0-51.898
			C335.514,838.118,320.511,838.032,320.511,847.696L320.511,847.696z"/>
	</g>
</g>
<g>
	<g>
		<path d="M324.214,895.709c-14.29,8.105-23.367,21.402-33.18,34.106c-2.494,3.229-3.121,7.471,0.057,10.607
			c2.642,2.609,8.103,3.188,10.608-0.057c8.917-11.544,17.125-24.352,30.111-31.718
			C340.218,903.879,332.636,890.933,324.214,895.709L324.214,895.709z"/>
	</g>
</g>
<g>
	<g>
		<path d="M320.205,916.373c9.572,10.806,20.59,20.575,33.171,27.745c8.409,4.792,15.913-8.195,7.5-12.99
			c-11.529-6.571-21.352-15.522-30.119-25.419C324.342,898.466,313.812,909.156,320.205,916.373L320.205,916.373z"/>
	</g>
</g>
<g>
	<g>
		<path d="M320.472,865.564c-9.814,0.062-20.361,2.211-29.998-0.259c-10.226-2.621-12.377-14.606-12.201-23.656
			c0.242-12.373,4.991-24.693,10.401-35.648c5.13-10.388,11.514-20.37,19.354-28.925c6.513-7.106-4.108-17.705-10.665-10.551
			c-18.592,20.287-34.235,49.565-34.114,77.625c0.058,13.336,5.665,28.104,18.534,33.866c12.102,5.418,25.802,2.632,38.58,2.552
			C330.046,880.507,330.137,865.503,320.472,865.564L320.472,865.564z"/>
	</g>
</g>
<g>
	<g>
		<path d="M297.983,754.754c3.499,13.953,7.189,27.832,7.338,42.309c0.1,9.68,15.103,9.774,15.003,0.107
			c-0.163-15.81-4.031-31.058-7.852-46.299C310.118,741.483,295.633,745.38,297.983,754.754L297.983,754.754z"/>
	</g>
</g>
<g>
	<g>
		<path d="M308.311,760.048c14.076,2.454,28.181,2.796,42.433,2.798c9.687,0.001,9.772-15.003,0.108-15.004
			c-12.903-0.001-25.832-0.042-38.581-2.265C302.808,743.928,298.789,758.388,308.311,760.048L308.311,760.048z"/>
	</g>
</g>
<g>
	<g>
		<path d="M307.705,803.352c15.984-0.105,31.865-2.487,47.565-5.32c9.525-1.718,5.566-16.193-3.882-14.488
			c-14.415,2.601-28.899,4.709-43.575,4.805C298.131,788.412,298.04,803.416,307.705,803.352L307.705,803.352z"/>
	</g>
</g>
<g>
	<g>
		<path d="M340.764,755.291c0,10.126,0,20.253,0,30.38c0,9.686,15.004,9.771,15.004,0.107c0-10.126,0-20.253,0-30.38
			C355.768,745.712,340.764,745.626,340.764,755.291L340.764,755.291z"/>
	</g>
</g>
<g>
	<g>
		<path d="M322.895,883.099c31.871-1.117,64.181-14.452,76.255-46.011c5.792-15.142,5.52-34.409-0.618-49.373
			c-6.579-16.041-20.405-25.432-36.894-29.479c-9.399-2.307-13.355,12.164-3.961,14.471c12.031,2.953,22.68,9.066,27.258,21.155
			c4.822,12.731,4.148,27.753-0.672,40.352c-9.229,24.124-37.805,33.06-61.261,33.882
			C313.348,868.434,313.229,883.438,322.895,883.099L322.895,883.099z"/>
	</g>
</g>
<g>
	<g>
		<path d="M327.016,739.101c0.332-0.288,2.1-1.444,1.729-1.299c0.705-0.276,1.043-0.107,0.425-0.24
			c-0.51-0.109-0.363-0.28,0.159,0.22c0.125,0.121,0.918,1.504,0.775,1.149c1.323,3.286,1.189,7.774,0.016,9.215
			c-0.42,0.515-1.862,1.243-2.167,1.183c0.258,0.051-0.386-0.109-0.853-0.536c-0.74-0.677-1.225-1.622-1.869-2.866
			c-1.776-3.432-2.042-9.857-0.85-12.148c4.454-8.562-8.518-16.099-12.99-7.5c-4.614,8.87-3.104,20.433,1.797,28.878
			c5.878,10.129,19.356,12.16,27.596,3.541c6.922-7.24,6.432-19.319,2.038-27.659c-5.82-11.049-18.247-9.638-26.471-2.487
			C309.051,734.896,319.747,745.42,327.016,739.101L327.016,739.101z"/>
	</g>
</g>
<g>
	<g>
		<path d="M501.218,763.645c4.789-5.954,11.83-8.672,17.041-1.456c4.609,6.381,2.745,15.048-3.817,19.367
			c-5.168,3.401-12.233,1.796-16.701-2.187c-2.354-2.098-3.658-4.5-3.823-7.017c-0.254-3.853,2.086-7.18,4.77-9.974
			c6.69-6.964-3.945-17.546-10.664-10.551c-10.514,10.944-12.326,26.169-1.48,37.58c9.178,9.657,25.17,11.883,36.328,4.538
			c13.256-8.725,17.053-27.273,7.726-40.188c-10.278-14.23-29.168-14.187-40.042-0.664c-2.557,3.179-3.078,7.513,0.057,10.608
			C493.294,766.353,498.65,766.838,501.218,763.645L501.218,763.645z"/>
	</g>
</g>
<g>
	<g>
		<path d="M498.511,788.696c0,17.299,0,34.599,0,51.898c0,9.686,15.004,9.771,15.004,0.107c0-17.299,0-34.599,0-51.898
			C513.515,779.118,498.511,779.032,498.511,788.696L498.511,788.696z"/>
	</g>
</g>
<g>
	<g>
		<path d="M502.215,836.709c-14.29,8.105-23.367,21.402-33.181,34.106c-2.494,3.229-3.121,7.471,0.057,10.607
			c2.642,2.609,8.102,3.188,10.607-0.057c8.918-11.544,17.126-24.352,30.112-31.718
			C518.218,844.879,510.637,831.933,502.215,836.709L502.215,836.709z"/>
	</g>
</g>
<g>
	<g>
		<path d="M498.206,857.373c9.571,10.807,20.589,20.575,33.17,27.745c8.408,4.792,15.913-8.195,7.5-12.99
			c-11.529-6.57-21.352-15.521-30.119-25.419C502.343,839.466,491.812,850.156,498.206,857.373L498.206,857.373z"/>
	</g>
</g>
<g>
	<g>
		<path d="M498.471,806.564c-9.813,0.062-20.36,2.211-29.997-0.259c-10.227-2.621-12.377-14.606-12.2-23.656
			c0.242-12.373,4.99-24.693,10.401-35.648c5.13-10.388,11.514-20.37,19.354-28.925c6.514-7.106-4.108-17.705-10.664-10.551
			c-18.593,20.287-34.236,49.565-34.114,77.625c0.058,13.336,5.664,28.104,18.533,33.866c12.102,5.418,25.802,2.632,38.58,2.552
			C508.046,821.507,508.137,806.503,498.471,806.564L498.471,806.564z"/>
	</g>
</g>
<g>
	<g>
		<path d="M475.983,695.754c3.498,13.953,7.188,27.832,7.338,42.309c0.1,9.68,15.104,9.774,15.004,0.107
			c-0.163-15.81-4.033-31.058-7.854-46.299C488.118,682.483,473.633,686.38,475.983,695.754L475.983,695.754z"/>
	</g>
</g>
<g>
	<g>
		<path d="M486.311,701.048c14.076,2.454,28.181,2.796,42.434,2.798c9.687,0.001,9.771-15.003,0.107-15.004
			c-12.902-0.001-25.831-0.042-38.58-2.265C480.808,684.928,476.789,699.388,486.311,701.048L486.311,701.048z"/>
	</g>
</g>
<g>
	<g>
		<path d="M485.705,744.352c15.984-0.105,31.864-2.487,47.565-5.32c9.524-1.718,5.565-16.193-3.883-14.488
			c-14.415,2.601-28.898,4.709-43.575,4.805C476.131,729.412,476.039,744.416,485.705,744.352L485.705,744.352z"/>
	</g>
</g>
<g>
	<g>
		<path d="M518.764,696.291c0,10.126,0,20.253,0,30.38c0,9.686,15.004,9.771,15.004,0.107c0-10.126,0-20.253,0-30.38
			C533.768,686.712,518.764,686.626,518.764,696.291L518.764,696.291z"/>
	</g>
</g>
<g>
	<g>
		<path d="M500.896,824.099c31.87-1.117,64.181-14.452,76.254-46.011c5.793-15.142,5.521-34.409-0.617-49.373
			c-6.579-16.041-20.405-25.432-36.894-29.479c-9.399-2.307-13.355,12.164-3.961,14.471c12.031,2.953,22.681,9.066,27.258,21.155
			c4.822,12.731,4.148,27.753-0.671,40.352c-9.23,24.124-37.806,33.06-61.262,33.882
			C491.348,809.434,491.229,824.438,500.896,824.099L500.896,824.099z"/>
	</g>
</g>
<g>
	<g>
		<path d="M505.015,680.101c0.332-0.288,2.101-1.444,1.729-1.299c0.705-0.276,1.043-0.107,0.425-0.24
			c-0.51-0.109-0.362-0.28,0.159,0.22c0.126,0.121,0.918,1.504,0.775,1.149c1.322,3.286,1.188,7.774,0.015,9.215
			c-0.42,0.515-1.862,1.243-2.166,1.183c0.258,0.051-0.386-0.109-0.853-0.536c-0.74-0.677-1.225-1.622-1.869-2.866
			c-1.775-3.431-2.041-9.857-0.85-12.148c4.453-8.562-8.518-16.099-12.99-7.5c-4.614,8.87-3.104,20.433,1.797,28.878
			c5.878,10.129,19.355,12.16,27.596,3.541c6.923-7.24,6.433-19.319,2.038-27.659c-5.82-11.049-18.247-9.638-26.471-2.487
			C487.051,675.896,497.747,686.42,505.015,680.101L505.015,680.101z"/>
	</g>
</g>
<g>
	<g>
		<path d="M654.218,818.645c4.789-5.954,11.83-8.672,17.041-1.456c4.609,6.381,2.745,15.048-3.817,19.367
			c-5.168,3.401-12.233,1.796-16.701-2.187c-2.354-2.098-3.658-4.5-3.823-7.017c-0.254-3.853,2.086-7.18,4.77-9.974
			c6.69-6.964-3.945-17.546-10.664-10.551c-10.514,10.944-12.326,26.169-1.48,37.58c9.178,9.657,25.17,11.883,36.328,4.538
			c13.256-8.725,17.053-27.273,7.726-40.188c-10.278-14.23-29.168-14.187-40.042-0.664c-2.557,3.179-3.078,7.513,0.057,10.608
			C646.294,821.353,651.65,821.838,654.218,818.645L654.218,818.645z"/>
	</g>
</g>
<g>
	<g>
		<path d="M651.511,843.696c0,17.299,0,34.599,0,51.898c0,9.686,15.004,9.771,15.004,0.107c0-17.299,0-34.599,0-51.898
			C666.515,834.118,651.511,834.032,651.511,843.696L651.511,843.696z"/>
	</g>
</g>
<g>
	<g>
		<path d="M655.215,891.709c-14.29,8.105-23.367,21.402-33.181,34.106c-2.494,3.229-3.121,7.471,0.057,10.607
			c2.642,2.609,8.102,3.188,10.607-0.057c8.918-11.544,17.126-24.352,30.112-31.718
			C671.218,899.879,663.637,886.933,655.215,891.709L655.215,891.709z"/>
	</g>
</g>
<g>
	<g>
		<path d="M651.206,912.373c9.571,10.807,20.589,20.575,33.17,27.745c8.408,4.792,15.913-8.195,7.5-12.99
			c-11.529-6.57-21.352-15.521-30.119-25.419C655.343,894.466,644.812,905.156,651.206,912.373L651.206,912.373z"/>
	</g>
</g>
<g>
	<g>
		<path d="M651.471,861.564c-9.813,0.062-20.36,2.211-29.997-0.259c-10.227-2.621-12.377-14.606-12.2-23.656
			c0.242-12.373,4.99-24.693,10.401-35.648c5.13-10.388,11.514-20.37,19.354-28.925c6.514-7.106-4.108-17.705-10.664-10.551
			c-18.593,20.287-34.236,49.565-34.114,77.625c0.058,13.336,5.664,28.104,18.533,33.866c12.102,5.418,25.802,2.632,38.58,2.552
			C661.046,876.507,661.137,861.503,651.471,861.564L651.471,861.564z"/>
	</g>
</g>
<g>
	<g>
		<path d="M628.983,750.754c3.498,13.953,7.188,27.832,7.338,42.309c0.1,9.68,15.104,9.774,15.004,0.107
			c-0.163-15.81-4.033-31.058-7.854-46.299C641.118,737.483,626.633,741.38,628.983,750.754L628.983,750.754z"/>
	</g>
</g>
<g>
	<g>
		<path d="M639.311,756.048c14.076,2.454,28.181,2.796,42.434,2.798c9.687,0.001,9.771-15.003,0.107-15.004
			c-12.902-0.001-25.831-0.042-38.58-2.265C633.808,739.928,629.789,754.388,639.311,756.048L639.311,756.048z"/>
	</g>
</g>
<g>
	<g>
		<path d="M638.705,799.352c15.984-0.105,31.864-2.487,47.565-5.32c9.524-1.718,5.565-16.193-3.883-14.488
			c-14.415,2.601-28.898,4.709-43.575,4.805C629.131,784.412,629.039,799.416,638.705,799.352L638.705,799.352z"/>
	</g>
</g>
<g>
	<g>
		<path d="M671.764,751.291c0,10.126,0,20.253,0,30.38c0,9.686,15.004,9.771,15.004,0.107c0-10.126,0-20.253,0-30.38
			C686.768,741.712,671.764,741.626,671.764,751.291L671.764,751.291z"/>
	</g>
</g>
<g>
	<g>
		<path d="M653.896,879.099c31.87-1.117,64.181-14.452,76.254-46.011c5.793-15.142,5.521-34.409-0.617-49.373
			c-6.579-16.041-20.405-25.432-36.894-29.479c-9.399-2.307-13.355,12.164-3.961,14.471c12.031,2.953,22.681,9.066,27.258,21.155
			c4.822,12.731,4.148,27.753-0.671,40.352c-9.23,24.124-37.806,33.06-61.262,33.882
			C644.348,864.434,644.229,879.438,653.896,879.099L653.896,879.099z"/>
	</g>
</g>
<g>
	<g>
		<path d="M658.015,735.101c0.332-0.288,2.101-1.444,1.729-1.299c0.705-0.276,1.043-0.107,0.425-0.24
			c-0.51-0.109-0.362-0.28,0.159,0.22c0.126,0.121,0.918,1.504,0.775,1.149c1.322,3.286,1.188,7.774,0.015,9.215
			c-0.42,0.515-1.862,1.243-2.166,1.183c0.258,0.051-0.386-0.109-0.853-0.536c-0.74-0.677-1.225-1.622-1.869-2.866
			c-1.776-3.431-2.041-9.857-0.85-12.148c4.453-8.562-8.518-16.099-12.99-7.5c-4.614,8.87-3.104,20.433,1.797,28.878
			c5.878,10.129,19.355,12.16,27.596,3.541c6.923-7.24,6.433-19.319,2.038-27.659c-5.82-11.049-18.247-9.638-26.471-2.487
			C640.051,730.896,650.747,741.42,658.015,735.101L658.015,735.101z"/>
	</g>
</g>
<g>
	<g>
		<path d="M344.25,570.795c48.948-0.017,97.887-1.249,146.835-1.266c9.686-0.003,9.771-15.007,0.107-15.004
			c-48.948,0.017-97.886,1.25-146.834,1.266C334.672,555.795,334.586,570.798,344.25,570.795L344.25,570.795z"/>
	</g>
</g>
<g>
	<g>
		<path d="M347.75,557.555c-2.507-15.688-2.26-31.637-2.277-47.475c-0.017-16.288-0.182-32.575-0.365-48.862
			c-0.366-32.687-0.824-65.374-0.536-98.063c0.288-32.71,1.416-65.422,4.115-98.028c2.653-32.048,6.811-63.953,9.498-96.009
			c2.421-28.88,4.208-57.812,5.012-86.783c0.269-9.694-14.735-9.753-15.003-0.108c-0.838,30.205-2.774,60.356-5.322,90.461
			c-2.719,32.131-6.913,64.111-9.508,96.244c-5.268,65.217-3.938,130.738-3.215,196.093c0.18,16.282,0.318,32.564,0.323,48.847
			c0.006,15.939,0.268,31.79,2.789,47.564C334.787,570.985,349.261,567.007,347.75,557.555L347.75,557.555z"/>
	</g>
</g>
<g>
	<g>
		<path d="M360.705,83.453c39.48,2.628,79.071,4.861,118.451-0.257c4.065-0.529,6.255-5.633,5.303-9.186
			c-1.164-4.344-5.132-5.831-9.186-5.304c-37.916,4.929-76.468,2.272-114.46-0.257C351.134,67.806,351.11,82.814,360.705,83.453
			L360.705,83.453z"/>
	</g>
</g>
<g>
	<g>
		<path d="M494.844,564.613c-6.764-64.968-6.174-130.365-5.041-195.587c1.14-65.625,1.582-131.256,1.786-196.892
			c0.068-21.858-0.028-43.718-0.459-65.572c-0.256-13,1.726-28.575-3.647-40.738c-1.654-3.745-7.05-4.558-10.268-2.672
			c-3.825,2.242-4.322,6.531-2.672,10.268c-0.766-1.734,0.091,0.787,0.135,0.97c0.234,0.964,0.369,1.955,0.517,2.935
			c0.327,2.168,0.374,4.418,0.498,6.605c0.312,5.518,0.339,11.054,0.349,16.579c0.029,15.889,0.49,31.781,0.546,47.672
			c0.117,33.118-0.295,66.235-0.471,99.353c-0.349,65.307-2.233,130.624-2.012,195.929c0.138,40.406,1.55,80.838,5.735,121.042
			c0.423,4.063,3.026,7.526,7.448,7.556C491.029,572.085,495.268,568.685,494.844,564.613L494.844,564.613z"/>
	</g>
</g>
<g>
	<g>
		<path d="M368.447,497.416c0.001,20.148,0.206,40.212,2.789,60.223c0.525,4.066,5.635,6.255,9.186,5.304
			c4.347-1.165,5.827-5.132,5.304-9.186c-2.404-18.621-2.274-37.495-2.274-56.233C383.451,487.838,368.447,487.752,368.447,497.416
			L368.447,497.416z"/>
	</g>
</g>
<g>
	<g>
		<path d="M377.161,501.174c23.213,0,46.434-0.012,69.621-1.266c9.629-0.521,9.765-15.525,0.107-15.003
			c-23.186,1.253-46.407,1.265-69.62,1.266C367.583,486.171,367.497,501.175,377.161,501.174L377.161,501.174z"/>
	</g>
</g>
<g>
	<g>
		<path d="M443.131,491.087c0,22.785,0,45.57,0,68.354c0,9.687,15.004,9.772,15.004,0.108c0-22.785,0-45.57,0-68.354
			C458.135,481.509,443.131,481.423,443.131,491.087L443.131,491.087z"/>
	</g>
</g>
<g>
	<g>
		<path d="M402.625,499.948c1.201,19.813,1.265,39.652,1.266,59.494c0,9.687,15.003,9.772,15.003,0.108
			c0-19.842-0.064-39.681-1.266-59.494C417.045,490.438,402.04,490.296,402.625,499.948L402.625,499.948z"/>
	</g>
</g>
<g>
	<g>
		<path d="M356.046,390.551c2.296,14.019,3.491,28.102,3.541,42.309c0.034,9.685,15.037,9.773,15.003,0.108
			c-0.054-15.548-1.542-30.961-4.054-46.299C368.973,377.124,354.499,381.098,356.046,390.551L356.046,390.551z"/>
	</g>
</g>
<g>
	<g>
		<path d="M366.374,399.642c8.651,1.354,16.786,1.364,25.44,0.01c4.047-0.634,6.276-5.555,5.304-9.186
			c-1.144-4.267-5.148-5.936-9.186-5.304c-5.825,0.912-11.771,0.921-17.598,0.01c-4.04-0.632-8.044,0.989-9.215,5.254
			C360.128,394.033,362.333,399.01,366.374,399.642L366.374,399.642z"/>
	</g>
</g>
<g>
	<g>
		<path d="M370.832,448.01c7.057-0.002,14.025-0.236,20.982-1.522c4.026-0.745,6.298-5.473,5.304-9.186
			c-1.122-4.185-5.167-6.047-9.186-5.304c-5.606,1.037-11.309,1.006-16.992,1.009C361.254,433.01,361.168,448.014,370.832,448.01
			L370.832,448.01z"/>
	</g>
</g>
<g>
	<g>
		<path d="M386.169,386.024c0,18.565,0,37.131,0,55.696c0,9.687,15.004,9.772,15.004,0.108c0-18.565,0-37.131,0-55.696
			C401.173,376.446,386.169,376.36,386.169,386.024L386.169,386.024z"/>
	</g>
</g>
<g>
	<g>
		<path d="M424.144,348.049c0.042,14.99,1.228,30.193-2.265,44.909c-2.234,9.411,12.235,13.374,14.47,3.961
			c3.812-16.059,2.844-32.407,2.799-48.762C439.12,338.473,424.117,338.385,424.144,348.049L424.144,348.049z"/>
	</g>
</g>
<g>
	<g>
		<path d="M430.931,354.072c6.721,1.061,13.571,1.281,20.253,2.532c4.019,0.752,8.067-1.076,9.216-5.254
			c1.015-3.695-1.237-8.463-5.255-9.215c-6.705-1.255-13.526-1.47-20.253-2.532c-4.039-0.638-8.045,0.993-9.216,5.254
			C424.684,348.467,426.891,353.435,430.931,354.072L430.931,354.072z"/>
	</g>
</g>
<g>
	<g>
		<path d="M428.399,404.705c7.113,2.75,14.563,3.979,22.18,4.064c9.69,0.109,9.766-14.895,0.107-15.003
			c-6.424-0.072-12.33-1.213-18.326-3.531c-3.822-1.478-8.215,1.614-9.216,5.254C421.979,399.735,424.595,403.234,428.399,404.705
			L428.399,404.705z"/>
	</g>
</g>
<g>
	<g>
		<path d="M450.726,345.518c-1.172,16.354-2.45,32.678-6.062,48.707c-2.124,9.426,12.344,13.4,14.471,3.961
			c3.894-17.277,5.332-34.932,6.596-52.559C466.423,335.951,451.413,335.932,450.726,345.518L450.726,345.518z"/>
	</g>
</g>
<g>
	<g>
		<path d="M359.587,274.631c1.423,16.633,6.173,32.753,7.595,49.367c0.819,9.571,15.827,9.735,15.003,0.108
			c-1.423-16.633-6.173-32.753-7.595-49.367C373.771,265.169,358.763,265.005,359.587,274.631L359.587,274.631z"/>
	</g>
</g>
<g>
	<g>
		<path d="M376.5,280.655c11.848,2.573,23.612,4.018,35.567,1.275c9.438-2.166,5.523-16.646-3.882-14.489
			c-9.282,2.129-18.545,0.737-27.724-1.256C371.026,264.136,367.045,278.602,376.5,280.655L376.5,280.655z"/>
	</g>
</g>
<g>
	<g>
		<path d="M378.427,322.693c7.057-0.002,14.025-0.235,20.982-1.522c4.026-0.745,6.298-5.473,5.304-9.186
			c-1.122-4.185-5.167-6.047-9.186-5.304c-5.606,1.037-11.31,1.006-16.992,1.009C368.849,307.694,368.763,322.697,378.427,322.693
			L378.427,322.693z"/>
	</g>
</g>
<g>
	<g>
		<path d="M404.157,273.971c-3.575,14.646-5.286,29.659-8.861,44.304c-2.294,9.401,12.176,13.359,14.471,3.961
			c3.575-14.646,5.286-29.659,8.86-44.304C420.922,268.531,406.451,264.573,404.157,273.971L404.157,273.971z"/>
	</g>
</g>
<g>
	<g>
		<path d="M417.814,193.619c-0.001,17.154-0.043,34.37-3.531,51.238c-1.953,9.445,12.512,13.435,14.471,3.961
			c3.757-18.171,4.062-36.608,4.064-55.091C432.819,184.041,417.815,183.955,417.814,193.619L417.814,193.619z"/>
	</g>
</g>
<g>
	<g>
		<path d="M420.041,197.74c10.731,8.647,23.552,9.758,36.867,9.764c9.687,0.005,9.771-14.999,0.107-15.003
			c-8.744-0.004-19.201,0.394-26.424-5.426c-3.176-2.56-7.515-3.076-10.608,0.057C417.332,189.818,416.851,195.169,420.041,197.74
			L420.041,197.74z"/>
	</g>
</g>
<g>
	<g>
		<path d="M421.464,264.465c12.565-0.002,25.093-0.181,37.439-2.788c9.475-2.002,5.543-16.48-3.883-14.489
			c-11.011,2.326-22.243,2.272-33.448,2.274C411.886,249.464,411.801,264.467,421.464,264.465L421.464,264.465z"/>
	</g>
</g>
<g>
	<g>
		<path d="M446.928,202.479c0,17.311-0.076,34.621-1.266,51.899c-0.666,9.677,14.344,9.699,15.004,0.108
			c1.188-17.278,1.265-34.588,1.266-51.899C461.932,192.901,446.929,192.816,446.928,202.479L446.928,202.479z"/>
	</g>
</g>
<g>
	<g>
		<path d="M364.416,153.167c7.879,13.089,3.676,30.028-0.766,43.589c-3.021,9.223,11.473,13.112,14.471,3.961
			c5.746-17.543,9.283-38.453-0.766-55.146C372.376,137.3,359.417,144.861,364.416,153.167L364.416,153.167z"/>
	</g>
</g>
<g>
	<g>
		<path d="M377.484,154.645c3.588-2.846,9.099-3.044,13.447-3.208c5.957-0.225,11.919,0.327,17.875,0.37
			c9.69,0.071,9.769-14.932,0.108-15.003c-14.565-0.107-29.881-2.398-42.095,7.289c-3.205,2.542-2.586,7.999,0.057,10.608
			C370.042,157.828,374.281,157.186,377.484,154.645L377.484,154.645z"/>
	</g>
</g>
<g>
	<g>
		<path d="M374.629,196.111c10.095,1.185,20.229,1.264,30.38,1.266c9.687,0.002,9.772-15.001,0.108-15.003
			c-10.151-0.002-20.285-0.082-30.38-1.266c-4.067-0.478-7.531,3.698-7.556,7.447C367.152,192.985,370.572,195.636,374.629,196.111
			L374.629,196.111z"/>
	</g>
</g>
<g>
	<g>
		<path d="M393.764,145.518c0,14.768,0,29.536,0,44.304c0,9.687,15.004,9.772,15.004,0.108c0-14.768,0-29.536,0-44.304
			C408.768,135.939,393.764,135.854,393.764,145.518L393.764,145.518z"/>
	</g>
</g>
<g>
	<g>
		<path d="M372.652,352.391c0.461-0.211,0.925-0.416,1.392-0.614c-0.279,0.117-0.557,0.235-0.836,0.353
			c1.99-0.839,4.067-1.602,6.218-1.896c-0.311,0.042-0.621,0.083-0.931,0.125c0.723-0.095,1.457-0.133,2.183-0.04
			c-0.311-0.042-0.621-0.083-0.931-0.125c0.383,0.052,0.76,0.142,1.117,0.292c-0.278-0.118-0.557-0.235-0.836-0.353
			c0.231,0.1,0.45,0.222,0.65,0.374c-0.236-0.183-0.472-0.365-0.708-0.547c0.176,0.136,0.334,0.291,0.472,0.466
			c-0.183-0.236-0.365-0.472-0.547-0.708c0.147,0.19,0.266,0.398,0.359,0.619c-0.118-0.279-0.235-0.557-0.353-0.836
			c0.112,0.273,0.184,0.559,0.226,0.851c-0.042-0.31-0.083-0.621-0.125-0.931c0.063,0.472,0.047,0.949-0.015,1.42
			c0.042-0.311,0.083-0.621,0.125-0.931c-0.122,0.897-0.401,1.765-0.752,2.597c0.118-0.279,0.235-0.558,0.353-0.836
			c-0.593,1.393-1.392,2.694-2.315,3.891c0.183-0.236,0.365-0.473,0.547-0.708c-0.846,1.09-1.803,2.103-2.895,2.95
			c0.236-0.182,0.472-0.365,0.708-0.547c-0.619,0.476-1.281,0.9-2,1.208c0.279-0.118,0.558-0.235,0.836-0.353
			c-0.422,0.178-0.86,0.313-1.314,0.378c0.31-0.042,0.62-0.083,0.93-0.125c-0.314,0.042-0.631,0.048-0.946,0.008
			c0.31,0.042,0.62,0.083,0.93,0.125c-0.262-0.036-0.517-0.104-0.761-0.207c0.279,0.118,0.557,0.235,0.836,0.353
			c-0.242-0.104-0.466-0.239-0.675-0.399c0.236,0.182,0.472,0.365,0.708,0.547c-0.238-0.188-0.448-0.406-0.636-0.644
			c0.183,0.236,0.365,0.472,0.547,0.708c-0.306-0.396-0.542-0.836-0.737-1.296c0.118,0.279,0.235,0.558,0.353,0.836
			c-0.402-0.966-0.62-1.999-0.761-3.032c0.042,0.311,0.083,0.621,0.125,0.931c-0.305-2.292-0.243-4.625-0.075-6.926
			c0.139-1.905-1.697-3.5-3.5-3.5c-2.013,0-3.361,1.598-3.5,3.5c-0.23,3.148-0.254,6.421,0.51,9.507
			c0.554,2.234,1.762,4.518,3.836,5.68c3.913,2.19,8.237-0.305,11.021-3.134c1.358-1.38,2.561-2.98,3.508-4.669
			c0.854-1.521,1.631-3.237,1.868-4.982c0.174-1.279,0.237-2.292-0.038-3.578c-0.233-1.086-0.832-2.073-1.574-2.883
			c-1.521-1.661-4.013-2.183-6.172-2.013c-3.51,0.275-6.789,1.601-9.96,3.051c-0.785,0.358-1.388,1.291-1.608,2.091
			c-0.249,0.904-0.121,1.889,0.353,2.697c0.458,0.782,1.217,1.368,2.091,1.608C370.934,353.013,371.762,352.798,372.652,352.391
			L372.652,352.391z"/>
	</g>
</g>
<g>
	<g>
		<path d="M371.661,360.261c-0.695,1.569-1.103,3.071-1.019,4.806c0.04,0.822,0.198,1.656,0.36,2.463
			c0.048,0.224,0.096,0.447,0.146,0.67c0.216,0.989-0.008-0.669,0.036,0.157c0.1,1.905,1.517,3.5,3.5,3.5c1.833,0,3.6-1.593,3.5-3.5
			c-0.084-1.616-0.974-3.444-0.478-4.562c0.773-1.745,0.526-3.746-1.255-4.789C374.944,358.123,372.434,358.516,371.661,360.261
			L371.661,360.261z"/>
	</g>
</g>
<g>
	<g>
		<path d="M368.411,372.21c-2.109,2.11-4.219,4.22-6.329,6.329c-3.194,3.195,1.755,8.145,4.95,4.95
			c2.109-2.11,4.219-4.22,6.329-6.329C376.555,373.966,371.605,369.016,368.411,372.21L368.411,372.21z"/>
	</g>
</g>
<g>
	<g>
		<path d="M368.411,377.161c3.811,3.81,7.639,7.618,12.101,10.673c3.736,2.558,7.232-3.511,3.533-6.044
			c-3.952-2.706-7.31-6.207-10.684-9.58C370.166,369.017,365.216,373.966,368.411,377.161L368.411,377.161z"/>
	</g>
</g>
<g>
	<g>
		<path d="M372.152,373.123c7.078-0.136,13.283-3.006,17.665-8.62c2.742-3.514-2.175-8.506-4.95-4.95
			c-3.285,4.209-7.334,6.467-12.715,6.57C367.644,366.209,367.635,373.209,372.152,373.123L372.152,373.123z"/>
	</g>
</g>
<g>
	<g>
		<path d="M369.62,366.123c-0.822-0.021-0.652-0.009-1.414-0.236c0.508,0.152-0.507-0.257-0.519-0.263
			c-0.861-0.482,0.269,0.313-0.479-0.341c-0.878-0.769-1.41-1.778-1.809-2.92c-0.63-1.799-2.371-2.977-4.306-2.444
			c-1.744,0.48-3.075,2.504-2.444,4.306c1.757,5.018,5.411,8.761,10.97,8.899C374.137,373.235,374.126,366.234,369.62,366.123
			L369.62,366.123z"/>
	</g>
</g>
<g>
	<g>
		<path d="M427.083,281.505c1.112-0.575,2.238-1.123,3.386-1.624c0.122-0.054,0.245-0.106,0.368-0.159
			c-1.134,0.483-0.609,0.257-0.356,0.153c0.229-0.094,0.461-0.186,0.692-0.275c0.461-0.178,0.928-0.343,1.396-0.496
			c0.753-0.246,1.52-0.452,2.299-0.595c0.343-0.063,1.126-0.163-0.375,0.039c0.148-0.02,0.298-0.035,0.447-0.048
			c0.291-0.025,0.584-0.033,0.877-0.023c0.121,0.004,0.242,0.013,0.363,0.025c0.562,0.054-1.172-0.184-0.538-0.069
			c0.219,0.04,0.433,0.101,0.641,0.18c-0.871-0.33-0.804-0.405-0.307-0.082c0.468,0.304-0.839-0.678-0.468-0.366
			c0.074,0.063,0.144,0.133,0.21,0.205c0.371,0.404-0.645-0.872-0.366-0.48c0.048,0.068,0.091,0.14,0.132,0.212
			c0.392,0.693-0.357-1.055-0.123-0.281c0.116,0.381,0.197,1.266-0.007-0.348c0.027,0.212,0.034,0.427,0.031,0.641
			c-0.002,0.213-0.02,0.426-0.043,0.638c0.141-1.243,0.111-0.705-0.01-0.138c-0.11,0.518-0.268,1.025-0.445,1.523
			c-0.092,0.259-0.193,0.514-0.298,0.768c0.614-1.482,0.115-0.283-0.06,0.082c-0.271,0.57-0.57,1.126-0.886,1.673
			c-0.329,0.571-0.683,1.129-1.051,1.676c-0.18,0.268-0.365,0.531-0.553,0.793c-0.233,0.324-1.093,1.436-0.132,0.197
			c-0.807,1.04-1.682,2.029-2.626,2.946c-0.439,0.427-0.897,0.835-1.372,1.223c-0.257,0.209-0.823,0.637,0.323-0.244
			c-0.108,0.083-0.218,0.165-0.329,0.245c-0.23,0.167-0.467,0.327-0.707,0.48c-0.423,0.269-0.865,0.508-1.325,0.708
			c1.44-0.624,0.55-0.226,0.175-0.109c-0.208,0.064-0.421,0.113-0.637,0.149c0.945-0.158,0.938-0.077,0.324-0.075
			c-0.09,0-0.18-0.005-0.269-0.013c-0.502-0.042,1.219,0.206,0.584,0.071c-0.557-0.118-0.588-0.236,0.307,0.174
			c-0.365-0.167-1.015-0.738,0.188,0.22c-0.147-0.118-0.279-0.254-0.4-0.397c-0.333-0.392,0.676,0.924,0.334,0.424
			c-0.071-0.104-0.135-0.213-0.196-0.324c-0.056-0.101-0.106-0.205-0.155-0.31c-0.235-0.508,0.425,1.068,0.189,0.437
			c-0.104-0.279-0.185-0.566-0.255-0.856c-0.054-0.225-0.098-0.453-0.136-0.682c-0.056-0.328-0.134-1.015,0.053,0.434
			c-0.019-0.146-0.034-0.292-0.048-0.439c-0.062-0.629-0.079-1.262-0.078-1.894c0.001-0.755,0.041-1.509,0.099-2.262
			c0.034-0.449,0.079-0.897,0.128-1.345c0.026-0.238,0.055-0.476,0.085-0.714c0.108-0.873-0.13,0.925-0.005,0.037
			c0.267-1.888-0.431-3.752-2.444-4.306c-1.659-0.457-4.038,0.552-4.306,2.444c-0.594,4.197-1.068,8.567,0.626,12.568
			c1.27,3,4.555,4.2,7.577,3.488c2.606-0.614,4.923-2.511,6.784-4.343c2.069-2.037,3.881-4.423,5.331-6.937
			c1.382-2.393,2.522-5.063,2.654-7.856c0.144-3.041-1.761-5.937-4.825-6.576c-2.024-0.422-4.085-0.133-6.058,0.42
			c-2.761,0.774-5.41,2.034-7.949,3.347c-1.693,0.875-2.182,3.208-1.255,4.789C423.295,281.958,425.388,282.381,427.083,281.505
			L427.083,281.505z"/>
	</g>
</g>
<g>
	<g>
		<path d="M424.473,295.274c-1.357,4.385-1.357,8.869,0,13.254c1.33,4.298,8.088,2.463,6.75-1.861c-1.01-3.262-1.01-6.27,0-9.531
			C432.561,292.811,425.803,290.976,424.473,295.274L424.473,295.274z"/>
	</g>
</g>
<g>
	<g>
		<path d="M428.778,308.02c-5.393-1.203-9.747-4.131-13.645-7.961c-3.222-3.164-8.174,1.783-4.95,4.95
			c4.712,4.628,10.217,8.307,16.734,9.761C431.314,315.75,433.184,309.002,428.778,308.02L428.778,308.02z"/>
	</g>
</g>
<g>
	<g>
		<path d="M421.854,309.285c-5.988,1.214-11.773,2.742-17.292,5.417c-4.062,1.968-0.51,8.003,3.533,6.044
			c4.942-2.395,10.264-3.625,15.62-4.71C428.138,315.138,426.261,308.392,421.854,309.285L421.854,309.285z"/>
	</g>
</g>
<g>
	<g>
		<path d="M420.253,304.097c-2.823-0.055-5.56-0.799-7.651-2.773c-3.28-3.094-8.239,1.847-4.95,4.95
			c3.454,3.258,7.903,4.73,12.602,4.823C424.77,311.186,424.761,304.186,420.253,304.097L420.253,304.097z"/>
	</g>
</g>
<g>
	<g>
		<path d="M423.715,300.424c-3.735-0.995-7.07-2.723-9.848-5.429c-3.234-3.149-8.188,1.796-4.95,4.95
			c3.624,3.529,8.059,5.929,12.937,7.229C426.222,308.338,428.073,301.585,423.715,300.424L423.715,300.424z"/>
	</g>
</g>
<g>
	<g>
		<path d="M405.906,31.312c0.912-3.227,2.687-6.169,6.417-5.194c3.456,0.903,5.036,4.645,4.931,7.883
			c-0.311,9.609-12.79,10.84-15.146,1.779c-1.135-4.366-7.887-2.512-6.75,1.861c1.795,6.904,7.543,11.859,14.841,11.562
			c8.126-0.331,13.249-7.731,14.055-15.203c0.709-6.582-4.106-12.581-10.07-14.633c-7.403-2.548-13.181,3.549-15.028,10.083
			C397.925,33.804,404.68,35.649,405.906,31.312L405.906,31.312z"/>
	</g>
</g>
<g>
	<g>
		<path d="M404.095,50.635c0.002,5.844,0.055,11.667,1.391,17.387c1.026,4.395,7.776,2.531,6.75-1.861
			c-1.192-5.102-1.139-10.314-1.141-15.525C411.093,46.121,404.093,46.121,404.095,50.635L404.095,50.635z"/>
	</g>
</g>
<g>
	<g>
		<path d="M404.573,65.324c-2.226,3.222-5.547,5.442-8.314,8.152c-3.229,3.163,1.725,8.11,4.95,4.95
			c3.242-3.177,6.794-5.785,9.408-9.569c1.086-1.572,0.297-3.879-1.255-4.789C407.622,63.049,405.654,63.758,404.573,65.324
			L404.573,65.324z"/>
	</g>
</g>
<g>
	<g>
		<path d="M401.266,58.527c-16.154-1.472-17.964-18.934-18.019-31.943c-0.019-4.513-7.019-4.515-7,0
			c0.074,17.52,4.43,37.067,25.019,38.943C405.762,65.937,405.723,58.934,401.266,58.527L401.266,58.527z"/>
	</g>
</g>
<g>
	<g>
		<path d="M405.063,62.996c19.883,1.039,36.543-7.178,44.794-25.784c1.812-4.087-4.218-7.652-6.045-3.533
			c-3.191,7.197-7.588,13.42-14.376,17.596c-7.252,4.461-16.078,5.154-24.374,4.721C400.55,55.76,400.573,62.761,405.063,62.996
			L405.063,62.996z"/>
	</g>
</g>
<g>
	<g>
		<path d="M439.575,107.174c5.399,1.723,8.104,7.567,2.236,10.602c-2.105,1.089-4.842,0.799-5.61-1.637
			c-0.881-2.792,1.352-5.434,3.54-6.787c3.831-2.367,0.318-8.424-3.533-6.044c-5.058,3.125-7.75,8.167-6.892,14.095
			c0.893,6.17,7.143,8.398,12.536,7.672c5.943-0.799,10.985-6.597,10.43-12.578c-0.556-5.978-5.385-10.331-10.846-12.074
			C437.124,99.048,435.292,105.808,439.575,107.174L439.575,107.174z"/>
	</g>
</g>
<g>
	<g>
		<path d="M433.334,124.388c-1.434,4.677-1.434,9.843,0,14.52c1.319,4.302,8.077,2.466,6.75-1.861
			c-1.089-3.551-1.089-7.246,0-10.797C441.41,121.921,434.653,120.085,433.334,124.388L433.334,124.388z"/>
	</g>
</g>
<g>
	<g>
		<path d="M433.687,140.008c-2.226,3.222-5.546,5.442-8.314,8.152c-3.229,3.163,1.724,8.109,4.95,4.95
			c3.243-3.176,6.795-5.784,9.409-9.569c1.086-1.572,0.296-3.879-1.256-4.789C436.735,137.733,434.769,138.441,433.687,140.008
			L433.687,140.008z"/>
	</g>
</g>
<g>
	<g>
		<path d="M430.802,143.971c1.764,5.037,4.812,9.167,9.203,12.218c3.718,2.583,7.212-3.488,3.533-6.044
			c-2.81-1.952-4.861-4.82-5.986-8.035C436.07,137.878,429.307,139.698,430.802,143.971L430.802,143.971z"/>
	</g>
</g>
<g>
	<g>
		<path d="M430.88,131.157c-13.968-9.892-9.43-32.696-5.986-46.68c1.079-4.384-5.671-6.243-6.75-1.861
			c-4.354,17.686-7.945,42.442,9.204,54.585C431.04,139.816,434.532,133.743,430.88,131.157L430.88,131.157z"/>
	</g>
</g>
<g>
	<g>
		<path d="M434.177,140.211c25.555,0.811,28.787-26.962,28.816-46.538c0.007-4.514-6.993-4.514-7,0
			c-0.023,15.425-0.904,40.202-21.816,39.538C429.66,133.068,429.674,140.068,434.177,140.211L434.177,140.211z"/>
	</g>
</g>
<g>
	<g>
		<path d="M190.716,658.565c-3.534-14.8-3.175-30.102-2.373-45.194c0.795-14.949,1.78-29.89,2.6-44.839
			c1.674-30.527,3.774-61.179,10.477-91.083c5.633-25.127,15.027-50.128,25.309-73.707c9.601-22.016,21.636-43.147,37.87-60.972
			c13.735-15.081,30.958-27.917,49.879-35.707c22.673-9.333,47.648-7.403,71.597-7.359c4.515,0.008,4.514-6.992,0-7
			c-14.525-0.027-29.067-0.65-43.555,0.708c-14.32,1.343-27.831,5.273-40.602,11.874c-21.315,11.018-39.237,27.257-53.657,46.308
			c-14.439,19.075-24.794,40.924-33.592,63.062c-9.876,24.852-18.495,50.333-23.147,76.709c-4.912,27.857-6.458,56.205-7.973,84.407
			c-1.493,27.801-6.135,57.218,0.416,84.653C185.015,664.816,191.764,662.954,190.716,658.565L190.716,658.565z"/>
	</g>
</g>
<g>
	<g>
		<path d="M329.604,727.349c-24.172-42.967-34.99-93.02-39.957-141.656c-4.921-48.178-4.35-98.403,5.945-145.884
			c5.983-27.596,21.754-56.371,46.681-70.962c3.892-2.278,0.371-8.33-3.533-6.044c-42.888,25.105-52.824,77.848-56.914,123.243
			c-4.526,50.238-1.501,101.582,8.571,150.992c6.628,32.513,16.84,64.829,33.164,93.845
			C325.773,734.816,331.82,731.289,329.604,727.349L329.604,727.349z"/>
	</g>
</g>
<g>
	<g>
		<path d="M504.641,669.288c6.05-29.479,19.102-56.757,30.911-84.236c11.848-27.571,20.99-55.692,26.654-85.194
			c11.521-60.01,9.759-122.114-0.565-182.15c-5.678-33.015-14.54-66.192-27.132-97.25c-12.284-30.299-29.442-58.797-53.554-81.158
			c-3.304-3.064-8.266,1.875-4.949,4.95c39.031,36.197,58.144,87.395,70.751,137.908c14.527,58.206,19.842,118.763,14.051,178.545
			c-3.537,36.504-11.825,72.59-25.414,106.673c-13.187,33.072-30.29,64.905-37.503,100.05
			C496.986,671.833,503.733,673.708,504.641,669.288L504.641,669.288z"/>
	</g>
</g>
<g>
	<g>
		<path d="M657.93,721.521c0.082-7.371,1.071-14.625,2.212-21.897c1.253-7.989,2.015-16.086,3.396-24.045
			c2.709-15.604,5.013-31.273,7.082-46.973c4.221-32.016,7.149-64.191,9.498-96.394c4.405-60.403,7.225-121.227,4.47-181.776
			c-2.663-58.532-11.686-117.221-33.081-172.011c-9.548-24.451-21.63-46.926-38.221-67.33
			c-16.328-20.079-36.196-37.481-58.419-50.757c-25.943-15.5-56.149-24.572-86.512-22.062c-4.466,0.369-4.501,7.372,0,7
			c53.333-4.408,102.256,27.233,136,66.036c36.943,42.482,54.139,99.441,64.059,153.88c10.664,58.515,11.22,118.44,9.423,177.714
			c-1.93,63.619-6.345,127.437-14.859,190.53c-1.037,7.687-2.166,15.36-3.354,23.024c-1.132,7.292-2.966,14.682-3.629,22.024
			c-1.3,14.395-4.902,28.541-5.063,43.038C650.88,726.037,657.88,726.032,657.93,721.521L657.93,721.521z"/>
	</g>
</g>
<g>
	<g>
		<path d="M204.157,281.566c-23.138,109.821-49.676,220.39-98.03,322.231c-16.568,34.896-35.84,68.53-58.192,100.05
			c-5.601,7.898,7.439,15.327,12.99,7.5c65.53-92.405,103.305-201.325,131.184-310.207c9.809-38.308,18.366-76.924,26.518-115.614
			C220.616,276.085,206.152,272.099,204.157,281.566L204.157,281.566z"/>
	</g>
</g>
<g>
	<g>
		<path d="M14.274,444.981c14.049,71.229,34.002,141.175,46.835,212.658c1.71,9.525,16.186,5.565,14.489-3.883
			c-12.833-71.482-32.787-141.428-46.835-212.657C26.889,431.599,12.413,435.543,14.274,444.981L14.274,444.981z"/>
	</g>
</g>
<g>
	<g>
		<path d="M64.907,396.879c22.547,66.818,30.308,137.326,49.367,205.063c2.618,9.305,17.11,5.434,14.489-3.882
			c-19.06-67.737-26.82-138.246-49.367-205.063C76.319,383.879,61.812,387.705,64.907,396.879L64.907,396.879z"/>
	</g>
</g>
<g>
	<g>
		<path d="M110.477,270.297c13.834,61.923,21.497,124.97,32.912,187.342c1.743,9.521,16.218,5.564,14.489-3.882
			c-11.416-62.372-19.078-125.419-32.912-187.342C122.854,256.964,108.374,260.885,110.477,270.297L110.477,270.297z"/>
	</g>
</g>
<g>
	<g>
		<path d="M145.919,248.778c16.829,47.987,32.387,97.691,36.452,148.638c0.765,9.583,15.772,9.742,15.003,0.108
			c-4.18-52.384-19.657-103.271-36.966-152.628C157.228,235.828,142.716,239.643,145.919,248.778L145.919,248.778z"/>
	</g>
</g>
<g>
	<g>
		<path d="M20.419,458.182c15.807-24.19,34.186-46.441,53.268-68.095c6.362-7.219-4.249-17.832-10.665-10.551
			c-19.915,22.599-39.097,45.9-55.593,71.146C2.127,458.795,15.146,466.252,20.419,458.182L20.419,458.182z"/>
	</g>
</g>
<g>
	<g>
		<path d="M26.441,291.142c15.303,33.539,21.733,71.117,25.551,107.541c0.425,4.062,3.023,7.526,7.447,7.556
			c3.74,0.025,7.982-3.375,7.556-7.447c-4.12-39.315-11.102-79.056-27.614-115.245c-1.699-3.724-7.018-4.577-10.268-2.672
			C25.32,283.098,24.746,287.425,26.441,291.142L26.441,291.142z"/>
	</g>
</g>
<g>
	<g>
		<path d="M54.431,279.889c16.46-8.782,33.767-15.72,51.308-22.01c9.038-3.241,5.229-17.756-3.882-14.489
			c-18.779,6.734-37.4,14.159-55.021,23.56C38.302,271.502,45.905,284.438,54.431,279.889L54.431,279.889z"/>
	</g>
</g>
<g>
	<g>
		<path d="M105.414,246.247c3.447,16.878,2.225,34.117,1.009,51.169c-0.69,9.675,14.32,9.695,15.003,0.108
			c1.318-18.486,2.211-36.875-1.522-55.16C117.965,232.876,103.488,236.814,105.414,246.247L105.414,246.247z"/>
	</g>
</g>
<g>
	<g>
		<path d="M111.393,250.775c29.277-21.508,61.862-37.986,91.139-59.494c3.292-2.418,4.901-6.465,2.672-10.268
			c-1.907-3.252-6.968-5.095-10.268-2.672c-29.277,21.508-61.862,37.986-91.139,59.494c-3.292,2.418-4.901,6.465-2.672,10.268
			C103.032,251.356,108.093,253.199,111.393,250.775L111.393,250.775z"/>
	</g>
</g>
<g>
	<g>
		<path d="M191.232,179.694c-0.041,40.944-2.492,81.841-2.532,122.785c-0.01,9.687,14.994,9.771,15.003,0.108
			c0.041-40.944,2.492-81.841,2.532-122.785C206.245,170.116,191.242,170.031,191.232,179.694L191.232,179.694z"/>
	</g>
</g>
<g>
	<g>
		<path d="M153.11,248.01c10.616-0.162,20.936-2.442,31.109-5.32c9.301-2.631,5.431-17.124-3.882-14.489
			c-8.91,2.521-17.817,4.664-27.119,4.807C143.542,233.155,143.443,248.158,153.11,248.01L153.11,248.01z"/>
	</g>
</g>
<g>
	<g>
		<path d="M697.327,317.724c56.965,97.962,69.311,213.635,99.925,320.94c15.215,53.328,36.414,104.747,51.2,158.217
			c2.577,9.319,17.067,5.444,14.488-3.883c-16.847-60.922-41.191-119.445-57.334-180.593
			c-14.481-54.856-25.423-110.586-40.652-165.253c-13.21-47.414-29.868-94.342-54.688-137.024
			C705.409,301.775,692.457,309.349,697.327,317.724L697.327,317.724z"/>
	</g>
</g>
<g>
	<g>
		<path d="M834.084,681.068c0-81.371-0.199-163.572,16.189-243.643c1.934-9.447-12.53-13.438-14.471-3.961
			c-16.656,81.384-16.722,164.786-16.723,247.496C819.08,690.646,834.084,690.732,834.084,681.068L834.084,681.068z"/>
	</g>
</g>
<g>
	<g>
		<path d="M797.819,379.158c8.667,23.025,19.672,49.519,42.734,61.516c8.562,4.454,16.099-8.517,7.5-12.99
			c-19.328-10.055-28.486-33.124-35.746-52.408C808.933,366.31,794.411,370.106,797.819,379.158L797.819,379.158z"/>
	</g>
</g>
<g>
	<g>
		<path d="M787.435,370.834c-0.033,47.683-2.44,95.377,0,143.038c0.493,9.634,15.498,9.767,15.004,0.108
			c-2.441-47.661-0.034-95.355,0-143.038C802.445,361.255,787.441,361.171,787.435,370.834L787.435,370.834z"/>
	</g>
</g>
<g>
	<g>
		<path d="M801.173,376.005c0.143-38.893,8.93-76.795,17.455-114.529c2.129-9.425-12.338-13.399-14.471-3.961
			c-8.801,38.957-17.84,78.232-17.988,118.382C786.134,385.585,801.137,385.667,801.173,376.005L801.173,376.005z"/>
	</g>
</g>
<g>
	<g>
		<path d="M750.681,221.687c23.178,14.295,43.657,32.37,65.822,48.101c7.896,5.604,15.324-7.437,7.5-12.99
			c-22.166-15.731-42.643-33.805-65.822-48.101C749.933,203.61,742.456,216.614,750.681,221.687L750.681,221.687z"/>
	</g>
</g>
<g>
	<g>
		<path d="M741.865,215.138c3.689,55.752-9.604,110.797-19.987,165.162c-1.806,9.457,12.656,13.46,14.471,3.961
			c10.612-55.563,24.29-112.039,20.521-169.015C756.233,205.637,741.228,205.491,741.865,215.138L741.865,215.138z"/>
	</g>
</g>
<g>
	<g>
		<path d="M838.525,465.463c16.75,5.942,33.927,10.874,50.13,18.248c8.729,3.973,16.312-8.98,7.5-12.99
			c-17.393-7.916-35.692-13.35-53.669-19.728C833.343,447.749,829.474,462.252,838.525,465.463L838.525,465.463z"/>
	</g>
</g>
<g>
	<g>
		<path d="M891.498,485.362c-6.039,24.764-6.722,50.259-7.943,75.595c-1.244,25.797-4.961,51.303-8.972,76.794
			c-3.973,25.254-7.598,50.517-11.122,75.834c-3.581,25.717-7.57,51.477-7.672,77.502c-0.037,9.688,14.966,9.77,15.004,0.107
			c0.096-24.729,3.72-49.212,7.138-73.648c3.541-25.315,7.137-50.583,11.123-75.834c4.025-25.499,7.913-51.083,9.312-76.88
			c1.373-25.302,1.564-50.754,7.603-75.508C908.262,479.921,893.79,475.963,891.498,485.362L891.498,485.362z"/>
	</g>
</g>
</svg>
