<?xml version="1.0" encoding="utf-8"?>
<!-- Generator: Adobe Illustrator 15.1.0, SVG Export Plug-In . SVG Version: 6.00 Build 0)  -->
<!DOCTYPE svg PUBLIC "-//W3C//DTD SVG 1.1//EN" "http://www.w3.org/Graphics/SVG/1.1/DTD/svg11.dtd">
<svg version="1.1" id="Layer_1" xmlns="http://www.w3.org/2000/svg" xmlns:xlink="http://www.w3.org/1999/xlink" x="0px" y="0px"
	 width="800px" height="730.792px" viewBox="0 0 800 730.792" enable-background="new 0 0 800 730.792" xml:space="preserve">
<g>
	<g>
		<path d="M-40.041,395.813c122.199-15.639,244.983-28.852,368.297-29.896c122.853-1.039,246.208,10.747,364.62,44.595
			c16.742,4.785,33.346,10.048,49.813,15.704c14.726,5.058,29.116,12.015,44.78,13.474c31.271,2.914,51.312-24.433,79.68-31.147
			c9.422-2.229,5.513-16.713-3.883-14.488c-12.696,3.005-23.845,9.686-34.803,16.514c-10.706,6.671-21.511,13.407-34.418,14.217
			c-13.492,0.847-26.177-5.477-38.546-9.942c-14.647-5.287-29.49-10.065-44.389-14.592c-58.971-17.92-119.531-30.096-180.619-38.032
			c-122.126-15.865-245.928-13.361-368.427-3.39c-67.516,5.496-134.814,13.383-201.998,21.98c-4.052,0.519-7.526,2.954-7.556,7.448
			C-47.513,391.925-44.104,396.333-40.041,395.813L-40.041,395.813z"/>
	</g>
</g>
<g>
	<g>
		<path d="M-55.625,651.657c69.17-7.05,137.946-18.382,207.503-21.164c34.776-1.391,69.673-0.387,104.185,4.281
			c35.031,4.737,70.044,9.41,104.98,14.834c69.904,10.853,139.538,23.366,209.167,35.834
			c68.503,12.265,137.135,25.457,206.382,32.801c40.307,4.274,81.073,6.086,121.532,2.962
			c41.257-3.186,81.871-11.886,122.272-20.455c9.474-2.009,5.543-16.487-3.883-14.488c-34.368,7.289-68.813,14.662-103.766,18.562
			c-34.744,3.877-69.862,3.543-104.699,1.169c-69.418-4.73-138.217-17.936-206.619-30.146
			c-69.691-12.44-139.345-25.114-209.234-36.401c-34.779-5.616-69.621-10.843-104.532-15.575c-34.745-4.71-69.27-8.762-104.383-8.95
			c-80.105-0.431-159.333,13.634-238.798,21.732c-4.063,0.414-7.527,3.032-7.556,7.448
			C-63.098,647.849-59.698,652.072-55.625,651.657L-55.625,651.657z"/>
	</g>
</g>
<g>
	<g>
		<path d="M227.491,404.904c13.336-1.662,42.532,20.261,25.163,31.806c-2.763,1.836-4.806,1.848-7.314,0.565
			c-3.609-1.845-6.198-5.481-8.333-9.104c-4.436-7.522-7.344-18.027-4.824-26.191c2.863-9.271-11.625-13.176-14.47-3.961
			c-6.915,22.395,14.143,68.434,42.536,51.629c32.654-19.325-4.622-63.241-32.65-59.748c-4.054,0.506-7.526,2.965-7.556,7.448
			C220.02,401.027,223.427,405.41,227.491,404.904L227.491,404.904z"/>
	</g>
</g>
<g>
	<g>
		<path d="M227.836,449.296c1.296,16.468,6.365,33.543,2.864,50.021c-2.006,9.44,12.459,13.425,14.47,3.961
			c3.853-18.131-0.906-35.779-2.331-53.875C242.085,439.819,227.078,439.662,227.836,449.296L227.836,449.296z"/>
	</g>
</g>
<g>
	<g>
		<path d="M232.764,508.992c14.156,19.271,28.819,38.178,41.558,58.441c5.132,8.163,18.102,0.616,12.939-7.596
			c-12.739-20.264-27.402-39.17-41.558-58.441c-2.418-3.292-6.465-4.901-10.268-2.672
			C232.184,500.631,230.341,505.692,232.764,508.992L232.764,508.992z"/>
	</g>
</g>
<g>
	<g>
		<path d="M239.288,501.588c-20.454,0.562-38.424,17.168-46.809,34.921c-4.104,8.689,8.853,16.259,12.99,7.5
			c5.982-12.664,18.645-27.003,33.71-27.417C248.844,516.327,248.955,501.323,239.288,501.588L239.288,501.588z"/>
	</g>
</g>
<g>
	<g>
		<path d="M144.375,471.137c13.954,1.518,26.816,8.816,39.632,14.02c3.798,1.542,8.229-1.664,9.215-5.255
			c1.18-4.295-1.475-7.681-5.254-9.216c-14.325-5.815-27.897-12.857-43.484-14.553c-4.07-0.442-7.531,3.673-7.556,7.448
			C136.898,467.984,140.314,470.696,144.375,471.137L144.375,471.137z"/>
	</g>
</g>
<g>
	<g>
		<path d="M183.252,472.646c-11.89,11.706-25.934,20.827-38.961,31.169c-3.204,2.543-2.587,7.997,0.057,10.607
			c3.165,3.125,7.406,2.485,10.608-0.057c13.036-10.348,27.059-19.45,38.961-31.169C200.808,476.413,190.155,465.85,183.252,472.646
			L183.252,472.646z"/>
	</g>
</g>
<g>
	<g>
		<path d="M148.271,517.891c35.982-1.541,69.611-14.467,101.255-30.902c8.583-4.458,0.971-17.389-7.596-12.939
			c-29.176,15.154-60.35,27.417-93.551,28.838C138.733,503.3,138.608,518.304,148.271,517.891L148.271,517.891z"/>
	</g>
</g>
<g>
	<g>
		<path d="M138.577,468.283c29.151-4.721,58.141,7.98,85.689,15.575c9.346,2.576,13.277-11.902,3.961-14.471
			c-30.65-8.45-61.171-20.834-93.532-15.593C125.148,455.34,129.125,469.814,138.577,468.283L138.577,468.283z"/>
	</g>
</g>
<g>
	<g>
		<path d="M222.296,482.826c47.035-1.484,91.868-15.866,137.06-27.53c9.37-2.418,5.479-16.904-3.882-14.488
			c-43.85,11.317-87.435,25.575-133.07,27.015C212.745,468.126,212.63,483.13,222.296,482.826L222.296,482.826z"/>
	</g>
</g>
<g>
	<g>
		<path d="M239.876,466.984c22.128-6.1,45.778-11.413,68.806-7.801c4.039,0.633,8.044-0.99,9.216-5.255
			c0.991-3.607-1.214-8.582-5.255-9.216c-25.845-4.054-51.714,0.909-76.648,7.783C226.672,455.065,230.548,469.555,239.876,466.984
			L239.876,466.984z"/>
	</g>
</g>
<g>
	<g>
		<path d="M228.202,451.197c-9.341,3.296-16.278,9.38-21.437,17.78c-5.071,8.257,7.932,15.735,12.99,7.5
			c2.984-4.858,6.858-8.861,12.329-10.792c3.854-1.359,6.423-5.005,5.304-9.186C236.391,452.782,232.062,449.834,228.202,451.197
			L228.202,451.197z"/>
	</g>
</g>
<g>
	<g>
		<path d="M321.6,503.24c2.216,14.981,2.401,30.456,0.01,45.429c-1.512,9.466,12.947,13.498,14.47,3.961
			c2.844-17.802,2.645-35.457,0.01-53.272c-0.6-4.053-5.58-6.27-9.186-5.303C322.611,495.204,321.002,499.197,321.6,503.24
			L321.6,503.24z"/>
	</g>
</g>
<g>
	<g>
		<path d="M329.486,507.244c7.659-1.271,15.341-2.415,23.056-3.286c4.712-0.531,9.443-0.949,14.185-1.061
			c1.616-0.037,3.231,0.008,4.841,0.15c-0.507-0.045-0.051-0.018,0.933,0.903c5.323,4.982,5.356,16.775,5.498,24.125
			c0.188,9.684-0.765,19.336-0.813,29.013c-0.047,9.688,14.957,9.77,15.004,0.107c0.053-10.914,1.12-21.782,0.708-32.707
			c-0.41-10.879-2.031-22.978-9.845-31.203c-6.914-7.277-17.886-5.552-26.875-4.699c-10.234,0.97-20.435,2.484-30.574,4.169
			C316.062,494.34,320.034,508.814,329.486,507.244L329.486,507.244z"/>
	</g>
</g>
<g>
	<g>
		<path d="M328.188,561.789c23.379-4.677,46.49,0.788,68.806,7.784c9.26,2.902,13.161-11.587,3.961-14.471
			c-25.014-7.841-50.541-13.025-76.649-7.802C314.811,549.2,318.752,563.676,328.188,561.789L328.188,561.789z"/>
	</g>
</g>
<g>
	<g>
		<path d="M101.862,523.322c0.112,13.901,2.485,27.656,2.597,41.559c0.078,9.681,15.081,9.773,15.003,0.107
			c-0.112-13.901-2.485-27.656-2.597-41.559C116.788,513.749,101.784,513.656,101.862,523.322L101.862,523.322z"/>
	</g>
</g>
<g>
	<g>
		<path d="M103.527,514.833c-17.829,2.547-35.674,5.094-53.247,9.091c-9.443,2.147-5.526,16.629,3.882,14.488
			c17.573-3.997,35.419-6.544,53.247-9.091c4.057-0.579,6.266-5.595,5.304-9.186C111.558,515.831,107.573,514.255,103.527,514.833
			L103.527,514.833z"/>
	</g>
</g>
<g>
	<g>
		<path d="M43.42,532.414c1.5,15.66,7.516,30.906,6.494,46.753c-0.625,9.68,14.384,9.706,15.003,0.107
			c1.033-16.01-4.986-31.016-6.494-46.753c-0.389-4.065-3.05-7.526-7.447-7.556C47.208,524.941,43.03,528.338,43.42,532.414
			L43.42,532.414z"/>
	</g>
</g>
<g>
	<g>
		<path d="M57.361,590.618c9.687,0,9.772-15.004,0.108-15.004C47.783,575.614,47.698,590.618,57.361,590.618L57.361,590.618z"/>
	</g>
</g>
<g>
	<g>
		<path d="M61.213,588.288c16.753-12.449,38.496-12.041,57.883-17.408c9.318-2.579,5.444-17.07-3.882-14.488
			c-20.753,5.744-43.625,5.603-61.597,18.957c-3.278,2.437-4.91,6.45-2.672,10.268C52.844,588.854,57.927,590.73,61.213,588.288
			L61.213,588.288z"/>
	</g>
</g>
<g>
	<g>
		<path d="M396.522,507.793c7.721,5.466,15.718,8.282,25.154,6.824c7.458-1.152,13.611-4.907,21.399-4.52
			c9.688,0.481,9.728-14.525,0.107-15.004c-7.219-0.359-13.741,1.505-20.502,3.745c-7.416,2.458-12.346,0.434-18.659-4.036
			C396.12,489.208,388.69,502.249,396.522,507.793L396.522,507.793z"/>
	</g>
</g>
<g>
	<g>
		<path d="M404.314,541.559c9.262,4.628,18.018,3.175,27.207-0.711c7.172-3.031,14.489-7.01,22.145-3.185
			c8.619,4.308,16.169-8.657,7.5-12.99c-9.357-4.677-18.688-4.428-28.272-0.596c-6.289,2.514-14.245,7.906-21.079,4.491
			C403.195,524.262,395.645,537.227,404.314,541.559L404.314,541.559z"/>
	</g>
</g>
<g>
	<g>
		<path d="M132.764,544.057c7.222,12.304,23.365,7.762,34.987,7.6c9.677-0.136,9.775-15.139,0.108-15.004
			c-4.488,0.063-8.947,0.592-13.423,0.873c-2.073,0.13-7.599,0.868-8.732-1.064C140.813,528.13,127.859,535.7,132.764,544.057
			L132.764,544.057z"/>
	</g>
</g>
<g>
	<g>
		<path d="M123.795,568.833c6.557,4.88,14.336,6.381,22.376,6.042c7.347-0.309,14.884-2.541,22.25-1.406
			c4.041,0.622,8.042-0.982,9.215-5.255c0.989-3.6-1.212-8.593-5.254-9.216c-7.345-1.131-14.243-0.361-21.57,0.479
			c-7.209,0.827-13.502,0.842-19.517-3.635c-3.285-2.445-8.38-0.486-10.245,2.745C118.83,562.433,120.519,566.394,123.795,568.833
			L123.795,568.833z"/>
	</g>
</g>
<g>
	<g>
		<path d="M293.123,418.932c13.681-1.832,26.93-6.742,40.284-10.083c10.014-2.505,25.847-7.189,34.545-1.056
			c7.914,5.581,15.344-7.458,7.5-12.99c-11.737-8.277-29.26-4.276-42.085-1.362c-14.725,3.345-29.124,8.993-44.125,11.003
			c-4.063,0.544-6.259,5.62-5.304,9.186C285.098,417.961,289.072,419.475,293.123,418.932L293.123,418.932z"/>
	</g>
</g>
<g>
	<g>
		<path d="M578.332,506.574c3.164-3.358,6.717-6.937,11.16-8.518c2.28-0.812,3.742-0.848,5.001,0.992
			c4.151,6.062,2.089,13.874-0.323,20.073c-2.14,5.499-6.72,12.167-10.888,14.98c-0.428,0.277-0.868,0.533-1.32,0.77
			c-1.939,1.07,1.235-0.326-0.75,0.23c1.507-0.422,0.025-0.021-0.521-0.043c0.462,0.02,2.084,0.762,0.769,0.019
			c0.642,0.362-0.119-0.205-0.775-1.363c-0.981-1.73-1.324-3.866-1.739-5.786c-2.045-9.466-16.523-5.538-14.488,3.883
			c2.546,11.786,10.908,22.015,23.789,16.596c10.108-4.254,16.433-15.734,20.395-25.324c4.723-11.437,4.634-26.11-4.305-35.532
			c-11.266-11.876-28.123-0.599-36.668,8.473C561.051,503.047,571.68,513.636,578.332,506.574L578.332,506.574z"/>
	</g>
</g>
<g>
	<g>
		<path d="M565.498,549.296c1.314,19.053,3.812,38.019,3.896,57.143c0.043,9.684,15.046,9.772,15.004,0.107
			c-0.084-19.123-2.583-38.089-3.896-57.143C579.839,539.8,564.833,539.651,565.498,549.296L565.498,549.296z"/>
	</g>
</g>
<g>
	<g>
		<path d="M569.202,592.231c-14.781,6.912-27.1,17.717-39.196,28.467c-7.232,6.426,3.456,16.957,10.664,10.551
			c11.196-9.948,22.447-19.682,36.128-26.078C585.55,601.078,577.902,588.163,569.202,592.231L569.202,592.231z"/>
	</g>
</g>
<g>
	<g>
		<path d="M571.02,620.222c6.701,1.257,12.271,4.332,17.711,8.351c3.294,2.433,8.374,0.495,10.245-2.745
			c2.215-3.837,0.54-7.818-2.745-10.245c-6.353-4.692-13.434-8.364-21.25-9.831c-4.019-0.754-8.068,1.078-9.216,5.255
			C564.749,614.704,567.003,619.468,571.02,620.222L571.02,620.222z"/>
	</g>
</g>
<g>
	<g>
		<path d="M579.439,521.787c9.686,0,9.771-15.004,0.107-15.004C569.861,506.783,569.775,521.787,579.439,521.787L579.439,521.787z"
			/>
	</g>
</g>
<g>
	<g>
		<path d="M645.18,505.85c-0.099-0.532-0.228-2.122-0.212-2.217c0.105-0.641,0.61-1.184,0.214-0.746
			c-0.938,1.033,1.733-0.673,0.451-0.235c1.554-0.53,1.284-0.357,2.982-0.368c4.421-0.027,9.085,1.89,12.849,4.495
			c1.163,0.806,3.9,3.185,4.489,5.541c0.151,0.607-2.701,3.389-3.536,4.17c-5.438,5.091-12.797,8.398-19.188,12.104
			c-8.359,4.847-0.785,17.798,7.596,12.939c9.722-5.637,20.456-10.802,27.133-20.184c7.571-10.639-0.821-21.903-9.696-28.048
			c-7.105-4.92-16.51-6.771-24.948-5.511c-10.948,1.635-14.401,12.391-12.621,21.941C632.465,519.25,646.94,515.295,645.18,505.85
			L645.18,505.85z"/>
	</g>
</g>
<g>
	<g>
		<path d="M644.375,526.982c9.686,0,9.771-15.004,0.107-15.004C634.797,511.978,634.711,526.982,644.375,526.982L644.375,526.982z"
			/>
	</g>
</g>
<g>
	<g>
		<path d="M634.587,549.993c5.501,17.762,8.762,35.221,8.833,53.849c0.037,9.684,15.041,9.772,15.004,0.107
			c-0.077-19.895-3.473-38.867-9.349-57.839C646.222,536.894,631.722,540.742,634.587,549.993L634.587,549.993z"/>
	</g>
</g>
<g>
	<g>
		<path d="M647.682,597.95c-11.209,2.987-20.499,8.948-29.365,16.255c-3.155,2.601-2.627,7.957,0.058,10.608
			c3.125,3.086,7.453,2.543,10.608-0.058c6.783-5.591,14.038-10.04,22.582-12.317C660.911,609.947,657.028,595.458,647.682,597.95
			L647.682,597.95z"/>
	</g>
</g>
<g>
	<g>
		<path d="M647.643,622.819c7.65,2.292,14.511,6.068,21.607,9.649c8.605,4.343,16.152-8.624,7.5-12.99
			c-8.226-4.151-16.278-8.472-25.146-11.13C642.31,605.563,638.398,620.048,647.643,622.819L647.643,622.819z"/>
	</g>
</g>
<g>
	<g>
		<path d="M706.768,514.139c3.292-5.739,11.133-8.167,18.142-8.562c4.057-0.229,7.916,0.29,11.767,1.562
			c2.897,0.956,4.96,2.655,6.216,4.814c1.076,1.85,0.501,5.409-1.11,8.058c-1.834,3.018-5.818,4.918-8.944,6.414
			c-7.637,3.652-16.249,4.838-24.116,7.89c-3.811,1.478-6.447,4.914-5.303,9.186c0.972,3.626,5.365,6.784,9.186,5.303
			c10.78-4.181,22.401-5.793,32.419-11.917c11.252-6.879,17.442-21.127,10.395-33.24c-5.94-10.21-19.45-13.424-30.399-13.072
			c-11.958,0.385-25.033,5.246-31.24,16.066C688.961,515.036,701.95,522.538,706.768,514.139L706.768,514.139z"/>
	</g>
</g>
<g>
	<g>
		<path d="M701.595,547.953c5.842,12.911,11.017,26.034,14.811,39.702c2.586,9.316,17.077,5.441,14.488-3.883
			c-4.149-14.951-9.971-29.294-16.359-43.415c-1.688-3.729-7.026-4.572-10.268-2.672
			C700.465,539.914,699.911,544.231,701.595,547.953L701.595,547.953z"/>
	</g>
</g>
<g>
	<g>
		<path d="M717.018,592.126c-9.132,10.688-15.205,23.066-21.941,35.292c-4.667,8.469,8.314,15.985,12.99,7.5
			c6.071-11.018,11.387-22.608,19.617-32.241C733.923,595.375,723.32,584.75,717.018,592.126L717.018,592.126z"/>
	</g>
</g>
<g>
	<g>
		<path d="M728.162,609.832c11.302,4.584,20.279,13.77,28.956,22.016c9.583,9.107,19.474,18.409,31.612,23.998
			c8.717,4.014,16.295-8.94,7.5-12.99c-24.619-11.336-38.648-37.167-64.107-47.494c-3.799-1.54-8.229,1.663-9.216,5.255
			C721.728,604.91,724.382,608.297,728.162,609.832L728.162,609.832z"/>
	</g>
</g>
<g>
	<g>
		<path d="M706.713,526.982c9.686,0,9.771-15.004,0.107-15.004C697.135,511.978,697.049,526.982,706.713,526.982L706.713,526.982z"
			/>
	</g>
</g>
<g>
	<g>
		<path d="M133.031,220.724c-0.96,36.355,16.404,72.218,8.059,108.463c-2.169,9.42,12.299,13.39,14.47,3.96
			c8.771-38.097-8.528-74.332-7.526-112.315C148.29,211.139,133.285,211.078,133.031,220.724L133.031,220.724z"/>
	</g>
</g>
<g>
	<g>
		<path d="M164.457,224.018c17.638,44.858,33.479,91.066,40.26,138.962c0.575,4.058,5.599,6.265,9.186,5.303
			c4.311-1.154,5.876-5.139,5.304-9.186c-6.781-47.896-22.623-94.103-40.26-138.961c-1.496-3.804-4.9-6.452-9.186-5.304
			C166.148,215.8,162.958,220.205,164.457,224.018L164.457,224.018z"/>
	</g>
</g>
<g>
	<g>
		<path d="M125.046,213.01c-7.306,3.499-13.788,8.376-20.886,12.242c-6.869,3.741-13.037,3.312-18.593-2.507
			c-9.439-9.884-5.961-28.075,0.421-38.477c2.872-4.679-0.834-11.475-6.441-11.251c-3.846,0.153-7.461,0.152-11.108-0.851
			c-1.718-0.472-0.961-0.173-2.697-1.286c1.384,0.887-0.031-0.112-0.298-0.381c-0.858-0.863,0.56,1.046-0.391-0.75
			c0.903,1.707,0.172,0.304,0.031-0.227c-0.488-1.83,0.073,1.657-0.051-0.292c-0.039-0.611,0.001-1.226,0.039-1.836
			c0.126-2.071-0.303,1.464,0.124-0.664c0.722-3.603,1.639-5.22,3.305-8.276c7.343-13.473,19.68-25.455,32.05-34.067
			c7.343-5.112,11.693-6.389,20.159-9.424c11.762-4.217,23.731-7.973,35.952-10.616c9.292-2.01,17.233-2.901,25.872-0.05
			c3.391,1.119,6.901,2.803,9.693,5.043c1.303,1.046,2.426,2.226,3.192,3.435c0.595,0.939,0.77,1.95,0.6,2.779
			c-0.317,1.543-1.338,2.828-2.241,4.073c-2.059,2.839-0.826,6.715,1.22,9.083c8.174,9.464,20.521,14.651,31.195,20.669
			c9.152,5.16,21.878,12.587,21.501,24.628c-0.198,6.331-4.312,12.549-7.801,17.541c-4.014,5.743-9.338,11.054-14.899,15.301
			c-5.934,4.531-11.131,6.706-18.648,6.86c-8.962,0.185-17.844-1.616-26.798-1.729c-9.691-0.122-9.765,14.882-0.108,15.004
			c10.027,0.126,19.931,2.104,29.98,1.62c8.869-0.428,16.13-3.628,23.17-8.815c13.126-9.671,26.017-24.08,29.437-40.471
			c3.434-16.457-7.477-29.239-20.181-37.939c-11.645-7.975-26.895-12.449-36.297-23.333c0.407,3.027,0.813,6.055,1.22,9.083
			c14.052-19.382-9.002-35.177-26.046-38.887c-10.147-2.209-20.878,0.012-30.827,2.255c-12.115,2.731-23.967,6.681-35.633,10.904
			c-7.528,2.725-14.668,5.523-21.307,10.049c-7.014,4.782-13.488,10.428-19.466,16.441c-10.418,10.479-22.519,24.543-23.458,40.021
			c-0.994,16.362,16.535,20.625,29.409,20.111c-2.147-3.75-4.294-7.501-6.441-11.251c-10.352,16.87-11.277,39.763,1.193,55.688
			c6.948,8.874,18.874,12.223,29.479,9.193c10.592-3.027,19.151-10.998,28.972-15.7C141.359,221.775,133.72,208.857,125.046,213.01
			L125.046,213.01z"/>
	</g>
</g>
<g>
	<g>
		<path d="M561.335,240.161c12.071,16.215,21.629,34.999,28.771,53.855c3.954,10.44,7.329,21.47,8.376,32.627
			c0.796,8.483,0.286,18.743-4.841,25.224c-2.53,3.199-3.095,7.495,0.058,10.608c2.666,2.633,8.065,3.157,10.608-0.058
			c15.483-19.576,9.119-47.229,1.57-68.769c-7.492-21.378-18.035-42.858-31.603-61.084c-2.439-3.276-6.448-4.911-10.268-2.672
			C560.771,231.79,558.891,236.876,561.335,240.161L561.335,240.161z"/>
	</g>
</g>
<g>
	<g>
		<path d="M647.024,248.197c-18.644,34.771-29.688,76.598-24.126,116.082c0.571,4.058,5.601,6.264,9.186,5.303
			c4.312-1.155,5.873-5.138,5.303-9.186c-4.967-35.258,6.056-73.79,22.628-104.699C664.58,247.183,651.604,239.657,647.024,248.197
			L647.024,248.197z"/>
	</g>
</g>
<g>
	<g>
		<path d="M571.059,229.118c-6.497,2.469-14.003,5.687-21.138,4.685c-6.98-0.98-13.319-4.976-18.221-9.863
			c-3.49-3.479-6.914-7.991-8.2-12.268c-0.468-1.557-0.266-1.069-0.267-2.001c0,0.412-0.071,0.04,0.248-0.517
			c-0.306,0.533,0.617-0.298,1.043-0.539c1.158-0.657,2.938-0.949,4.266-1.115c5.982-0.748,10.714-7.854,5.329-12.834
			c-20.011-18.507-9.623-55.86,8.366-71.981c2.085-1.868,4.541-3.291,7.04-4.528c1.932-0.957-0.584,0.118,0.819-0.403
			c1.096-0.407,2.232-0.703,3.364-0.986c4.896-1.228,9.443-1.448,15.012-1.213c2.69,0.114,3.803,0.268,6.378,0.872
			c0.504,0.118,3.493,1.155,2.382,0.67c0.533,0.233,2.967,1.963,1.651,0.852c1.55,1.309-0.018-0.299,0.501,0.64
			c-0.401-1.038-0.484-1.146-0.247-0.323c-0.521-2.097-0.34,0.738-0.044-0.965c-0.315,1.817-2.011,3.958-3.883,5.995
			c3.556,3.517,7.11,7.034,10.666,10.551c9.367-11.667,21.77-20.446,35.2-26.863c12.303-5.878,27.37-9.777,40.565-5.717
			c13.174,4.054,19.935,19.424,19.282,32.863c-0.681,13.993-10.974,31.11-26.972,27.466c-0.014,4.826-0.026,9.653-0.039,14.479
			c7.961-2.202,17.51,2.702,24.898,8.139c8.114,5.971,15.327,15.055,18.361,24.667c3.014,9.545-0.065,18.462-10.802,21.735
			c-7.061,2.153-14.796,1.487-22.061,2.445c-7.801,1.029-14.74,4.008-20.269,9.715c-6.722,6.938,3.917,17.516,10.664,10.551
			c5.653-5.834,13.477-5.774,21.093-6.209c9.743-0.556,19.16-2.227,27.018-8.4c10.784-8.473,12.45-23.289,8.233-35.575
			c-4.585-13.364-14.385-24.299-25.601-32.553c-9.864-7.259-23.164-12.393-35.419-9.003c-6.973,1.929-7.489,12.783-0.039,14.479
			c22.186,5.054,39.238-11.369,44.452-31.85c4.863-19.104-2.088-40.639-18.147-52.274c-14.185-10.278-34.094-8.282-49.771-3.173
			c-17.552,5.721-34.117,16.135-46.896,29.45c-1.555,1.619-3.013,3.328-4.418,5.078c-5.917,7.37,3.992,17.812,10.666,10.551
			c4.938-5.374,10.09-12.825,7.441-20.505c-2.306-6.687-8.768-10.039-15.273-11.564c-12.931-3.031-28.491-1.572-39.92,5.405
			c-15.616,9.534-24.89,28.213-28.284,45.638c-3.571,18.335-0.835,39.274,13.479,52.513c1.776-4.278,3.553-8.556,5.329-12.834
			c-8.671,1.083-18.793,4.396-20.345,14.386c-1.344,8.65,3.256,16.547,8.482,23.061c6.34,7.902,14.273,13.44,23.779,16.998
			c11.35,4.247,23.331,0.768,34.127-3.334C583.893,240.206,580.1,225.684,571.059,229.118L571.059,229.118z"/>
	</g>
</g>
<g>
	<g>
		<path d="M318.4,194.514c18.467-1.271,37.021-3.598,55.217,1.032c9.385,2.388,13.333-12.085,3.961-14.47
			c-19.577-4.981-39.197-2.933-59.069-1.565C308.904,180.171,308.755,195.178,318.4,194.514L318.4,194.514z"/>
	</g>
</g>
<g>
	<g>
		<path d="M333.03,101.244c0,24.243,0,48.485,0,72.728c0,9.687,15.004,9.772,15.004,0.108c0-24.243,0-48.485,0-72.728
			C348.034,91.666,333.03,91.58,333.03,101.244L333.03,101.244z"/>
	</g>
</g>
<g>
	<g>
		<path d="M294.069,58.387c0.002,10.415,0.083,20.812,1.299,31.169c0.477,4.057,2.986,7.526,7.448,7.556
			c3.701,0.025,8.033-3.38,7.556-7.447c-1.216-10.357-1.297-20.754-1.299-31.169C309.071,48.809,294.068,48.723,294.069,58.387
			L294.069,58.387z"/>
	</g>
</g>
<g>
	<g>
		<path d="M302.816,60.748c25.956,2.503,52.022,1.076,77.32-5.452c9.37-2.418,5.479-16.905-3.882-14.489
			c-24.068,6.21-48.645,7.318-73.33,4.938C293.276,44.814,293.279,59.828,302.816,60.748L302.816,60.748z"/>
	</g>
</g>
<g>
	<g>
		<path d="M306.668,103.872c27.47-12.626,57.826,1.195,85.131,7.259c9.43,2.094,13.406-12.372,3.961-14.47
			c-15.808-3.511-31.209-8.71-47.215-11.327c-17.052-2.789-33.652-1.673-49.472,5.599
			C290.297,94.966,297.949,107.879,306.668,103.872L306.668,103.872z"/>
	</g>
</g>
<g>
	<g>
		<path d="M374.855,47.37c-2.463,13.94,0.825,27.067,2.331,40.887c0.443,4.061,3.011,7.526,7.448,7.556
			c3.727,0.025,8-3.377,7.556-7.447c-1.325-12.154-5.029-24.786-2.864-37.035C390.998,41.868,376.538,37.851,374.855,47.37
			L374.855,47.37z"/>
	</g>
</g>
<g>
	<g>
		<path d="M377.187,89.556c0,1.299,0,2.598,0,3.896c0,4.086,3.342,7.529,7.448,7.556c4.065,0.027,7.556-3.361,7.556-7.447
			c0-1.299,0-2.598,0-3.896c0-4.086-3.342-7.529-7.448-7.556C380.677,82.081,377.187,85.47,377.187,89.556L377.187,89.556z"/>
	</g>
</g>
<g>
	<g>
		<path d="M317.102,81.527c9.687,0,9.772-15.003,0.108-15.003C307.523,66.524,307.438,81.527,317.102,81.527L317.102,81.527z"/>
	</g>
</g>
<g>
	<g>
		<path d="M352.167,81.527c9.687,0,9.772-15.003,0.108-15.003C342.588,66.524,342.503,81.527,352.167,81.527L352.167,81.527z"/>
	</g>
</g>
<g>
	<g>
		<path d="M404.314,66.235c14.146,8.56,26.648,0.312,40.757-3.147c9.402-2.305,5.5-16.789-3.883-14.489
			c-9.174,2.249-20.214,10.189-29.374,4.646C403.525,48.229,396.042,61.229,404.314,66.235L404.314,66.235z"/>
	</g>
</g>
<g>
	<g>
		<path d="M410.809,92.208c4.721,3.024,9.972,3.946,15.505,3.582c5.937-0.39,11.562-1.952,17.434-0.245
			c9.313,2.709,13.232-11.773,3.961-14.47c-5.178-1.506-10.303-1.583-15.619-0.958c-4.726,0.555-9.547,1.812-13.78-0.899
			C410.147,73.99,402.684,87.003,410.809,92.208L410.809,92.208z"/>
	</g>
</g>
<g>
	<g>
		<path d="M259.005,57.088c-0.945,6.924-12.527,4.788-17.12,4.241c-4.066-0.484-7.531,3.704-7.556,7.447
			c-0.03,4.435,3.392,7.073,7.447,7.556c6.973,0.831,14.015,0.895,20.589-1.86c7.375-3.089,10.613-9.737,11.642-17.276
			c0.554-4.059-3.756-7.531-7.447-7.556C262.073,49.611,259.557,53.041,259.005,57.088L259.005,57.088z"/>
	</g>
</g>
<g>
	<g>
		<path d="M236.582,77.631c9.687,0,9.772-15.003,0.108-15.003C227.004,62.628,226.918,77.631,236.582,77.631L236.582,77.631z"/>
	</g>
</g>
<g>
	<g>
		<path d="M265.864,78.469c-13.457,2.629-27.5,4.009-39.52,11.165c-8.298,4.94-0.733,17.898,7.596,12.939
			c10.702-6.372,23.815-7.272,35.806-9.615C279.249,91.101,275.303,76.625,265.864,78.469L265.864,78.469z"/>
	</g>
</g>
<g>
	<g>
		<path d="M297.577,249.326c4.698-2.845,11.055-3.577,17.117-3.188c2.521,0.162,5.34,0.917,7.042,1.827
			c0.198,0.105,1.289,1.192,0.728,0.389c0.81,1.159-0.003-0.458-0.069-0.979c0.22,1.747,0.426-1.123-0.053,0.774
			c-3.044,12.05-28.872,7.595-33.781-1.299c-4.673-8.465-17.615-0.874-12.939,7.596c5.923,10.73,19.942,14.844,31.326,15.747
			c12.898,1.022,25.562-5.413,29.865-18.083c3.604-10.612-6.48-18.024-15.485-20.064c-10.164-2.303-22.338-1.111-31.345,4.341
			C281.724,241.386,289.283,254.347,297.577,249.326L297.577,249.326z"/>
	</g>
</g>
<g>
	<g>
		<path d="M299.265,268.776c0.053,11.444,1.294,23.139-1.032,34.437c-1.944,9.446,12.52,13.437,14.471,3.961
			c2.613-12.693,1.625-25.437,1.564-38.29C314.222,259.201,299.219,259.111,299.265,268.776L299.265,268.776z"/>
	</g>
</g>
<g>
	<g>
		<path d="M300.126,283.115c-16.33-9.431-35.375-16.55-47.825-31.305c-6.234-7.389-16.75,3.318-10.552,10.665
			c13.303,15.767,33.438,23.559,50.876,33.63C301.01,300.947,308.51,287.957,300.126,283.115L300.126,283.115z"/>
	</g>
</g>
<g>
	<g>
		<path d="M313.162,305.17c31.849-17.549,50.785-48.282,67.632-79.343c4.608-8.496-8.37-16.018-12.99-7.5
			c-15.623,28.804-32.658,57.605-62.238,73.904C297.097,296.897,304.689,309.839,313.162,305.17L313.162,305.17z"/>
	</g>
</g>
<g>
	<g>
		<path d="M294.069,305.14c-1.168,13.399-1.298,26.82-1.299,40.26c0,9.686,15.003,9.771,15.004,0.107
			c0-13.44,0.13-26.861,1.299-40.259C309.915,295.588,294.903,295.583,294.069,305.14L294.069,305.14z"/>
	</g>
</g>
<g>
	<g>
		<path d="M392.382,250.625c6.168-2.881,14.096-1.333,19.737,2.01c1.077,0.639,1.92,1.479,2.782,2.411
			c0.317,0.342,0.583,1.872,0.547,1.222c0.044,0.797-0.036,0.666-0.918,2.062c-1.085,1.718-3.414,2.995-5.068,4.031
			c-1.002,0.628-5.095,1.082-7.57,1.102c-3.43,0.029-6.723-0.519-10.016-1.441c-2.699-0.755-4.758-1.854-6.048-3.238
			c1.067,1.145-0.07-1.194,0.487,0.654c0.138,0.457-0.272,2.368,0.159,0.827c-0.178,0.636,1.176-1.208,2.012-1.848
			c3.243-2.484,4.933-6.411,2.672-10.268c-1.876-3.2-7.016-5.163-10.268-2.672c-4.86,3.723-9.869,8.566-9.43,15.256
			c0.393,5.976,4.549,10.302,9.595,13.029c10.051,5.432,24.831,6.736,35.298,1.865c13.089-6.091,18.978-21.771,7.846-32.526
			c-10.117-9.774-27.095-11.168-39.413-5.416C376.033,241.774,383.681,254.689,392.382,250.625L392.382,250.625z"/>
	</g>
</g>
<g>
	<g>
		<path d="M390.174,276.568c-2.565,24.066-1.274,48.523,4.153,72.125c2.17,9.438,16.652,5.522,14.489-3.883
			c-5.136-22.335-6.064-45.373-3.639-68.134c0.434-4.07-3.666-7.531-7.447-7.556C393.333,269.092,390.606,272.507,390.174,276.568
			L390.174,276.568z"/>
	</g>
</g>
<g>
	<g>
		<path d="M379.592,272.75c-3.099,1.941-5.435,1.88-9.17-0.076c-5.185-2.714-9.274-7.371-12.992-11.777
			c-7.223-8.561-12.867-18.534-18.219-28.333c-4.636-8.486-17.575-0.892-12.939,7.596c10.062,18.421,34.064,62.348,60.917,45.529
			C395.36,280.571,387.812,267.602,379.592,272.75L379.592,272.75z"/>
	</g>
</g>
<g>
	<g>
		<path d="M397.019,298.153c13.188-4.463,25.428-10.363,36.2-19.264c10.439-8.627,18.136-20.305,24.198-32.282
			c4.354-8.602-8.613-16.147-12.99-7.5c-5.418,10.704-11.897,20.444-20.934,28.428c-8.641,7.634-19.545,12.471-30.356,16.129
			C384.022,286.749,387.847,301.256,397.019,298.153L397.019,298.153z"/>
	</g>
</g>
<g>
	<g>
		<path d="M476.339,264.317c-0.439,1.057,0.601-0.693,0.672-0.778c0.876-1.05,1.902-1.972,2.933-2.865
			c1.391-1.205,4.533-2.964,6.803-4.001c1.673-0.765,3.681-1.11,5.663-1.027c-0.835-0.035,0.484,0.352-0.262-0.25
			c0.721,0.581,0.2-0.098,0.535,1.135c0.66,2.434,0.228,2.948-1.138,4.233c-1.2,1.129-4.357,1.963-6.784,2.457
			c-2.568,0.523-5.56,0.541-8.144,0.147c-3.194-0.486-4.91-1.128-6.134-2.467c-6.525-7.144-17.064,3.535-10.551,10.665
			c7.114,7.789,20.18,7.88,29.699,5.943c5.075-1.033,10.207-3.535,13.74-7.368c4.357-4.726,4.762-10.522,3.976-16.598
			c-1.479-11.421-13.578-14.485-23.061-11.805c-9.439,2.667-18.619,9.463-22.419,18.619c-1.571,3.787,1.687,8.235,5.255,9.215
			C471.44,270.758,474.775,268.085,476.339,264.317L476.339,264.317z"/>
	</g>
</g>
<g>
	<g>
		<path d="M470.693,281.763c2.587,20.705,5.114,41.441,5.194,62.338c0.038,9.684,15.041,9.772,15.004,0.107
			c-0.081-20.896-2.608-41.632-5.194-62.337c-0.507-4.054-2.964-7.526-7.448-7.556C474.571,274.292,470.186,277.699,470.693,281.763
			L470.693,281.763z"/>
	</g>
</g>
<g>
	<g>
		<path d="M481.474,292.764c-21.569-6.364-37.685-29.159-45.386-49.251c-1.462-3.816-4.926-6.445-9.186-5.304
			c-3.638,0.975-6.769,5.361-5.303,9.186c9.677,25.25,28.847,51.854,55.913,59.84C486.817,309.98,490.732,295.496,481.474,292.764
			L481.474,292.764z"/>
	</g>
</g>
<g>
	<g>
		<path d="M469.05,304.904c38.608,0.891,59.574-32.467,80.712-59.369c2.52-3.208,3.102-7.488-0.058-10.608
			c-2.659-2.626-8.076-3.166-10.608,0.057C521.012,258,502.508,290.669,469.157,289.9C459.464,289.676,459.4,304.681,469.05,304.904
			L469.05,304.904z"/>
	</g>
</g>
<g>
	<g>
		<path d="M350.868,525.683c9.687,0,9.772-15.004,0.108-15.004C341.29,510.679,341.204,525.683,350.868,525.683L350.868,525.683z"/>
	</g>
</g>
<g>
	<g>
		<path d="M349.569,542.566c9.687,0,9.772-15.004,0.108-15.004C339.991,527.562,339.906,542.566,349.569,542.566L349.569,542.566z"
			/>
	</g>
</g>
<g>
	<g>
		<path d="M80.738,545.164c9.687,0,9.772-15.004,0.108-15.004C71.16,530.16,71.074,545.164,80.738,545.164L80.738,545.164z"/>
	</g>
</g>
<g>
	<g>
		<path d="M83.335,563.345c9.687,0,9.772-15.004,0.108-15.004C73.757,548.341,73.672,563.345,83.335,563.345L83.335,563.345z"/>
	</g>
</g>
<g>
	<g>
		<path d="M167.861,391.199c-1.876,0-3.749-0.016-5.623-0.114c-0.312-0.016-3.133-0.383-1.458-0.108
			c-0.5-0.082-2.83-0.93-0.913-0.069c-3.727-1.672-8.046-1.063-10.245,2.745c-1.887,3.269-0.99,8.57,2.745,10.245
			c4.885,2.191,10.109,2.304,15.384,2.306c4.086,0.001,7.529-3.343,7.556-7.448C175.335,394.688,171.947,391.201,167.861,391.199
			L167.861,391.199z"/>
	</g>
</g>
<g>
	<g>
		<path d="M123.705,369.121c-0.48-0.008-2.887-0.343-0.773,0.023c-0.648-0.112-1.274-0.321-1.89-0.546
			c2.009,0.733,0.103-0.084-0.359-0.38c-0.65-0.46-0.541-0.374,0.326,0.257c-0.413-0.336-0.793-0.711-1.173-1.082
			c-2.923-2.849-7.721-2.867-10.608,0.058c-2.854,2.89-2.872,7.753,0.057,10.608c3.977,3.875,8.742,5.971,14.312,6.065
			c4.086,0.069,7.529-3.394,7.556-7.448C131.18,372.558,127.79,369.19,123.705,369.121L123.705,369.121z"/>
	</g>
</g>
<g>
	<g>
		<path d="M84.142,338.318c-1.159-5.419-3.396-10.376-5.195-15.584c-1.334-3.863-5.025-6.418-9.186-5.304
			c-3.738,1.001-6.64,5.317-5.304,9.186c1.799,5.208,4.037,10.166,5.195,15.585c0.855,4.001,5.39,6.32,9.186,5.303
			C82.94,346.405,84.996,342.315,84.142,338.318L84.142,338.318z"/>
	</g>
</g>
<g>
	<g>
		<path d="M48.036,271.482c0-1.732,0-3.463,0-5.195c0-4.086-3.341-7.529-7.447-7.556c-4.065-0.027-7.556,3.362-7.556,7.448
			c0,1.732,0,3.463,0,5.195c0,4.086,3.341,7.529,7.447,7.556C44.545,278.957,48.036,275.568,48.036,271.482L48.036,271.482z"/>
	</g>
</g>
<g>
	<g>
		<path d="M33.75,218.235c0-2.598,0-5.195,0-7.792c0-4.086-3.341-7.529-7.447-7.556c-4.065-0.027-7.556,3.361-7.556,7.447
			c0,2.598,0,5.195,0,7.792c0,4.086,3.341,7.529,7.447,7.556C30.259,225.71,33.75,222.321,33.75,218.235L33.75,218.235z"/>
	</g>
</g>
<g>
	<g>
		<path d="M28.555,161.092c0-3.03,0-6.061,0-9.091c0-4.086-3.341-7.529-7.447-7.556c-4.065-0.027-7.556,3.361-7.556,7.447
			c0,3.03,0,6.061,0,9.091c0,4.086,3.341,7.529,7.447,7.556C25.065,168.567,28.555,165.178,28.555,161.092L28.555,161.092z"/>
	</g>
</g>
<g>
	<g>
		<path d="M52.224,94.658c3.697-8.1,10.826-13.166,17.019-19.253c6.896-6.779-3.758-17.342-10.665-10.552
			c-7.101,6.981-15.098,13.001-19.344,22.305c-1.696,3.715-1.046,8.056,2.745,10.245C45.265,99.3,50.525,98.382,52.224,94.658
			L52.224,94.658z"/>
	</g>
</g>
<g>
	<g>
		<path d="M106.713,54.254c8.956-0.002,17.803-0.181,26.67-1.556c4.049-0.628,6.275-5.56,5.304-9.186
			c-1.145-4.271-5.147-5.93-9.186-5.304c-7.485,1.161-15.126,1.04-22.68,1.042C97.135,39.253,97.05,54.256,106.713,54.254
			L106.713,54.254z"/>
	</g>
</g>
<g>
	<g>
		<path d="M182.038,33.475c9.687,0,9.772-15.003,0.108-15.003C172.46,18.472,172.375,33.475,182.038,33.475L182.038,33.475z"/>
	</g>
</g>
<g>
	<g>
		<path d="M231.389,26.981c3.896,0,7.792,0,11.688,0c4.086,0,7.529-3.341,7.556-7.447c0.027-4.065-3.361-7.556-7.447-7.556
			c-3.896,0-7.792,0-11.688,0c-4.086,0-7.529,3.341-7.556,7.447C223.914,23.491,227.303,26.981,231.389,26.981L231.389,26.981z"/>
	</g>
</g>
<g>
	<g>
		<path d="M309.311,23.085c0.416,0,0.831,0.017,1.246,0.051c-1.71-0.104,0.201,0.071,0.533,0.15c0.405,0.106,0.804,0.23,1.198,0.374
			c-1.565-0.529,0.257,0.207,0.521,0.358c0.703,0.474,0.727,0.469,0.071-0.016c0.535,0.427,1,0.936,1.461,1.438
			c-1-1.09,0.422,0.732,0.499,0.86c0.415,0.689,0.729,1.434,1.042,2.172c1.605,3.768,7.085,4.537,10.268,2.672
			c3.86-2.263,4.272-6.509,2.672-10.268c-3.351-7.867-10.949-12.625-19.402-12.794c-4.086-0.083-7.529,3.403-7.556,7.447
			C301.836,19.658,305.227,23.003,309.311,23.085L309.311,23.085z"/>
	</g>
</g>
</svg>
